<?xml version='1.0' encoding='utf-8'?>
<mlt LC_NUMERIC="C" producer="main_bin" version="6.22.1" root="/home/boshua/Desktop/dev/carolum-cac20/video">
 <profile frame_rate_num="30000" sample_aspect_num="1" display_aspect_den="9" colorspace="709" progressive="1" description="HD 1080p 29.97 fps" display_aspect_num="16" frame_rate_den="1001" width="1920" height="1080" sample_aspect_den="1"/>
 <producer id="producer1" in="00:00:00.000" out="00:04:38.105">
  <property name="length">8335</property>
  <property name="eof">pause</property>
  <property name="resource">audio/midnight_rendezvous.mp3</property>
  <property name="meta.media.nb_streams">1</property>
  <property name="meta.media.0.stream.type">audio</property>
  <property name="meta.media.0.codec.sample_fmt">fltp</property>
  <property name="meta.media.0.codec.sample_rate">44100</property>
  <property name="meta.media.0.codec.channels">2</property>
  <property name="meta.media.0.codec.name">mp3float</property>
  <property name="meta.media.0.codec.long_name">MP3 (MPEG audio layer 3)</property>
  <property name="meta.media.0.codec.bit_rate">192000</property>
  <property name="meta.attr.0.stream.encoder.markup">Lavc57.64</property>
  <property name="meta.attr.major_brand.markup">dash</property>
  <property name="meta.attr.minor_version.markup">0</property>
  <property name="meta.attr.compatible_brands.markup">iso6mp41</property>
  <property name="meta.attr.encoder.markup">Lavf57.56.101</property>
  <property name="seekable">1</property>
  <property name="audio_index">0</property>
  <property name="video_index">-1</property>
  <property name="mute_on_pause">1</property>
  <property name="mlt_service">avformat</property>
  <property name="kdenlive:clipname"/>
  <property name="kdenlive:folderid">6</property>
  <property name="kdenlive:id">2</property>
  <property name="kdenlive:file_size">6675154</property>
  <property name="kdenlive:file_hash">825e290e0e79dd74de4ec86b69164e82</property>
  <property name="global_feed">1</property>
 </producer>
 <producer id="producer0" in="00:00:00.000" out="00:00:06.006">
  <property name="length">181</property>
  <property name="eof">pause</property>
  <property name="resource"/>
  <property name="progressive">1</property>
  <property name="aspect_ratio">1</property>
  <property name="seekable">1</property>
  <property name="mlt_service">kdenlivetitle</property>
  <property name="kdenlive:duration">00:00:01.301</property>
  <property name="kdenlive:clipname">CAROLUM1</property>
  <property name="xmldata">&lt;kdenlivetitle duration="39" LC_NUMERIC="C" width="1920" height="1080" out="38">
 &lt;item type="QGraphicsPixmapItem" z-index="5">
  &lt;position x="208" y="351">
   &lt;transform zoom="79">0.79,0,0,0,0.79,0,0,0,1&lt;/transform>
  &lt;/position>
  &lt;content url="/home/boshua/Desktop/dev/carolum-cac20/misc/icons/png/512.png"/>
 &lt;/item>
 &lt;item type="QGraphicsTextItem" z-index="1">
  &lt;position x="227" y="400">
   &lt;transform>1,0,0,0,1,0,0,0,1&lt;/transform>
  &lt;/position>
  &lt;content line-spacing="0" shadow="0;#64000000;3;3;3" font-underline="0" box-height="298" font="Georgia" letter-spacing="0" font-pixel-size="261" font-italic="0" alignment="2" font-weight="75" box-width="1483.23" font-color="0,0,0,255">      ROLUM&lt;/content>
 &lt;/item>
 &lt;startviewport rect="920.193,543.016,43.6667,24.5625"/>
 &lt;endviewport rect="0,0,1920,1080"/>
 &lt;background color="255,255,255,255"/>
&lt;/kdenlivetitle>
</property>
  <property name="kdenlive:folderid">4</property>
  <property name="kdenlive:id">3</property>
  <property name="kdenlive:file_hash">4d436076b19370e40af0e221b911be0b</property>
  <property name="force_reload">0</property>
  <property name="global_feed">1</property>
  <property name="meta.media.width">1920</property>
  <property name="meta.media.height">1080</property>
 </producer>
 <producer id="producer4" in="00:00:00.000" out="00:00:06.006">
  <property name="length">181</property>
  <property name="eof">pause</property>
  <property name="resource"/>
  <property name="progressive">1</property>
  <property name="aspect_ratio">1</property>
  <property name="seekable">1</property>
  <property name="mlt_service">kdenlivetitle</property>
  <property name="kdenlive:duration">00:00:00.501</property>
  <property name="kdenlive:clipname">CAROLUM2</property>
  <property name="xmldata">&lt;kdenlivetitle duration="15" LC_NUMERIC="C" width="1920" height="1080" out="14">
 &lt;item type="QGraphicsPixmapItem" z-index="5">
  &lt;position x="208" y="351">
   &lt;transform zoom="79">0.79,0,0,0,0.79,0,0,0,1&lt;/transform>
  &lt;/position>
  &lt;content url="/home/boshua/Desktop/dev/carolum-cac20/misc/icons/png/512.png"/>
 &lt;/item>
 &lt;item type="QGraphicsTextItem" z-index="1">
  &lt;position x="227" y="400">
   &lt;transform>1,0,0,0,1,0,0,0,1&lt;/transform>
  &lt;/position>
  &lt;content line-spacing="0" shadow="0;#64000000;3;3;3" font-underline="0" box-height="298" font="Georgia" letter-spacing="0" font-pixel-size="261" font-italic="0" alignment="2" font-weight="75" box-width="1483.23" font-color="0,0,0,255">      ROLUM&lt;/content>
 &lt;/item>
 &lt;startviewport rect="3.52633,1.34933,1915.47,1077.45"/>
 &lt;endviewport rect="-319.097,-3.22581,2551.11,1435"/>
 &lt;background color="255,255,255,255"/>
&lt;/kdenlivetitle>
</property>
  <property name="kdenlive:folderid">4</property>
  <property name="kdenlive:id">5</property>
  <property name="kdenlive:file_hash">6a8a6f3c32da20c5cc3549ff1be67f2f</property>
  <property name="force_reload">0</property>
  <property name="global_feed">1</property>
  <property name="meta.media.width">1920</property>
  <property name="meta.media.height">1080</property>
 </producer>
 <producer id="producer2" in="00:00:00.000" out="00:02:26.426">
  <property name="length">4389</property>
  <property name="eof">pause</property>
  <property name="resource">0xffffffff</property>
  <property name="aspect_ratio">1</property>
  <property name="mlt_service">color</property>
  <property name="kdenlive:clipname">bg</property>
  <property name="kdenlive:duration">00:00:05.005</property>
  <property name="kdenlive:folderid">12</property>
  <property name="kdenlive:id">7</property>
  <property name="mlt_image_format">rgb24</property>
  <property name="kdenlive:file_hash">039b56a692cd66eefeea44a17539e5a2</property>
 </producer>
 <producer id="producer3" in="00:00:00.000" out="00:00:06.006">
  <property name="length">181</property>
  <property name="eof">pause</property>
  <property name="resource"/>
  <property name="progressive">1</property>
  <property name="aspect_ratio">1</property>
  <property name="seekable">1</property>
  <property name="mlt_service">kdenlivetitle</property>
  <property name="kdenlive:duration">00:00:00.667</property>
  <property name="kdenlive:clipname">CAROLUM3</property>
  <property name="xmldata">&lt;kdenlivetitle duration="20" LC_NUMERIC="C" width="1920" height="1080" out="19">
 &lt;item type="QGraphicsTextItem" z-index="11">
  &lt;position x="838" y="809">
   &lt;transform>1,0,0,0,1,0,0,0,1&lt;/transform>
  &lt;/position>
  &lt;content shadow="0;#64000000;3;3;3" font-underline="0" box-height="163" font="Georgia" letter-spacing="0" font-pixel-size="142" font-italic="0" alignment="2" font-weight="25" box-width="457.5" font-color="0,0,0,255">flexible&lt;/content>
 &lt;/item>
 &lt;item type="QGraphicsTextItem" z-index="10">
  &lt;position x="1420" y="809">
   &lt;transform>1,0,0,0,1,0,0,0,1&lt;/transform>
  &lt;/position>
  &lt;content shadow="0;#64000000;3;3;3" font-underline="0" box-height="163" font="Georgia" letter-spacing="0" font-pixel-size="142" font-italic="0" alignment="2" font-weight="25" box-width="402.953" font-color="0,0,0,255">secure&lt;/content>
 &lt;/item>
 &lt;item type="QGraphicsTextItem" z-index="9">
  &lt;position x="97" y="809">
   &lt;transform>1,0,0,0,1,0,0,0,1&lt;/transform>
  &lt;/position>
  &lt;content shadow="0;#64000000;3;3;3" font-underline="0" box-height="163" font="Georgia" letter-spacing="0" font-pixel-size="142" font-italic="0" alignment="2" font-weight="25" box-width="622.219" font-color="0,0,0,255">accessible&lt;/content>
 &lt;/item>
 &lt;item type="QGraphicsPixmapItem" z-index="5">
  &lt;position x="208" y="351">
   &lt;transform zoom="79">0.79,0,0,0,0.79,0,0,0,1&lt;/transform>
  &lt;/position>
  &lt;content url="/home/boshua/Desktop/dev/carolum-cac20/misc/icons/png/512.png"/>
 &lt;/item>
 &lt;item type="QGraphicsTextItem" z-index="1">
  &lt;position x="227" y="400">
   &lt;transform>1,0,0,0,1,0,0,0,1&lt;/transform>
  &lt;/position>
  &lt;content line-spacing="0" shadow="0;#64000000;3;3;3" font-underline="0" box-height="298" font="Georgia" letter-spacing="0" font-pixel-size="261" font-italic="0" alignment="2" font-weight="75" box-width="1483.23" font-color="0,0,0,255">      ROLUM&lt;/content>
 &lt;/item>
 &lt;startviewport rect="-318.696,-4.20623,2545.7,1431.95"/>
 &lt;endviewport rect="-319.097,-3.22581,2547.96,1433.23"/>
 &lt;background color="255,255,255,255"/>
&lt;/kdenlivetitle>
</property>
  <property name="kdenlive:folderid">4</property>
  <property name="kdenlive:id">8</property>
  <property name="kdenlive:file_hash">51a6f4b27969febecde6617cd5fb682d</property>
  <property name="force_reload">0</property>
  <property name="global_feed">1</property>
  <property name="meta.media.width">1920</property>
  <property name="meta.media.height">1080</property>
 </producer>
 <producer id="producer6" in="00:00:00.000" out="00:00:04.972">
  <property name="length">150</property>
  <property name="eof">pause</property>
  <property name="resource"/>
  <property name="progressive">1</property>
  <property name="aspect_ratio">1</property>
  <property name="seekable">1</property>
  <property name="mlt_service">kdenlivetitle</property>
  <property name="kdenlive:duration">150</property>
  <property name="kdenlive:clipname">Journalling ...</property>
  <property name="xmldata">&lt;kdenlivetitle duration="150" LC_NUMERIC="C" width="1920" height="1080" out="149">
 &lt;item type="QGraphicsTextItem" z-index="3">
  &lt;position x="978" y="582">
   &lt;transform>1,0,0,0,1,0,0,0,1&lt;/transform>
  &lt;/position>
  &lt;content line-spacing="0" shadow="0;#64000000;3;3;3" font-underline="0" box-height="130" font-outline-color="0,0,0,255" font="Georgia" letter-spacing="0" font-pixel-size="114" font-italic="0" alignment="2" font-weight="25" font-outline="0" box-width="442.953" font-color="248,131,121,255">mentally&lt;/content>
 &lt;/item>
 &lt;item type="QGraphicsTextItem" z-index="2">
  &lt;position x="237" y="580">
   &lt;transform>1,0,0,0,1,0,0,0,1&lt;/transform>
  &lt;/position>
  &lt;content line-spacing="0" shadow="0;#64000000;3;3;3" font-underline="0" box-height="130" font-outline-color="0,0,0,255" font="Georgia" letter-spacing="0" font-pixel-size="114" font-italic="0" alignment="2" font-weight="25" font-outline="0" box-width="502.75" font-color="248,131,121,255">physically&lt;/content>
 &lt;/item>
 &lt;item type="QGraphicsTextItem" z-index="1">
  &lt;position x="239" y="448">
   &lt;transform>1,0,0,0,1,0,0,0,1&lt;/transform>
  &lt;/position>
  &lt;content line-spacing="0" shadow="0;#64000000;3;3;3" font-underline="0" box-height="130" font-outline-color="0,0,0,255" font="Georgia" letter-spacing="0" font-pixel-size="114" font-italic="0" alignment="2" font-weight="25" font-outline="0" box-width="581.484" font-color="248,131,121,255">Journalling&lt;/content>
 &lt;/item>
 &lt;item type="QGraphicsTextItem" z-index="0">
  &lt;position x="237" y="452">
   &lt;transform>1,0,0,0,1,0,0,0,1&lt;/transform>
  &lt;/position>
  &lt;content line-spacing="0" shadow="0;#64000000;3;3;3" font-underline="0" box-height="260" font="Georgia" letter-spacing="0" font-pixel-size="114" font-italic="0" alignment="1" font-weight="25" box-width="1460.28" font-color="0,0,0,255">                      is beneficial both
                   and                 .   &lt;/content>
 &lt;/item>
 &lt;startviewport rect="0,0,1920,1080"/>
 &lt;endviewport rect="0,0,1920,1080"/>
 &lt;background color="255,255,255,255"/>
&lt;/kdenlivetitle>
</property>
  <property name="kdenlive:folderid">16</property>
  <property name="kdenlive:id">9</property>
  <property name="kdenlive:file_hash">b54b9e46c34b02521693c066fa6cdc92</property>
  <property name="force_reload">0</property>
  <property name="meta.media.width">1920</property>
  <property name="meta.media.height">1080</property>
 </producer>
 <producer id="producer7" in="00:00:00.000" out="00:00:07.674">
  <property name="length">231</property>
  <property name="eof">pause</property>
  <property name="resource"/>
  <property name="progressive">1</property>
  <property name="aspect_ratio">1</property>
  <property name="seekable">1</property>
  <property name="mlt_service">kdenlivetitle</property>
  <property name="kdenlive:duration">150</property>
  <property name="kdenlive:clipname">According to...</property>
  <property name="xmldata">&lt;kdenlivetitle duration="150" LC_NUMERIC="C" width="1920" height="1080" out="149">
 &lt;item type="QGraphicsTextItem" z-index="4">
  &lt;position x="188" y="318">
   &lt;transform>1,0,0,0,1,0,0,0,1&lt;/transform>
  &lt;/position>
  &lt;content line-spacing="0" shadow="0;#64000000;3;3;3" font-underline="0" box-height="332" font="Georgia" letter-spacing="0" font-pixel-size="73" font-italic="0" alignment="1" font-weight="25" box-width="317.109" font-color="248,131,121,255">Reduced
Improved
Reduced
Better&lt;/content>
 &lt;/item>
 &lt;item type="QGraphicsTextItem" z-index="3">
  &lt;position x="208" y="318">
   &lt;transform>1,0,0,0,1,0,0,0,1&lt;/transform>
  &lt;/position>
  &lt;content line-spacing="0" shadow="0;#64000000;3;3;3" font-underline="0" box-height="332" font="Georgia" letter-spacing="0" font-pixel-size="73" font-italic="0" alignment="1" font-weight="25" box-width="943.938" font-color="0,0,0,255">                blood pressure
                  lung/liver function 
                depression
           working memory&lt;/content>
 &lt;/item>
 &lt;item type="QGraphicsTextItem" z-index="0">
  &lt;position x="193" y="157">
   &lt;transform>1,0,0,0,1,0,0,0,1&lt;/transform>
  &lt;/position>
  &lt;content line-spacing="0" shadow="0;#64000000;3;3;3" font-underline="0" box-height="83" font="Georgia" letter-spacing="0" font-pixel-size="73" font-italic="0" alignment="1" font-weight="25" box-width="678.828" font-color="0,0,0,255">Expressive Writing =&lt;/content>
 &lt;/item>
 &lt;startviewport rect="0,0,1920,1080"/>
 &lt;endviewport rect="0,0,1920,1080"/>
 &lt;background color="255,255,255,255"/>
&lt;/kdenlivetitle>
</property>
  <property name="kdenlive:folderid">16</property>
  <property name="kdenlive:id">10</property>
  <property name="kdenlive:file_hash">89af75c5821f74d5721016cc8084148b</property>
  <property name="force_reload">0</property>
  <property name="meta.media.width">1920</property>
  <property name="meta.media.height">1080</property>
  <property name="global_feed">1</property>
 </producer>
 <producer id="producer8" in="00:00:00.000" out="00:00:08.509">
  <property name="length">256</property>
  <property name="eof">pause</property>
  <property name="resource"/>
  <property name="progressive">1</property>
  <property name="aspect_ratio">1</property>
  <property name="seekable">1</property>
  <property name="mlt_service">kdenlivetitle</property>
  <property name="kdenlive:duration">150</property>
  <property name="kdenlive:clipname">just to name a few</property>
  <property name="xmldata">&lt;kdenlivetitle duration="150" LC_NUMERIC="C" width="1920" height="1080" out="149">
 &lt;item type="QGraphicsTextItem" z-index="7">
  &lt;position x="697" y="806">
   &lt;transform>1,0,0,0,1,0,0,0,1&lt;/transform>
  &lt;/position>
  &lt;content line-spacing="0" shadow="0;#64000000;3;3;3" font-underline="0" box-height="83" font="Georgia" letter-spacing="0" font-pixel-size="73" font-italic="0" alignment="2" font-weight="25" box-width="832.766" font-color="248,131,121,255">more important than ever&lt;/content>
 &lt;/item>
 &lt;item type="QGraphicsTextItem" z-index="6">
  &lt;position x="192" y="807">
   &lt;transform>1,0,0,0,1,0,0,0,1&lt;/transform>
  &lt;/position>
  &lt;content line-spacing="0" shadow="0;#64000000;3;3;3" font-underline="0" box-height="166" font="Georgia" letter-spacing="0" font-pixel-size="73" font-italic="0" alignment="1" font-weight="25" box-width="537.875" font-color="0,0,0,255">Which are now
in this pandemic&lt;/content>
 &lt;/item>
 &lt;item type="QGraphicsTextItem" z-index="4">
  &lt;position x="188" y="318">
   &lt;transform>1,0,0,0,1,0,0,0,1&lt;/transform>
  &lt;/position>
  &lt;content line-spacing="0" shadow="0;#64000000;3;3;3" font-underline="0" box-height="415" font="Georgia" letter-spacing="0" font-pixel-size="73" font-italic="0" alignment="1" font-weight="25" box-width="317.109" font-color="248,131,121,255">Reduced
Improved
Reduced
Higher
Better&lt;/content>
 &lt;/item>
 &lt;item type="QGraphicsTextItem" z-index="3">
  &lt;position x="208" y="318">
   &lt;transform>1,0,0,0,1,0,0,0,1&lt;/transform>
  &lt;/position>
  &lt;content line-spacing="0" shadow="0;#64000000;3;3;3" font-underline="0" box-height="415" font="Georgia" letter-spacing="0" font-pixel-size="73" font-italic="0" alignment="1" font-weight="25" box-width="943.938" font-color="0,0,0,255">                blood pressure
                  lung/liver function 
                depression
             GPA
           working memory&lt;/content>
 &lt;/item>
 &lt;item type="QGraphicsTextItem" z-index="0">
  &lt;position x="195" y="107">
   &lt;transform>1,0,0,0,1,0,0,0,1&lt;/transform>
  &lt;/position>
  &lt;content line-spacing="0" shadow="0;#64000000;3;3;3" font-underline="0" box-height="166" font="Georgia" letter-spacing="0" font-pixel-size="73" font-italic="0" alignment="1" font-weight="25" box-width="1258.7" font-color="0,0,0,255">According to a study, health benefits of
expressive writing include:&lt;/content>
 &lt;/item>
 &lt;startviewport rect="0,0,1920,1080"/>
 &lt;endviewport rect="0,0,1920,1080"/>
 &lt;background color="255,255,255,255"/>
&lt;/kdenlivetitle>
</property>
  <property name="kdenlive:folderid">16</property>
  <property name="kdenlive:id">11</property>
  <property name="kdenlive:file_hash">98b362a8fd09d6899e8ee976b3a3d589</property>
  <property name="force_reload">0</property>
  <property name="global_feed">1</property>
  <property name="meta.media.width">1920</property>
  <property name="meta.media.height">1080</property>
 </producer>
 <producer id="producer10" in="00:00:00.000" out="00:00:04.972">
  <property name="length">150</property>
  <property name="eof">pause</property>
  <property name="resource"/>
  <property name="progressive">1</property>
  <property name="aspect_ratio">1</property>
  <property name="seekable">1</property>
  <property name="mlt_service">kdenlivetitle</property>
  <property name="kdenlive:duration">150</property>
  <property name="kdenlive:clipname">So then....</property>
  <property name="xmldata">&lt;kdenlivetitle duration="150" LC_NUMERIC="C" width="1920" height="1080" out="149">
 &lt;item type="QGraphicsTextItem" z-index="0">
  &lt;position x="627" y="311">
   &lt;transform>1,0,0,0,1,0,0,0,1&lt;/transform>
  &lt;/position>
  &lt;content line-spacing="0" shadow="0;#64000000;3;3;3" font-underline="0" box-height="171" font-outline-color="0,0,0,255" font="Georgia" letter-spacing="0" font-pixel-size="150" font-italic="0" alignment="2" font-weight="25" font-outline="0" box-width="663.047" font-color="0,0,0,255">So then....&lt;/content>
 &lt;/item>
 &lt;startviewport rect="0,0,1920,1080"/>
 &lt;endviewport rect="0,0,1920,1080"/>
 &lt;background color="255,255,255,255"/>
&lt;/kdenlivetitle>
</property>
  <property name="kdenlive:folderid">17</property>
  <property name="kdenlive:id">13</property>
  <property name="kdenlive:file_hash">1e10e1cca2e5ce26d27ceb20d80f2187</property>
  <property name="force_reload">0</property>
  <property name="meta.media.width">1920</property>
  <property name="meta.media.height">1080</property>
  <property name="global_feed">1</property>
 </producer>
 <producer id="producer9" in="00:00:00.000" out="00:00:04.972">
  <property name="length">150</property>
  <property name="eof">pause</property>
  <property name="resource"/>
  <property name="progressive">1</property>
  <property name="aspect_ratio">1</property>
  <property name="seekable">1</property>
  <property name="mlt_service">kdenlivetitle</property>
  <property name="kdenlive:duration">150</property>
  <property name="kdenlive:clipname">so then 2</property>
  <property name="xmldata">&lt;kdenlivetitle duration="150" LC_NUMERIC="C" width="1920" height="1080" out="149">
 &lt;item type="QGraphicsTextItem" z-index="2">
  &lt;position x="773" y="481">
   &lt;transform>1,0,0,0,1,0,0,0,1&lt;/transform>
  &lt;/position>
  &lt;content line-spacing="0" shadow="0;#64000000;3;3;3" font-underline="0" box-height="262" font="Georgia" letter-spacing="0" font-pixel-size="115" font-italic="0" alignment="2" font-weight="25" box-width="631.109" font-color="248,131,121,255">more people
&lt;/content>
 &lt;/item>
 &lt;item type="QGraphicsTextItem" z-index="1">
  &lt;position x="211" y="481">
   &lt;transform>1,0,0,0,1,0,0,0,1&lt;/transform>
  &lt;/position>
  &lt;content line-spacing="0" shadow="0;#64000000;3;3;3" font-underline="0" box-height="132" font="Georgia" letter-spacing="0" font-pixel-size="115" font-italic="0" alignment="2" font-weight="25" box-width="1501.33" font-color="0,0,0,255">Why don't                         do it?&lt;/content>
 &lt;/item>
 &lt;item type="QGraphicsTextItem" z-index="0">
  &lt;position x="627" y="311">
   &lt;transform>1,0,0,0,1,0,0,0,1&lt;/transform>
  &lt;/position>
  &lt;content line-spacing="0" shadow="0;#64000000;3;3;3" font-underline="0" box-height="171" font="Georgia" letter-spacing="0" font-pixel-size="150" font-italic="0" alignment="2" font-weight="25" box-width="663.047" font-color="0,0,0,255">So then....&lt;/content>
 &lt;/item>
 &lt;startviewport rect="0,0,1920,1080"/>
 &lt;endviewport rect="0,0,1920,1080"/>
 &lt;background color="255,255,255,255"/>
&lt;/kdenlivetitle>
</property>
  <property name="kdenlive:folderid">17</property>
  <property name="kdenlive:id">14</property>
  <property name="kdenlive:file_hash">1e10e1cca2e5ce26d27ceb20d80f2187</property>
  <property name="force_reload">0</property>
  <property name="global_feed">1</property>
  <property name="meta.media.width">1920</property>
  <property name="meta.media.height">1080</property>
 </producer>
 <producer id="producer11" in="00:00:00.000" out="00:00:07.975">
  <property name="length">240</property>
  <property name="eof">pause</property>
  <property name="resource"/>
  <property name="progressive">1</property>
  <property name="aspect_ratio">1</property>
  <property name="seekable">1</property>
  <property name="mlt_service">kdenlivetitle</property>
  <property name="kdenlive:duration">150</property>
  <property name="kdenlive:clipname">Three Bigges...</property>
  <property name="xmldata">&lt;kdenlivetitle duration="150" LC_NUMERIC="C" width="1920" height="1080" out="149">
 &lt;item type="QGraphicsTextItem" z-index="2">
  &lt;position x="193" y="318">
   &lt;transform>1,0,0,0,1,0,0,0,1&lt;/transform>
  &lt;/position>
  &lt;content line-spacing="0" shadow="0;#64000000;3;3;3" font-underline="0" box-height="570" font="Georgia" letter-spacing="0" font-pixel-size="100" font-italic="0" alignment="1" font-weight="25" box-width="550.859" font-color="0,0,0,255">Accessibility

Flexiblity

Security&lt;/content>
 &lt;/item>
 &lt;item type="QGraphicsTextItem" z-index="1">
  &lt;position x="672" y="108">
   &lt;transform>1,0,0,0,1,0,0,0,1&lt;/transform>
  &lt;/position>
  &lt;content line-spacing="0" shadow="0;#64000000;3;3;3" font-underline="0" box-height="171" font-outline-color="0,0,0,255" font="Georgia" letter-spacing="0" font-pixel-size="150" font-italic="0" alignment="1" font-weight="25" font-outline="0" box-width="575.484" font-color="0,0,0,255">Carolum&lt;/content>
 &lt;/item>
 &lt;startviewport rect="0,0,1920,1080"/>
 &lt;endviewport rect="0,0,1920,1080"/>
 &lt;background color="255,255,255,255"/>
&lt;/kdenlivetitle>
</property>
  <property name="kdenlive:folderid">22</property>
  <property name="kdenlive:id">15</property>
  <property name="kdenlive:file_hash">c46b3f29e15eeab0eb73c00df60aa5c2</property>
  <property name="force_reload">0</property>
  <property name="meta.media.width">1920</property>
  <property name="meta.media.height">1080</property>
  <property name="global_feed">1</property>
 </producer>
 <producer id="producer12" in="00:00:00.000" out="00:00:07.107">
  <property name="length">214</property>
  <property name="eof">pause</property>
  <property name="resource"/>
  <property name="progressive">1</property>
  <property name="aspect_ratio">1</property>
  <property name="seekable">1</property>
  <property name="mlt_service">kdenlivetitle</property>
  <property name="kdenlive:duration">150</property>
  <property name="kdenlive:clipname">transition_beginning</property>
  <property name="xmldata">&lt;kdenlivetitle duration="150" LC_NUMERIC="C" width="1920" height="1080" out="149">
 &lt;item type="QGraphicsTextItem" z-index="3">
  &lt;position x="318" y="533">
   &lt;transform>1,0,0,0,1,0,0,0,1&lt;/transform>
  &lt;/position>
  &lt;content line-spacing="0" shadow="0;#64000000;3;3;3" font-underline="0" box-height="171" font="Georgia" letter-spacing="0" font-pixel-size="150" font-italic="0" alignment="2" font-weight="25" box-width="1306.92" font-color="248,131,121,255">addresses each one.&lt;/content>
 &lt;/item>
 &lt;item type="QGraphicsTextItem" z-index="1">
  &lt;position x="286" y="395">
   &lt;transform>1,0,0,0,1,0,0,0,1&lt;/transform>
  &lt;/position>
  &lt;content line-spacing="0" shadow="0;#64000000;3;3;3" font-underline="0" box-height="171" font="Georgia" letter-spacing="0" font-pixel-size="150" font-italic="0" alignment="4" font-weight="25" box-width="1352.36" font-color="0,0,0,255">Here's how Carolum&lt;/content>
 &lt;/item>
 &lt;startviewport rect="0,0,1920,1080"/>
 &lt;endviewport rect="0,0,1920,1080"/>
 &lt;background color="255,255,255,255"/>
&lt;/kdenlivetitle>
</property>
  <property name="kdenlive:folderid">22</property>
  <property name="kdenlive:id">18</property>
  <property name="kdenlive:file_hash">d020ca38780655dc8fc3c7fc596edbd7</property>
  <property name="force_reload">0</property>
  <property name="global_feed">1</property>
  <property name="meta.media.width">1920</property>
  <property name="meta.media.height">1080</property>
 </producer>
 <producer id="producer14" in="00:00:00.000" out="00:00:04.972">
  <property name="length">150</property>
  <property name="eof">pause</property>
  <property name="resource"/>
  <property name="progressive">1</property>
  <property name="aspect_ratio">1</property>
  <property name="seekable">1</property>
  <property name="mlt_service">kdenlivetitle</property>
  <property name="kdenlive:duration">00:00:01.001</property>
  <property name="kdenlive:clipname">Distracting transition</property>
  <property name="xmldata">&lt;kdenlivetitle duration="30" LC_NUMERIC="C" width="1920" height="1080" out="29">
 &lt;item type="QGraphicsTextItem" z-index="0">
  &lt;position x="549" y="463">
   &lt;transform>1,0,0,0,1,0,0,0,1&lt;/transform>
  &lt;/position>
  &lt;content line-spacing="0" shadow="0;#64000000;3;3;3" font-underline="0" box-height="171" font="Georgia" letter-spacing="0" font-pixel-size="150" font-italic="0" alignment="2" font-weight="25" box-width="826.297" font-color="0,0,0,255">Accessibility&lt;/content>
 &lt;/item>
 &lt;startviewport rect="0,0,1920,1080"/>
 &lt;endviewport rect="419,339,2355.38,1324.9"/>
 &lt;background color="255,255,255,255"/>
&lt;/kdenlivetitle>
</property>
  <property name="kdenlive:folderid">25</property>
  <property name="kdenlive:id">19</property>
  <property name="kdenlive:file_hash">1cba79a34e149c240739dd4c04d0de75</property>
  <property name="force_reload">0</property>
  <property name="global_feed">1</property>
  <property name="meta.media.width">1920</property>
  <property name="meta.media.height">1080</property>
 </producer>
 <producer id="producer24" in="00:00:00.000" out="00:00:04.972">
  <property name="length">150</property>
  <property name="eof">pause</property>
  <property name="resource"/>
  <property name="progressive">1</property>
  <property name="aspect_ratio">1</property>
  <property name="seekable">1</property>
  <property name="mlt_service">kdenlivetitle</property>
  <property name="kdenlive:duration">00:00:05.005</property>
  <property name="kdenlive:clipname">Distracting</property>
  <property name="xmldata">&lt;kdenlivetitle duration="0" LC_NUMERIC="C" width="1920" height="1080" out="-1">
 &lt;item type="QGraphicsTextItem" z-index="0">
  &lt;position x="570" y="460">
   &lt;transform>1,0,0,0,1,0,0,0,1&lt;/transform>
  &lt;/position>
  &lt;content line-spacing="0" shadow="0;#64000000;3;3;3" font-underline="0" box-height="171" font="Georgia" letter-spacing="0" font-pixel-size="150" font-italic="0" alignment="2" font-weight="25" box-width="826.297" font-color="0,0,0,255">Accessibility&lt;/content>
 &lt;/item>
 &lt;startviewport rect="0,0,1920,1080"/>
 &lt;endviewport rect="0,0,1920,1080"/>
 &lt;background color="255,255,255,255"/>
&lt;/kdenlivetitle>
</property>
  <property name="kdenlive:folderid">25</property>
  <property name="kdenlive:id">20</property>
  <property name="kdenlive:file_hash">4a4b604c894351f9edf7861d449b26d2</property>
  <property name="force_reload">0</property>
  <property name="global_feed">1</property>
  <property name="meta.media.width">1920</property>
  <property name="meta.media.height">1080</property>
 </producer>
 <producer id="producer16" in="00:00:00.000" out="00:00:00.567">
  <property name="length">18</property>
  <property name="eof">pause</property>
  <property name="resource">animations/popups.gif</property>
  <property name="audio_index">-1</property>
  <property name="video_index">0</property>
  <property name="mute_on_pause">0</property>
  <property name="mlt_service">avformat-novalidate</property>
  <property name="seekable">1</property>
  <property name="aspect_ratio">1</property>
  <property name="kdenlive:clipname"/>
  <property name="kdenlive:duration">00:00:05.005</property>
  <property name="kdenlive:folderid">25</property>
  <property name="kdenlive:id">23</property>
  <property name="kdenlive:file_size">1116778</property>
  <property name="kdenlive:file_hash">9cf0f7a9a0a5cf8bf988de38134adb48</property>
  <property name="global_feed">1</property>
  <property name="kdenlive:activeeffect">0</property>
  <property name="meta.media.nb_streams">1</property>
  <property name="meta.media.0.stream.type">video</property>
  <property name="meta.media.0.stream.frame_rate">10</property>
  <property name="meta.media.0.stream.sample_aspect_ratio">0</property>
  <property name="meta.media.0.codec.width">920</property>
  <property name="meta.media.0.codec.height">2031</property>
  <property name="meta.media.0.codec.rotate">0</property>
  <property name="meta.media.0.codec.frame_rate">100</property>
  <property name="meta.media.0.codec.pix_fmt">bgra</property>
  <property name="meta.media.0.codec.sample_aspect_ratio">0</property>
  <property name="meta.media.0.codec.colorspace">709</property>
  <property name="meta.media.0.codec.name">gif</property>
  <property name="meta.media.0.codec.long_name">GIF (Graphics Interchange Format)</property>
  <property name="meta.media.0.codec.bit_rate">0</property>
  <property name="meta.attr.comment.markup">Created with GIMP</property>
  <property name="meta.media.sample_aspect_num">1</property>
  <property name="meta.media.sample_aspect_den">1</property>
  <property name="meta.media.frame_rate_num">10</property>
  <property name="meta.media.frame_rate_den">1</property>
  <property name="meta.media.colorspace">709</property>
  <property name="meta.media.color_trc">2</property>
  <property name="meta.media.width">920</property>
  <property name="meta.media.height">2031</property>
  <property name="meta.media.color_range">mpeg</property>
  <property name="meta.media.top_field_first">0</property>
  <property name="meta.media.progressive">1</property>
  <filter id="filter0">
   <property name="rotate_center">1</property>
   <property name="mlt_service">qtblend</property>
   <property name="kdenlive_id">qtblend</property>
   <property name="rect">00:00:00.000=0 0 1920 1080 1</property>
   <property name="rotation">00:00:00.000=0</property>
   <property name="compositing">11</property>
   <property name="distort">0</property>
   <property name="kdenlive:collapsed">0</property>
  </filter>
 </producer>
 <producer id="producer64" in="00:00:00.000" out="00:00:05.005">
  <property name="length">151</property>
  <property name="eof">pause</property>
  <property name="resource"/>
  <property name="progressive">1</property>
  <property name="aspect_ratio">1</property>
  <property name="seekable">1</property>
  <property name="mlt_service">kdenlivetitle</property>
  <property name="kdenlive:duration">00:00:05.038</property>
  <property name="kdenlive:clipname">carolumgud1</property>
  <property name="xmldata">&lt;kdenlivetitle duration="0" LC_NUMERIC="C" width="1920" height="1080" out="-1">
 &lt;item type="QGraphicsTextItem" z-index="0">
  &lt;position x="470" y="443">
   &lt;transform>1,0,0,0,1,0,0,0,1&lt;/transform>
  &lt;/position>
  &lt;content line-spacing="0" shadow="0;#64000000;3;3;3" font-underline="0" box-height="171" font="Georgia" letter-spacing="0" font-pixel-size="150" font-italic="0" alignment="2" font-weight="25" box-width="669.344" font-color="0,0,0,255">Simple UI&lt;/content>
 &lt;/item>
 &lt;startviewport rect="0,0,1920,1080"/>
 &lt;endviewport rect="340.625,318.75,2355.38,1324.9"/>
 &lt;background color="255,255,255,255"/>
&lt;/kdenlivetitle>
</property>
  <property name="kdenlive:folderid">25</property>
  <property name="kdenlive:id">27</property>
  <property name="kdenlive:file_hash">14881dbd8cb83475519483e4515a456a</property>
  <property name="force_reload">0</property>
  <property name="global_feed">1</property>
  <property name="meta.media.width">1920</property>
  <property name="meta.media.height">1080</property>
 </producer>
 <producer id="producer21" in="00:00:00.000" out="00:00:04.972">
  <property name="length">150</property>
  <property name="eof">pause</property>
  <property name="resource"/>
  <property name="progressive">1</property>
  <property name="aspect_ratio">1</property>
  <property name="seekable">1</property>
  <property name="mlt_service">kdenlivetitle</property>
  <property name="kdenlive:duration">00:00:01.001</property>
  <property name="kdenlive:clipname">point 2.5 slide outttttttt</property>
  <property name="xmldata">&lt;kdenlivetitle duration="30" LC_NUMERIC="C" width="1920" height="1080" out="29">
 &lt;item type="QGraphicsTextItem" z-index="3">
  &lt;position x="657" y="829">
   &lt;transform>1,0,0,0,1,0,0,0,1&lt;/transform>
  &lt;/position>
  &lt;content shadow="0;#64000000;3;3;3" font-underline="0" box-height="106" font="Georgia" letter-spacing="0" font-pixel-size="92" font-italic="0" alignment="2" font-weight="25" box-width="1656.59" font-color="0,0,0,255">They're so colorful! And annoying to see!&lt;/content>
 &lt;/item>
 &lt;item type="QGraphicsTextItem" z-index="2">
  &lt;position x="586" y="1391">
   &lt;transform>1,0,0,0,1,0,0,0,1&lt;/transform>
  &lt;/position>
  &lt;content line-spacing="0" shadow="0;#64000000;3;3;3" font-underline="0" box-height="114" font="Georgia" letter-spacing="0" font-pixel-size="100" font-italic="0" alignment="2" font-weight="25" box-width="1568.52" font-color="0,0,0,255">Paywalls, complicated accounts, etc&lt;/content>
 &lt;/item>
 &lt;item type="QGraphicsTextItem" z-index="1">
  &lt;position x="476" y="665">
   &lt;transform>1,0,0,0,1,0,0,0,1&lt;/transform>
  &lt;/position>
  &lt;content line-spacing="0" shadow="0;#64000000;3;3;3" font-underline="0" box-height="680" font="Georgia" letter-spacing="0" font-pixel-size="120" font-italic="0" alignment="1" font-weight="25" box-width="1837.56" font-color="0,0,0,255">Most apps on the market have ads.



They also take too long to use.&lt;/content>
 &lt;/item>
 &lt;item type="QGraphicsTextItem" z-index="0">
  &lt;position x="470" y="443">
   &lt;transform>1,0,0,0,1,0,0,0,1&lt;/transform>
  &lt;/position>
  &lt;content line-spacing="0" shadow="0;#64000000;3;3;3" font-underline="0" box-height="171" font="Georgia" letter-spacing="0" font-pixel-size="150" font-italic="0" alignment="2" font-weight="25" box-width="826.297" font-color="0,0,0,255">Accessibility&lt;/content>
 &lt;/item>
 &lt;startviewport rect="340,318,2355,1324"/>
 &lt;endviewport rect="-2000,318,2355.38,1324.9"/>
 &lt;background color="255,255,255,255"/>
&lt;/kdenlivetitle>
</property>
  <property name="kdenlive:folderid">25</property>
  <property name="kdenlive:id">28</property>
  <property name="kdenlive:file_hash">0d633491e2459cc2a82b0c94d0c26f96</property>
  <property name="force_reload">0</property>
  <property name="global_feed">1</property>
  <property name="meta.media.width">1920</property>
  <property name="meta.media.height">1080</property>
 </producer>
 <producer id="producer34" in="00:00:00.000" out="00:00:05.005">
  <property name="length">151</property>
  <property name="eof">pause</property>
  <property name="resource"/>
  <property name="progressive">1</property>
  <property name="aspect_ratio">1</property>
  <property name="seekable">1</property>
  <property name="mlt_service">kdenlivetitle</property>
  <property name="kdenlive:duration">00:00:01.001</property>
  <property name="kdenlive:clipname">carolumgud1 slideinnnnn</property>
  <property name="xmldata">&lt;kdenlivetitle duration="30" LC_NUMERIC="C" width="1920" height="1080" out="29">
 &lt;item type="QGraphicsTextItem" z-index="0">
  &lt;position x="470" y="443">
   &lt;transform>1,0,0,0,1,0,0,0,1&lt;/transform>
  &lt;/position>
  &lt;content line-spacing="0" shadow="0;#64000000;3;3;3" font-underline="0" box-height="171" font="Georgia" letter-spacing="0" font-pixel-size="150" font-italic="0" alignment="2" font-weight="25" box-width="669.344" font-color="0,0,0,255">Simple UI&lt;/content>
 &lt;/item>
 &lt;startviewport rect="2000,318,2355,1324"/>
 &lt;endviewport rect="340.625,318.75,2355.38,1324.9"/>
 &lt;background color="255,255,255,255"/>
&lt;/kdenlivetitle>
</property>
  <property name="kdenlive:folderid">25</property>
  <property name="kdenlive:id">29</property>
  <property name="kdenlive:file_hash">054db2528c22da56dc9e8f522b56fe6c</property>
  <property name="force_reload">0</property>
  <property name="global_feed">1</property>
  <property name="meta.media.width">1920</property>
  <property name="meta.media.height">1080</property>
 </producer>
 <producer id="producer65" in="00:00:00.000" out="00:00:50.651">
  <property name="length">1519</property>
  <property name="eof">pause</property>
  <property name="resource"/>
  <property name="progressive">1</property>
  <property name="aspect_ratio">1</property>
  <property name="seekable">1</property>
  <property name="mlt_service">kdenlivetitle</property>
  <property name="kdenlive:duration">00:00:50.684</property>
  <property name="kdenlive:clipname">carolumgud1.5</property>
  <property name="xmldata">&lt;kdenlivetitle duration="0" LC_NUMERIC="C" width="1920" height="1080" out="-1">
 &lt;item type="QGraphicsTextItem" z-index="1">
  &lt;position x="1180" y="443">
   &lt;transform>1,0,0,0,1,0,0,0,1&lt;/transform>
  &lt;/position>
  &lt;content line-spacing="0" shadow="0;#64000000;3;3;3" font-underline="0" box-height="171" font="Georgia" letter-spacing="0" font-pixel-size="150" font-italic="0" alignment="2" font-weight="25" box-width="667.75" font-color="248,131,121,255">- Carolum&lt;/content>
 &lt;/item>
 &lt;item type="QGraphicsTextItem" z-index="0">
  &lt;position x="470" y="443">
   &lt;transform>1,0,0,0,1,0,0,0,1&lt;/transform>
  &lt;/position>
  &lt;content line-spacing="0" shadow="0;#64000000;3;3;3" font-underline="0" box-height="171" font="Georgia" letter-spacing="0" font-pixel-size="150" font-italic="0" alignment="2" font-weight="25" box-width="705.516" font-color="0,0,0,255">Simple UI &lt;/content>
 &lt;/item>
 &lt;startviewport rect="0,0,1920,1080"/>
 &lt;endviewport rect="340.625,318.75,2355.38,1324.9"/>
 &lt;background color="255,255,255,255"/>
&lt;/kdenlivetitle>
</property>
  <property name="kdenlive:folderid">25</property>
  <property name="kdenlive:id">31</property>
  <property name="kdenlive:file_hash">6f974adaed2b947c8d1117dcb5e485a9</property>
  <property name="force_reload">0</property>
  <property name="global_feed">1</property>
  <property name="meta.media.width">1920</property>
  <property name="meta.media.height">1080</property>
 </producer>
 <producer id="producer15" in="00:00:00.000" out="00:01:04.805">
  <property name="length">1943</property>
  <property name="eof">pause</property>
  <property name="resource">desktop_login_and_create.mp4</property>
  <property name="audio_index">-1</property>
  <property name="video_index">0</property>
  <property name="mute_on_pause">0</property>
  <property name="mlt_service">avformat-novalidate</property>
  <property name="meta.media.nb_streams">1</property>
  <property name="meta.media.0.stream.type">video</property>
  <property name="meta.media.0.stream.frame_rate">29.9075</property>
  <property name="meta.media.0.stream.sample_aspect_ratio">1</property>
  <property name="meta.media.0.codec.width">1088</property>
  <property name="meta.media.0.codec.height">786</property>
  <property name="meta.media.0.codec.rotate">0</property>
  <property name="meta.media.0.codec.frame_rate">30</property>
  <property name="meta.media.0.codec.pix_fmt">yuv420p</property>
  <property name="meta.media.0.codec.sample_aspect_ratio">1</property>
  <property name="meta.media.0.codec.colorspace">709</property>
  <property name="meta.media.0.codec.color_trc">1</property>
  <property name="meta.media.0.codec.name">h264</property>
  <property name="meta.media.0.codec.long_name">H.264 / AVC / MPEG-4 AVC / MPEG-4 part 10</property>
  <property name="meta.media.0.codec.bit_rate">51649</property>
  <property name="meta.attr.0.stream.handler_name.markup">VideoHandler</property>
  <property name="meta.attr.major_brand.markup">isom</property>
  <property name="meta.attr.minor_version.markup">512</property>
  <property name="meta.attr.compatible_brands.markup">isomiso2avc1mp41</property>
  <property name="meta.attr.encoder.markup">Lavf58.45.100</property>
  <property name="seekable">1</property>
  <property name="meta.media.sample_aspect_num">1</property>
  <property name="meta.media.sample_aspect_den">1</property>
  <property name="aspect_ratio">1</property>
  <property name="kdenlive:clipname"/>
  <property name="kdenlive:folderid">25</property>
  <property name="meta.media.frame_rate_num">11634</property>
  <property name="meta.media.frame_rate_den">389</property>
  <property name="meta.media.colorspace">709</property>
  <property name="meta.media.color_trc">1</property>
  <property name="meta.media.width">1088</property>
  <property name="meta.media.height">786</property>
  <property name="meta.media.color_range">mpeg</property>
  <property name="kdenlive:id">32</property>
  <property name="kdenlive:file_size">442597</property>
  <property name="kdenlive:file_hash">cffa88bd98ec31b4756faf4953ea5973</property>
  <property name="meta.media.top_field_first">0</property>
  <property name="meta.media.progressive">1</property>
  <property name="global_feed">1</property>
 </producer>
 <producer id="producer25" in="00:00:00.000" out="00:00:53.253">
  <property name="length">1597</property>
  <property name="eof">pause</property>
  <property name="resource">mobile_login_and_create.mp4</property>
  <property name="audio_index">-1</property>
  <property name="video_index">0</property>
  <property name="mute_on_pause">0</property>
  <property name="mlt_service">avformat-novalidate</property>
  <property name="meta.media.nb_streams">1</property>
  <property name="meta.media.0.stream.type">video</property>
  <property name="meta.media.0.stream.frame_rate">30.0188</property>
  <property name="meta.media.0.stream.sample_aspect_ratio">1</property>
  <property name="meta.media.0.codec.width">340</property>
  <property name="meta.media.0.codec.height">602</property>
  <property name="meta.media.0.codec.rotate">0</property>
  <property name="meta.media.0.codec.frame_rate">30</property>
  <property name="meta.media.0.codec.pix_fmt">yuv420p</property>
  <property name="meta.media.0.codec.sample_aspect_ratio">1</property>
  <property name="meta.media.0.codec.colorspace">709</property>
  <property name="meta.media.0.codec.color_trc">1</property>
  <property name="meta.media.0.codec.name">h264</property>
  <property name="meta.media.0.codec.long_name">H.264 / AVC / MPEG-4 AVC / MPEG-4 part 10</property>
  <property name="meta.media.0.codec.bit_rate">33107</property>
  <property name="meta.attr.0.stream.handler_name.markup">VideoHandler</property>
  <property name="meta.attr.major_brand.markup">isom</property>
  <property name="meta.attr.minor_version.markup">512</property>
  <property name="meta.attr.compatible_brands.markup">isomiso2avc1mp41</property>
  <property name="meta.attr.encoder.markup">Lavf58.45.100</property>
  <property name="seekable">1</property>
  <property name="meta.media.sample_aspect_num">1</property>
  <property name="meta.media.sample_aspect_den">1</property>
  <property name="aspect_ratio">1</property>
  <property name="kdenlive:clipname"/>
  <property name="kdenlive:folderid">25</property>
  <property name="meta.media.frame_rate_num">16000</property>
  <property name="meta.media.frame_rate_den">533</property>
  <property name="meta.media.colorspace">709</property>
  <property name="meta.media.color_trc">1</property>
  <property name="meta.media.width">340</property>
  <property name="meta.media.height">602</property>
  <property name="meta.media.color_range">mpeg</property>
  <property name="kdenlive:id">33</property>
  <property name="kdenlive:file_size">240161</property>
  <property name="kdenlive:file_hash">3e1e03fb484284d4b8d6656d4b0b9445</property>
  <property name="meta.media.top_field_first">0</property>
  <property name="meta.media.progressive">1</property>
  <property name="global_feed">1</property>
 </producer>
 <producer id="producer26" in="00:00:00.000" out="00:01:00.601">
  <property name="length">1817</property>
  <property name="eof">pause</property>
  <property name="resource">animations/phone_outline_stretch.png</property>
  <property name="ttl">25</property>
  <property name="aspect_ratio">1</property>
  <property name="progressive">1</property>
  <property name="seekable">1</property>
  <property name="meta.media.width">1150</property>
  <property name="meta.media.height">2031</property>
  <property name="mlt_service">qimage</property>
  <property name="kdenlive:clipname"/>
  <property name="kdenlive:duration">00:00:05.005</property>
  <property name="kdenlive:folderid">25</property>
  <property name="kdenlive:id">34</property>
  <property name="kdenlive:file_size">73068</property>
  <property name="kdenlive:file_hash">b1723e5576a958324787c22e68df42c0</property>
  <property name="global_feed">1</property>
 </producer>
 <producer id="producer28" in="00:00:00.000" out="00:00:07.107">
  <property name="length">214</property>
  <property name="eof">pause</property>
  <property name="resource"/>
  <property name="progressive">1</property>
  <property name="aspect_ratio">1</property>
  <property name="seekable">1</property>
  <property name="mlt_service">kdenlivetitle</property>
  <property name="kdenlive:duration">150</property>
  <property name="kdenlive:clipname">p1 done</property>
  <property name="xmldata">&lt;kdenlivetitle duration="150" LC_NUMERIC="C" width="1920" height="1080" out="149">
 &lt;item type="QGraphicsTextItem" z-index="3">
  &lt;position x="293" y="265">
   &lt;transform>1,0,0,0,1,0,0,0,1&lt;/transform>
  &lt;/position>
  &lt;content line-spacing="0" shadow="0;#64000000;3;3;3" font-underline="0" box-height="114" font-outline-color="0,0,0,255" font="Georgia" letter-spacing="0" font-pixel-size="100" font-italic="0" alignment="2" font-weight="25" font-outline="0" box-width="919.266" font-color="248,131,121,255">Friendly Carolum UI&lt;/content>
 &lt;/item>
 &lt;item type="QGraphicsTextItem" z-index="2">
  &lt;position x="293" y="265">
   &lt;transform>1,0,0,0,1,0,0,0,1&lt;/transform>
  &lt;/position>
  &lt;content line-spacing="0" shadow="0;#64000000;3;3;3" font-underline="0" box-height="570" font="Georgia" letter-spacing="0" font-pixel-size="100" font-italic="0" alignment="1" font-weight="25" box-width="1128.59" font-color="0,0,0,255">

One trick ponies

Opaque data transactions&lt;/content>
 &lt;/item>
 &lt;item type="QGraphicsTextItem" z-index="1">
  &lt;position x="194" y="109">
   &lt;transform>1,0,0,0,1,0,0,0,1&lt;/transform>
  &lt;/position>
  &lt;content line-spacing="0" shadow="0;#64000000;3;3;3" font-underline="0" box-height="103" font="Georgia" letter-spacing="0" font-pixel-size="90" font-italic="0" alignment="1" font-weight="25" box-width="1520.72" font-color="0,0,0,255">Three Biggest Issues (with other apps)&lt;/content>
 &lt;/item>
 &lt;startviewport rect="0,0,1920,1080"/>
 &lt;endviewport rect="0,0,1920,1080"/>
 &lt;background color="255,255,255,255"/>
&lt;/kdenlivetitle>
</property>
  <property name="kdenlive:folderid">22</property>
  <property name="kdenlive:id">37</property>
  <property name="kdenlive:file_hash">d020ca38780655dc8fc3c7fc596edbd7</property>
  <property name="force_reload">0</property>
  <property name="global_feed">1</property>
  <property name="meta.media.width">1920</property>
  <property name="meta.media.height">1080</property>
 </producer>
 <producer id="producer30" in="00:00:00.000" out="00:00:15.716">
  <property name="length">472</property>
  <property name="eof">pause</property>
  <property name="resource"/>
  <property name="progressive">1</property>
  <property name="aspect_ratio">1</property>
  <property name="seekable">1</property>
  <property name="mlt_service">kdenlivetitle</property>
  <property name="kdenlive:duration">00:00:01.001</property>
  <property name="kdenlive:clipname">otp transition</property>
  <property name="xmldata">&lt;kdenlivetitle duration="30" LC_NUMERIC="C" width="1920" height="1080" out="29">
 &lt;item type="QGraphicsTextItem" z-index="0">
  &lt;position x="625" y="460">
   &lt;transform>1,0,0,0,1,0,0,0,1&lt;/transform>
  &lt;/position>
  &lt;content line-spacing="0" shadow="0;#64000000;3;3;3" font-underline="0" box-height="171" font="Georgia" letter-spacing="0" font-pixel-size="150" font-italic="0" alignment="2" font-weight="25" box-width="668.313" font-color="0,0,0,255">Flexibility&lt;/content>
 &lt;/item>
 &lt;startviewport rect="0,0,1920,1080"/>
 &lt;endviewport rect="505,336,2355,1344"/>
 &lt;background color="255,255,255,255"/>
&lt;/kdenlivetitle>
</property>
  <property name="kdenlive:folderid">44</property>
  <property name="kdenlive:id">38</property>
  <property name="kdenlive:file_hash">00cb00100d0b5f03ae47467a7f8002c1</property>
  <property name="force_reload">0</property>
  <property name="global_feed">1</property>
  <property name="meta.media.width">1920</property>
  <property name="meta.media.height">1080</property>
 </producer>
 <producer id="producer31" in="00:00:00.000" out="00:00:15.716">
  <property name="length">472</property>
  <property name="eof">pause</property>
  <property name="resource"/>
  <property name="progressive">1</property>
  <property name="aspect_ratio">1</property>
  <property name="seekable">1</property>
  <property name="mlt_service">kdenlivetitle</property>
  <property name="kdenlive:duration">00:00:01.235</property>
  <property name="kdenlive:clipname">point 1 slideout</property>
  <property name="xmldata">&lt;kdenlivetitle duration="37" LC_NUMERIC="C" width="1920" height="1080" out="36">
 &lt;item type="QGraphicsTextItem" z-index="1">
  &lt;position x="400" y="665">
   &lt;transform>1,0,0,0,1,0,0,0,1&lt;/transform>
  &lt;/position>
  &lt;content line-spacing="0" shadow="0;#64000000;3;3;3" font-underline="0" box-height="132" font="Georgia" letter-spacing="0" font-pixel-size="115" font-italic="0" alignment="1" font-weight="25" box-width="1341.55" font-color="0,0,0,255">- No way to organize notes&lt;/content>
 &lt;/item>
 &lt;item type="QGraphicsTextItem" z-index="0">
  &lt;position x="395" y="447">
   &lt;transform>1,0,0,0,1,0,0,0,1&lt;/transform>
  &lt;/position>
  &lt;content line-spacing="0" shadow="0;#64000000;3;3;3" font-underline="0" box-height="171" font="Georgia" letter-spacing="0" font-pixel-size="150" font-italic="0" alignment="2" font-weight="25" box-width="668.313" font-color="0,0,0,255">Flexibility&lt;/content>
 &lt;/item>
 &lt;startviewport rect="275,318,2355,1344"/>
 &lt;endviewport rect="-2000,318,2355,1344"/>
 &lt;background color="255,255,255,255"/>
&lt;/kdenlivetitle>
</property>
  <property name="kdenlive:folderid">44</property>
  <property name="kdenlive:id">40</property>
  <property name="kdenlive:file_hash">af53f76053a608a986f8642db569bf29</property>
  <property name="force_reload">0</property>
  <property name="global_feed">1</property>
  <property name="meta.media.width">1920</property>
  <property name="meta.media.height">1080</property>
 </producer>
 <producer id="producer33" in="00:00:00.000" out="00:00:15.716">
  <property name="length">472</property>
  <property name="eof">pause</property>
  <property name="resource"/>
  <property name="progressive">1</property>
  <property name="aspect_ratio">1</property>
  <property name="seekable">1</property>
  <property name="mlt_service">kdenlivetitle</property>
  <property name="kdenlive:duration">00:00:01.235</property>
  <property name="kdenlive:clipname">cg2 p1 slidein</property>
  <property name="xmldata">&lt;kdenlivetitle duration="37" LC_NUMERIC="C" width="1920" height="1080" out="36">
 &lt;item type="QGraphicsTextItem" z-index="0">
  &lt;position x="395" y="447">
   &lt;transform>1,0,0,0,1,0,0,0,1&lt;/transform>
  &lt;/position>
  &lt;content line-spacing="0" shadow="0;#64000000;3;3;3" font-underline="0" box-height="171" font="Georgia" letter-spacing="0" font-pixel-size="150" font-italic="0" alignment="2" font-weight="25" box-width="585.422" font-color="0,0,0,255">Versatile&lt;/content>
 &lt;/item>
 &lt;startviewport rect="2000,318,2355,1344"/>
 &lt;endviewport rect="275,318,2355,1344"/>
 &lt;background color="255,255,255,255"/>
&lt;/kdenlivetitle>
</property>
  <property name="kdenlive:folderid">44</property>
  <property name="kdenlive:id">41</property>
  <property name="kdenlive:file_hash">af53f76053a608a986f8642db569bf29</property>
  <property name="force_reload">0</property>
  <property name="global_feed">1</property>
  <property name="meta.media.width">1920</property>
  <property name="meta.media.height">1080</property>
 </producer>
 <producer id="producer22" in="00:00:00.000" out="00:00:29.863">
  <property name="length">896</property>
  <property name="eof">pause</property>
  <property name="resource"/>
  <property name="progressive">1</property>
  <property name="aspect_ratio">1</property>
  <property name="seekable">1</property>
  <property name="mlt_service">kdenlivetitle</property>
  <property name="kdenlive:duration">00:00:01.235</property>
  <property name="kdenlive:clipname">cg2 p1</property>
  <property name="xmldata">&lt;kdenlivetitle duration="37" LC_NUMERIC="C" width="1920" height="1080" out="36">
 &lt;item type="QGraphicsTextItem" z-index="0">
  &lt;position x="395" y="447">
   &lt;transform>1,0,0,0,1,0,0,0,1&lt;/transform>
  &lt;/position>
  &lt;content line-spacing="0" shadow="0;#64000000;3;3;3" font-underline="0" box-height="171" font="Georgia" letter-spacing="0" font-pixel-size="150" font-italic="0" alignment="2" font-weight="25" box-width="585.422" font-color="0,0,0,255">Versatile&lt;/content>
 &lt;/item>
 &lt;startviewport rect="275,318,2355,1344"/>
 &lt;endviewport rect="275,318,2355,1344"/>
 &lt;background color="255,255,255,255"/>
&lt;/kdenlivetitle>
</property>
  <property name="kdenlive:folderid">44</property>
  <property name="kdenlive:id">42</property>
  <property name="kdenlive:file_hash">4a127345458654723750427eb7acc14f</property>
  <property name="force_reload">0</property>
  <property name="global_feed">1</property>
  <property name="meta.media.width">1920</property>
  <property name="meta.media.height">1080</property>
 </producer>
 <producer id="producer35" in="00:00:00.000" out="00:00:58.358">
  <property name="length">1750</property>
  <property name="eof">pause</property>
  <property name="resource">mobile_create_journal.mp4</property>
  <property name="audio_index">-1</property>
  <property name="video_index">0</property>
  <property name="mute_on_pause">0</property>
  <property name="mlt_service">avformat-novalidate</property>
  <property name="meta.media.nb_streams">1</property>
  <property name="meta.media.0.stream.type">video</property>
  <property name="meta.media.0.stream.frame_rate">30.0171</property>
  <property name="meta.media.0.stream.sample_aspect_ratio">1</property>
  <property name="meta.media.0.codec.width">356</property>
  <property name="meta.media.0.codec.height">638</property>
  <property name="meta.media.0.codec.rotate">0</property>
  <property name="meta.media.0.codec.frame_rate">30</property>
  <property name="meta.media.0.codec.pix_fmt">yuv420p</property>
  <property name="meta.media.0.codec.sample_aspect_ratio">1</property>
  <property name="meta.media.0.codec.colorspace">709</property>
  <property name="meta.media.0.codec.color_trc">1</property>
  <property name="meta.media.0.codec.name">h264</property>
  <property name="meta.media.0.codec.long_name">H.264 / AVC / MPEG-4 AVC / MPEG-4 part 10</property>
  <property name="meta.media.0.codec.bit_rate">52757</property>
  <property name="meta.attr.0.stream.handler_name.markup">VideoHandler</property>
  <property name="meta.attr.major_brand.markup">isom</property>
  <property name="meta.attr.minor_version.markup">512</property>
  <property name="meta.attr.compatible_brands.markup">isomiso2avc1mp41</property>
  <property name="meta.attr.encoder.markup">Lavf58.45.100</property>
  <property name="seekable">1</property>
  <property name="meta.media.sample_aspect_num">1</property>
  <property name="meta.media.sample_aspect_den">1</property>
  <property name="aspect_ratio">1</property>
  <property name="kdenlive:clipname"/>
  <property name="kdenlive:folderid">44</property>
  <property name="meta.media.frame_rate_num">8765</property>
  <property name="meta.media.frame_rate_den">292</property>
  <property name="meta.media.colorspace">709</property>
  <property name="meta.media.color_trc">1</property>
  <property name="meta.media.width">356</property>
  <property name="meta.media.height">638</property>
  <property name="meta.media.color_range">mpeg</property>
  <property name="kdenlive:id">43</property>
  <property name="kdenlive:file_size">406493</property>
  <property name="kdenlive:file_hash">c380a9eba37ec91e1c9361cd8e76fc90</property>
  <property name="meta.media.top_field_first">0</property>
  <property name="meta.media.progressive">1</property>
  <property name="global_feed">1</property>
 </producer>
 <producer id="producer36" in="00:00:00.000" out="00:00:29.863">
  <property name="length">896</property>
  <property name="eof">pause</property>
  <property name="resource"/>
  <property name="progressive">1</property>
  <property name="aspect_ratio">1</property>
  <property name="seekable">1</property>
  <property name="mlt_service">kdenlivetitle</property>
  <property name="kdenlive:duration">00:00:01.235</property>
  <property name="kdenlive:clipname">cg2 p2</property>
  <property name="xmldata">&lt;kdenlivetitle duration="37" LC_NUMERIC="C" width="1920" height="1080" out="36">
 &lt;item type="QGraphicsTextItem" z-index="9">
  &lt;position x="389" y="1058">
   &lt;transform>1,0,0,0,1,0,0,0,1&lt;/transform>
  &lt;/position>
  &lt;content line-spacing="0" shadow="0;#64000000;3;3;3" font-underline="0" box-height="262" font="Georgia" letter-spacing="0" font-pixel-size="115" font-italic="0" alignment="1" font-weight="25" box-width="1388.14" font-color="0,0,0,255">Separate journals, different
topics&lt;/content>
 &lt;/item>
 &lt;item type="QGraphicsTextItem" z-index="6">
  &lt;position x="570" y="828">
   &lt;transform>1,0,0,0,1,0,0,0,1&lt;/transform>
  &lt;/position>
  &lt;content line-spacing="0" shadow="0;#64000000;3;3;3" font-underline="0" box-height="210" font="Georgia" letter-spacing="0" font-pixel-size="92" font-italic="0" alignment="2" font-weight="25" box-width="414.219" font-color="248,131,121,255">Unlimited
&lt;/content>
 &lt;/item>
 &lt;item type="QGraphicsTextItem" z-index="5">
  &lt;position x="1414" y="674">
   &lt;transform>1,0,0,0,1,0,0,0,1&lt;/transform>
  &lt;/position>
  &lt;content line-spacing="0" shadow="0;#64000000;3;3;3" font-underline="0" box-height="132" font="Georgia" letter-spacing="0" font-pixel-size="115" font-italic="0" alignment="2" font-weight="25" box-width="425.109" font-color="248,131,121,255">together&lt;/content>
 &lt;/item>
 &lt;item type="QGraphicsTextItem" z-index="4">
  &lt;position x="1030" y="447">
   &lt;transform>1,0,0,0,1,0,0,0,1&lt;/transform>
  &lt;/position>
  &lt;content line-spacing="0" shadow="0;#64000000;3;3;3" font-underline="0" box-height="171" font="Georgia" letter-spacing="0" font-pixel-size="150" font-italic="0" alignment="2" font-weight="25" box-width="667.75" font-color="248,131,121,255">- Carolum&lt;/content>
 &lt;/item>
 &lt;item type="QGraphicsTextItem" z-index="3">
  &lt;position x="571" y="826">
   &lt;transform>1,0,0,0,1,0,0,0,1&lt;/transform>
  &lt;/position>
  &lt;content line-spacing="0" shadow="0;#64000000;3;3;3" font-underline="0" box-height="106" font="Georgia" letter-spacing="0" font-pixel-size="92" font-italic="0" alignment="2" font-weight="25" box-width="1243.25" font-color="0,0,0,255">                    journal possibilities&lt;/content>
 &lt;/item>
 &lt;item type="QGraphicsTextItem" z-index="1">
  &lt;position x="389" y="675">
   &lt;transform>1,0,0,0,1,0,0,0,1&lt;/transform>
  &lt;/position>
  &lt;content line-spacing="0" shadow="0;#64000000;3;3;3" font-underline="0" box-height="132" font="Georgia" letter-spacing="0" font-pixel-size="115" font-italic="0" alignment="1" font-weight="25" box-width="1437.33" font-color="0,0,0,255">Keep your thoughts                &lt;/content>
 &lt;/item>
 &lt;item type="QGraphicsTextItem" z-index="0">
  &lt;position x="395" y="447">
   &lt;transform>1,0,0,0,1,0,0,0,1&lt;/transform>
  &lt;/position>
  &lt;content line-spacing="0" shadow="0;#64000000;3;3;3" font-underline="0" box-height="171" font="Georgia" letter-spacing="0" font-pixel-size="150" font-italic="0" alignment="2" font-weight="25" box-width="585.422" font-color="0,0,0,255">Versatile&lt;/content>
 &lt;/item>
 &lt;startviewport rect="275,318,2355,1344"/>
 &lt;endviewport rect="275,318,2355,1344"/>
 &lt;background color="255,255,255,255"/>
&lt;/kdenlivetitle>
</property>
  <property name="kdenlive:folderid">44</property>
  <property name="kdenlive:id">45</property>
  <property name="kdenlive:file_hash">4a127345458654723750427eb7acc14f</property>
  <property name="force_reload">0</property>
  <property name="global_feed">1</property>
  <property name="meta.media.width">1920</property>
  <property name="meta.media.height">1080</property>
 </producer>
 <producer id="producer37" in="00:00:00.000" out="00:00:29.863">
  <property name="length">896</property>
  <property name="eof">pause</property>
  <property name="resource"/>
  <property name="progressive">1</property>
  <property name="aspect_ratio">1</property>
  <property name="seekable">1</property>
  <property name="mlt_service">kdenlivetitle</property>
  <property name="kdenlive:duration">00:00:01.235</property>
  <property name="kdenlive:clipname">cg2 p1.5</property>
  <property name="xmldata">&lt;kdenlivetitle duration="37" LC_NUMERIC="C" width="1920" height="1080" out="36">
 &lt;item type="QGraphicsTextItem" z-index="1">
  &lt;position x="1030" y="447">
   &lt;transform>1,0,0,0,1,0,0,0,1&lt;/transform>
  &lt;/position>
  &lt;content line-spacing="0" shadow="0;#64000000;3;3;3" font-underline="0" box-height="171" font="Georgia" letter-spacing="0" font-pixel-size="150" font-italic="0" alignment="2" font-weight="25" box-width="667.75" font-color="248,131,121,255">- Carolum&lt;/content>
 &lt;/item>
 &lt;item type="QGraphicsTextItem" z-index="0">
  &lt;position x="395" y="447">
   &lt;transform>1,0,0,0,1,0,0,0,1&lt;/transform>
  &lt;/position>
  &lt;content line-spacing="0" shadow="0;#64000000;3;3;3" font-underline="0" box-height="171" font="Georgia" letter-spacing="0" font-pixel-size="150" font-italic="0" alignment="2" font-weight="25" box-width="621.594" font-color="0,0,0,255">Versatile &lt;/content>
 &lt;/item>
 &lt;startviewport rect="275,318,2355,1344"/>
 &lt;endviewport rect="275,318,2355,1344"/>
 &lt;background color="255,255,255,255"/>
&lt;/kdenlivetitle>
</property>
  <property name="kdenlive:folderid">44</property>
  <property name="kdenlive:id">46</property>
  <property name="kdenlive:file_hash">4a127345458654723750427eb7acc14f</property>
  <property name="force_reload">0</property>
  <property name="global_feed">1</property>
  <property name="meta.media.width">1920</property>
  <property name="meta.media.height">1080</property>
 </producer>
 <producer id="producer38" in="00:00:00.000" out="00:00:07.107">
  <property name="length">214</property>
  <property name="eof">pause</property>
  <property name="resource"/>
  <property name="progressive">1</property>
  <property name="aspect_ratio">1</property>
  <property name="seekable">1</property>
  <property name="mlt_service">kdenlivetitle</property>
  <property name="kdenlive:duration">150</property>
  <property name="kdenlive:clipname">p2 done</property>
  <property name="xmldata">&lt;kdenlivetitle duration="150" LC_NUMERIC="C" width="1920" height="1080" out="149">
 &lt;item type="QGraphicsTextItem" z-index="4">
  &lt;position x="294" y="492">
   &lt;transform>1,0,0,0,1,0,0,0,1&lt;/transform>
  &lt;/position>
  &lt;content line-spacing="0" shadow="0;#64000000;3;3;3" font-underline="0" box-height="114" font="Georgia" letter-spacing="0" font-pixel-size="100" font-italic="0" alignment="2" font-weight="25" box-width="1255.8" font-color="248,131,121,255">Stay organized with journals&lt;/content>
 &lt;/item>
 &lt;item type="QGraphicsTextItem" z-index="3">
  &lt;position x="293" y="265">
   &lt;transform>1,0,0,0,1,0,0,0,1&lt;/transform>
  &lt;/position>
  &lt;content line-spacing="0" shadow="0;#64000000;3;3;3" font-underline="0" box-height="114" font="Georgia" letter-spacing="0" font-pixel-size="100" font-italic="0" alignment="2" font-weight="25" box-width="919.266" font-color="248,131,121,255">Friendly Carolum UI&lt;/content>
 &lt;/item>
 &lt;item type="QGraphicsTextItem" z-index="2">
  &lt;position x="293" y="265">
   &lt;transform>1,0,0,0,1,0,0,0,1&lt;/transform>
  &lt;/position>
  &lt;content line-spacing="0" shadow="0;#64000000;3;3;3" font-underline="0" box-height="570" font="Georgia" letter-spacing="0" font-pixel-size="100" font-italic="0" alignment="1" font-weight="25" box-width="1128.59" font-color="0,0,0,255">



Opaque data transactions&lt;/content>
 &lt;/item>
 &lt;item type="QGraphicsTextItem" z-index="1">
  &lt;position x="194" y="109">
   &lt;transform>1,0,0,0,1,0,0,0,1&lt;/transform>
  &lt;/position>
  &lt;content line-spacing="0" shadow="0;#64000000;3;3;3" font-underline="0" box-height="103" font="Georgia" letter-spacing="0" font-pixel-size="90" font-italic="0" alignment="1" font-weight="25" box-width="1520.72" font-color="0,0,0,255">Three Biggest Issues (with other apps)&lt;/content>
 &lt;/item>
 &lt;startviewport rect="0,0,1920,1080"/>
 &lt;endviewport rect="0,0,1920,1080"/>
 &lt;background color="255,255,255,255"/>
&lt;/kdenlivetitle>
</property>
  <property name="kdenlive:folderid">22</property>
  <property name="kdenlive:id">47</property>
  <property name="kdenlive:file_hash">7c2d6c2f38e83156aa36c44afc1a0c59</property>
  <property name="force_reload">0</property>
  <property name="global_feed">1</property>
  <property name="meta.media.width">1920</property>
  <property name="meta.media.height">1080</property>
 </producer>
 <producer id="producer40" in="00:00:00.000" out="00:00:04.972">
  <property name="length">150</property>
  <property name="eof">pause</property>
  <property name="resource"/>
  <property name="progressive">1</property>
  <property name="aspect_ratio">1</property>
  <property name="seekable">1</property>
  <property name="mlt_service">kdenlivetitle</property>
  <property name="kdenlive:duration">00:00:01.001</property>
  <property name="kdenlive:clipname">opd transition</property>
  <property name="xmldata">&lt;kdenlivetitle duration="30" LC_NUMERIC="C" width="1920" height="1080" out="29">
 &lt;item type="QGraphicsTextItem" z-index="0">
  &lt;position x="715" y="477">
   &lt;transform>1,0,0,0,1,0,0,0,1&lt;/transform>
  &lt;/position>
  &lt;content line-spacing="0" shadow="0;#64000000;3;3;3" font-underline="0" box-height="143" font="Georgia" letter-spacing="0" font-pixel-size="125" font-italic="0" alignment="2" font-weight="25" box-width="453.656" font-color="0,0,0,255">Security&lt;/content>
 &lt;/item>
 &lt;startviewport rect="0,0,1920,1080"/>
 &lt;endviewport rect="629,353,2355,1344"/>
 &lt;background color="255,255,255,255"/>
&lt;/kdenlivetitle>
</property>
  <property name="kdenlive:folderid">49</property>
  <property name="kdenlive:id">50</property>
  <property name="kdenlive:file_hash">fb29ea3b74a426aa0ed38c0ff4176039</property>
  <property name="force_reload">0</property>
  <property name="global_feed">1</property>
  <property name="meta.media.width">1920</property>
  <property name="meta.media.height">1080</property>
 </producer>
 <producer id="producer41" in="00:00:00.000" out="00:00:04.972">
  <property name="length">150</property>
  <property name="eof">pause</property>
  <property name="resource"/>
  <property name="progressive">1</property>
  <property name="aspect_ratio">1</property>
  <property name="seekable">1</property>
  <property name="mlt_service">kdenlivetitle</property>
  <property name="kdenlive:duration">00:00:01.001</property>
  <property name="kdenlive:clipname">opd 0.5</property>
  <property name="xmldata">&lt;kdenlivetitle duration="30" LC_NUMERIC="C" width="1920" height="1080" out="29">
 &lt;item type="QGraphicsTextItem" z-index="0">
  &lt;position x="255" y="478">
   &lt;transform>1,0,0,0,1,0,0,0,1&lt;/transform>
  &lt;/position>
  &lt;content line-spacing="0" shadow="0;#64000000;3;3;3" font-underline="0" box-height="143" font="Georgia" letter-spacing="0" font-pixel-size="125" font-italic="0" alignment="2" font-weight="25" box-width="453.656" font-color="0,0,0,255">Security&lt;/content>
 &lt;/item>
 &lt;startviewport rect="145,340,2355,1344"/>
 &lt;endviewport rect="145,340,2355,1344"/>
 &lt;background color="255,255,255,255"/>
&lt;/kdenlivetitle>
</property>
  <property name="kdenlive:folderid">49</property>
  <property name="kdenlive:id">51</property>
  <property name="kdenlive:file_hash">1e8600ce66e992081903a98cde44a525</property>
  <property name="force_reload">0</property>
  <property name="global_feed">1</property>
  <property name="meta.media.width">1920</property>
  <property name="meta.media.height">1080</property>
 </producer>
 <producer id="producer42" in="00:00:00.000" out="00:00:05.405">
  <property name="length">163</property>
  <property name="eof">pause</property>
  <property name="resource"/>
  <property name="progressive">1</property>
  <property name="aspect_ratio">1</property>
  <property name="seekable">1</property>
  <property name="mlt_service">kdenlivetitle</property>
  <property name="kdenlive:duration">00:00:01.001</property>
  <property name="kdenlive:clipname">opd 1</property>
  <property name="xmldata">&lt;kdenlivetitle duration="30" LC_NUMERIC="C" width="1920" height="1080" out="29">
 &lt;item type="QGraphicsTextItem" z-index="1">
  &lt;position x="258" y="662">
   &lt;transform>1,0,0,0,1,0,0,0,1&lt;/transform>
  &lt;/position>
  &lt;content line-spacing="0" shadow="0;#64000000;3;3;3" font-underline="0" box-height="250" font="Georgia" letter-spacing="0" font-pixel-size="110" font-italic="0" alignment="1" font-weight="25" box-width="1881.95" font-color="0,0,0,255">Q: What really happens to your private
data?&lt;/content>
 &lt;/item>
 &lt;item type="QGraphicsTextItem" z-index="0">
  &lt;position x="255" y="478">
   &lt;transform>1,0,0,0,1,0,0,0,1&lt;/transform>
  &lt;/position>
  &lt;content line-spacing="0" shadow="0;#64000000;3;3;3" font-underline="0" box-height="143" font="Georgia" letter-spacing="0" font-pixel-size="125" font-italic="0" alignment="2" font-weight="25" box-width="453.656" font-color="0,0,0,255">Security&lt;/content>
 &lt;/item>
 &lt;startviewport rect="145,340,2355,1344"/>
 &lt;endviewport rect="145,340,2355,1344"/>
 &lt;background color="255,255,255,255"/>
&lt;/kdenlivetitle>
</property>
  <property name="kdenlive:folderid">49</property>
  <property name="kdenlive:id">52</property>
  <property name="kdenlive:file_hash">047d267df3e189df0fd2187ce2cb19d2</property>
  <property name="force_reload">0</property>
  <property name="global_feed">1</property>
  <property name="meta.media.width">1920</property>
  <property name="meta.media.height">1080</property>
 </producer>
 <producer id="producer43" in="00:00:00.000" out="00:00:05.405">
  <property name="length">163</property>
  <property name="eof">pause</property>
  <property name="resource"/>
  <property name="progressive">1</property>
  <property name="aspect_ratio">1</property>
  <property name="seekable">1</property>
  <property name="mlt_service">kdenlivetitle</property>
  <property name="kdenlive:duration">00:00:01.001</property>
  <property name="kdenlive:clipname">opd 1.5</property>
  <property name="xmldata">&lt;kdenlivetitle duration="30" LC_NUMERIC="C" width="1920" height="1080" out="29">
 &lt;item type="QGraphicsTextItem" z-index="1">
  &lt;position x="258" y="662">
   &lt;transform>1,0,0,0,1,0,0,0,1&lt;/transform>
  &lt;/position>
  &lt;content line-spacing="0" shadow="0;#64000000;3;3;3" font-underline="0" box-height="375" font="Georgia" letter-spacing="0" font-pixel-size="110" font-italic="0" alignment="1" font-weight="25" box-width="1881.95" font-color="0,0,0,255">Q: What really happens to your private
data?
A: Nobody knows!&lt;/content>
 &lt;/item>
 &lt;item type="QGraphicsTextItem" z-index="0">
  &lt;position x="255" y="478">
   &lt;transform>1,0,0,0,1,0,0,0,1&lt;/transform>
  &lt;/position>
  &lt;content line-spacing="0" shadow="0;#64000000;3;3;3" font-underline="0" box-height="143" font="Georgia" letter-spacing="0" font-pixel-size="125" font-italic="0" alignment="2" font-weight="25" box-width="453.656" font-color="0,0,0,255">Security&lt;/content>
 &lt;/item>
 &lt;startviewport rect="145,340,2355,1344"/>
 &lt;endviewport rect="145,340,2355,1344"/>
 &lt;background color="255,255,255,255"/>
&lt;/kdenlivetitle>
</property>
  <property name="kdenlive:folderid">49</property>
  <property name="kdenlive:id">53</property>
  <property name="kdenlive:file_hash">1d6dbb705466966ce4ba507935f78c24</property>
  <property name="force_reload">0</property>
  <property name="global_feed">1</property>
  <property name="meta.media.width">1920</property>
  <property name="meta.media.height">1080</property>
 </producer>
 <producer id="producer44" in="00:00:00.000" out="00:00:05.405">
  <property name="length">163</property>
  <property name="eof">pause</property>
  <property name="resource"/>
  <property name="progressive">1</property>
  <property name="aspect_ratio">1</property>
  <property name="seekable">1</property>
  <property name="mlt_service">kdenlivetitle</property>
  <property name="kdenlive:duration">00:00:01.001</property>
  <property name="kdenlive:clipname">opd 2</property>
  <property name="xmldata">&lt;kdenlivetitle duration="30" LC_NUMERIC="C" width="1920" height="1080" out="29">
 &lt;item type="QGraphicsTextItem" z-index="1">
  &lt;position x="258" y="662">
   &lt;transform>1,0,0,0,1,0,0,0,1&lt;/transform>
  &lt;/position>
  &lt;content line-spacing="0" shadow="0;#64000000;3;3;3" font-underline="0" box-height="375" font="Georgia" letter-spacing="0" font-pixel-size="110" font-italic="0" alignment="1" font-weight="25" box-width="1881.95" font-color="0,0,0,255">Q: What really happens to your private
data?
A: Nobody knows!&lt;/content>
 &lt;/item>
 &lt;item type="QGraphicsTextItem" z-index="0">
  &lt;position x="255" y="478">
   &lt;transform>1,0,0,0,1,0,0,0,1&lt;/transform>
  &lt;/position>
  &lt;content line-spacing="0" shadow="0;#64000000;3;3;3" font-underline="0" box-height="143" font="Georgia" letter-spacing="0" font-pixel-size="125" font-italic="0" alignment="2" font-weight="25" box-width="453.656" font-color="0,0,0,255">Security&lt;/content>
 &lt;/item>
 &lt;startviewport rect="145,340,2355,1344"/>
 &lt;endviewport rect="145,340,2355,1344"/>
 &lt;background color="255,255,255,255"/>
&lt;/kdenlivetitle>
</property>
  <property name="kdenlive:folderid">49</property>
  <property name="kdenlive:id">54</property>
  <property name="kdenlive:file_hash">9be919967ad81cf4f8ddc62d720b59b9</property>
  <property name="force_reload">0</property>
  <property name="global_feed">1</property>
  <property name="meta.media.width">1920</property>
  <property name="meta.media.height">1080</property>
 </producer>
 <producer id="producer45" in="00:00:00.000" out="00:00:05.639">
  <property name="length">170</property>
  <property name="eof">pause</property>
  <property name="resource"/>
  <property name="progressive">1</property>
  <property name="aspect_ratio">1</property>
  <property name="seekable">1</property>
  <property name="mlt_service">kdenlivetitle</property>
  <property name="kdenlive:duration">00:00:01.001</property>
  <property name="kdenlive:clipname">opd 2.5</property>
  <property name="xmldata">&lt;kdenlivetitle duration="30" LC_NUMERIC="C" width="1920" height="1080" out="29">
 &lt;item type="QGraphicsTextItem" z-index="1">
  &lt;position x="258" y="662">
   &lt;transform>1,0,0,0,1,0,0,0,1&lt;/transform>
  &lt;/position>
  &lt;content line-spacing="0" shadow="0;#64000000;3;3;3" font-underline="0" box-height="625" font="Georgia" letter-spacing="0" font-pixel-size="110" font-italic="0" alignment="1" font-weight="25" box-width="1881.95" font-color="0,0,0,255">Q: What really happens to your private
data?
A: Nobody knows!

Hackers LOVE unsecured data!&lt;/content>
 &lt;/item>
 &lt;item type="QGraphicsTextItem" z-index="0">
  &lt;position x="255" y="478">
   &lt;transform>1,0,0,0,1,0,0,0,1&lt;/transform>
  &lt;/position>
  &lt;content line-spacing="0" shadow="0;#64000000;3;3;3" font-underline="0" box-height="143" font="Georgia" letter-spacing="0" font-pixel-size="125" font-italic="0" alignment="2" font-weight="25" box-width="453.656" font-color="0,0,0,255">Security&lt;/content>
 &lt;/item>
 &lt;startviewport rect="145,340,2355,1344"/>
 &lt;endviewport rect="145,340,2355,1344"/>
 &lt;background color="255,255,255,255"/>
&lt;/kdenlivetitle>
</property>
  <property name="kdenlive:folderid">49</property>
  <property name="kdenlive:id">55</property>
  <property name="kdenlive:file_hash">9be919967ad81cf4f8ddc62d720b59b9</property>
  <property name="force_reload">0</property>
  <property name="global_feed">1</property>
  <property name="meta.media.width">1920</property>
  <property name="meta.media.height">1080</property>
 </producer>
 <producer id="producer46" in="00:00:00.000" out="00:00:05.639">
  <property name="length">170</property>
  <property name="eof">pause</property>
  <property name="resource"/>
  <property name="progressive">1</property>
  <property name="aspect_ratio">1</property>
  <property name="seekable">1</property>
  <property name="mlt_service">kdenlivetitle</property>
  <property name="kdenlive:duration">00:00:01.001</property>
  <property name="kdenlive:clipname">opd 2.5 slideout</property>
  <property name="xmldata">&lt;kdenlivetitle duration="30" LC_NUMERIC="C" width="1920" height="1080" out="29">
 &lt;item type="QGraphicsTextItem" z-index="1">
  &lt;position x="258" y="662">
   &lt;transform>1,0,0,0,1,0,0,0,1&lt;/transform>
  &lt;/position>
  &lt;content line-spacing="0" shadow="0;#64000000;3;3;3" font-underline="0" box-height="625" font="Georgia" letter-spacing="0" font-pixel-size="110" font-italic="0" alignment="1" font-weight="25" box-width="1881.95" font-color="0,0,0,255">Q: What really happens to your private
data?
A: Nobody knows!

Hackers LOVE unsecured data!&lt;/content>
 &lt;/item>
 &lt;item type="QGraphicsTextItem" z-index="0">
  &lt;position x="255" y="478">
   &lt;transform>1,0,0,0,1,0,0,0,1&lt;/transform>
  &lt;/position>
  &lt;content line-spacing="0" shadow="0;#64000000;3;3;3" font-underline="0" box-height="143" font="Georgia" letter-spacing="0" font-pixel-size="125" font-italic="0" alignment="2" font-weight="25" box-width="453.656" font-color="0,0,0,255">Security&lt;/content>
 &lt;/item>
 &lt;startviewport rect="145,340,2355,1344"/>
 &lt;endviewport rect="-2300,340,2355,1344"/>
 &lt;background color="255,255,255,255"/>
&lt;/kdenlivetitle>
</property>
  <property name="kdenlive:folderid">49</property>
  <property name="kdenlive:id">56</property>
  <property name="kdenlive:file_hash">b7e6266589021386410e894e2d189666</property>
  <property name="force_reload">0</property>
  <property name="global_feed">1</property>
  <property name="meta.media.width">1920</property>
  <property name="meta.media.height">1080</property>
 </producer>
 <producer id="producer57" in="00:00:00.000" out="00:00:05.639">
  <property name="length">170</property>
  <property name="eof">pause</property>
  <property name="resource"/>
  <property name="progressive">1</property>
  <property name="aspect_ratio">1</property>
  <property name="seekable">1</property>
  <property name="mlt_service">kdenlivetitle</property>
  <property name="kdenlive:duration">00:00:01.001</property>
  <property name="kdenlive:clipname">cg slidein</property>
  <property name="xmldata">&lt;kdenlivetitle duration="30" LC_NUMERIC="C" width="1920" height="1080" out="29">
 &lt;item type="QGraphicsTextItem" z-index="0">
  &lt;position x="255" y="478">
   &lt;transform>1,0,0,0,1,0,0,0,1&lt;/transform>
  &lt;/position>
  &lt;content line-spacing="0" shadow="0;#64000000;3;3;3" font-underline="0" box-height="143" font="Georgia" letter-spacing="0" font-pixel-size="125" font-italic="0" alignment="2" font-weight="25" box-width="1230.34" font-color="0,0,0,255">End to end encryption&lt;/content>
 &lt;/item>
 &lt;startviewport rect="2500,340,2355,1344"/>
 &lt;endviewport rect="145,340,2355,1344"/>
 &lt;background color="255,255,255,255"/>
&lt;/kdenlivetitle>
</property>
  <property name="kdenlive:folderid">49</property>
  <property name="kdenlive:id">57</property>
  <property name="kdenlive:file_hash">f66219b143552f801242855dbf3477a9</property>
  <property name="force_reload">0</property>
  <property name="global_feed">1</property>
  <property name="meta.media.width">1920</property>
  <property name="meta.media.height">1080</property>
 </producer>
 <producer id="producer48" in="00:00:00.000" out="00:00:05.639">
  <property name="length">170</property>
  <property name="eof">pause</property>
  <property name="resource"/>
  <property name="progressive">1</property>
  <property name="aspect_ratio">1</property>
  <property name="seekable">1</property>
  <property name="mlt_service">kdenlivetitle</property>
  <property name="kdenlive:duration">00:00:01.001</property>
  <property name="kdenlive:clipname">cg 0</property>
  <property name="xmldata">&lt;kdenlivetitle duration="30" LC_NUMERIC="C" width="1920" height="1080" out="29">
 &lt;item type="QGraphicsTextItem" z-index="0">
  &lt;position x="255" y="478">
   &lt;transform>1,0,0,0,1,0,0,0,1&lt;/transform>
  &lt;/position>
  &lt;content line-spacing="0" shadow="0;#64000000;3;3;3" font-underline="0" box-height="143" font="Georgia" letter-spacing="0" font-pixel-size="125" font-italic="0" alignment="2" font-weight="25" box-width="1230.34" font-color="0,0,0,255">End to end encryption&lt;/content>
 &lt;/item>
 &lt;startviewport rect="145,340,2355,1344"/>
 &lt;endviewport rect="145,340,2355,1344"/>
 &lt;background color="255,255,255,255"/>
&lt;/kdenlivetitle>
</property>
  <property name="kdenlive:folderid">49</property>
  <property name="kdenlive:id">58</property>
  <property name="kdenlive:file_hash">5bea72d0b1c44b5cd224536582d7be94</property>
  <property name="force_reload">0</property>
  <property name="global_feed">1</property>
  <property name="meta.media.width">1920</property>
  <property name="meta.media.height">1080</property>
 </producer>
 <producer id="producer49" in="00:00:00.000" out="00:00:20.754">
  <property name="length">623</property>
  <property name="eof">pause</property>
  <property name="resource"/>
  <property name="progressive">1</property>
  <property name="aspect_ratio">1</property>
  <property name="seekable">1</property>
  <property name="mlt_service">kdenlivetitle</property>
  <property name="kdenlive:duration">00:00:01.001</property>
  <property name="kdenlive:clipname">cg 0.5</property>
  <property name="xmldata">&lt;kdenlivetitle duration="30" LC_NUMERIC="C" width="1920" height="1080" out="29">
 &lt;item type="QGraphicsTextItem" z-index="1">
  &lt;position x="1515" y="479">
   &lt;transform>1,0,0,0,1,0,0,0,1&lt;/transform>
  &lt;/position>
  &lt;content line-spacing="0" shadow="0;#64000000;3;3;3" font-underline="0" box-height="143" font="Georgia" letter-spacing="0" font-pixel-size="125" font-italic="0" alignment="2" font-weight="25" box-width="556.453" font-color="248,131,121,255">- Carolum&lt;/content>
 &lt;/item>
 &lt;item type="QGraphicsTextItem" z-index="0">
  &lt;position x="255" y="478">
   &lt;transform>1,0,0,0,1,0,0,0,1&lt;/transform>
  &lt;/position>
  &lt;content line-spacing="0" shadow="0;#64000000;3;3;3" font-underline="0" box-height="143" font="Georgia" letter-spacing="0" font-pixel-size="125" font-italic="0" alignment="2" font-weight="25" box-width="1230.34" font-color="0,0,0,255">End to end encryption&lt;/content>
 &lt;/item>
 &lt;startviewport rect="145,340,2355,1344"/>
 &lt;endviewport rect="145,340,2355,1344"/>
 &lt;background color="255,255,255,255"/>
&lt;/kdenlivetitle>
</property>
  <property name="kdenlive:folderid">49</property>
  <property name="kdenlive:id">59</property>
  <property name="kdenlive:file_hash">1cf60a78308540c581efba0ff5110c72</property>
  <property name="force_reload">0</property>
  <property name="global_feed">1</property>
  <property name="meta.media.width">1920</property>
  <property name="meta.media.height">1080</property>
 </producer>
 <producer id="producer50" in="00:00:00.000" out="00:00:05.639">
  <property name="length">170</property>
  <property name="eof">pause</property>
  <property name="resource"/>
  <property name="progressive">1</property>
  <property name="aspect_ratio">1</property>
  <property name="seekable">1</property>
  <property name="mlt_service">kdenlivetitle</property>
  <property name="kdenlive:duration">00:00:01.001</property>
  <property name="kdenlive:clipname">cg 1</property>
  <property name="xmldata">&lt;kdenlivetitle duration="30" LC_NUMERIC="C" width="1920" height="1080" out="29">
 &lt;item type="QGraphicsTextItem" z-index="4">
  &lt;position x="1212" y="818">
   &lt;transform>1,0,0,0,1,0,0,0,1&lt;/transform>
  &lt;/position>
  &lt;content line-spacing="0" shadow="0;#64000000;3;3;3" font-underline="0" box-height="126" font-outline-color="0,0,0,255" font="Georgia" letter-spacing="0" font-pixel-size="110" font-italic="0" alignment="2" font-weight="25" font-outline="0" box-width="455.969" font-color="248,131,121,255">Argon2id&lt;/content>
 &lt;/item>
 &lt;item type="QGraphicsTextItem" z-index="3">
  &lt;position x="259" y="818">
   &lt;transform>1,0,0,0,1,0,0,0,1&lt;/transform>
  &lt;/position>
  &lt;content shadow="0;#64000000;3;3;3" font-underline="0" box-height="126" font-outline-color="0,0,0,255" font="Georgia" letter-spacing="0" font-pixel-size="110" font-italic="0" alignment="2" font-weight="25" font-outline="0" box-width="709.188" font-color="248,131,121,255">AES-GCM 256&lt;/content>
 &lt;/item>
 &lt;item type="QGraphicsTextItem" z-index="2">
  &lt;position x="260" y="692">
   &lt;transform>1,0,0,0,1,0,0,0,1&lt;/transform>
  &lt;/position>
  &lt;content line-spacing="0" shadow="0;#64000000;3;3;3" font-underline="0" box-height="250" font="Georgia" letter-spacing="0" font-pixel-size="110" font-italic="0" alignment="1" font-weight="25" box-width="1641.53" font-color="0,0,0,255">Carolum encrypts your data using
                            and&lt;/content>
 &lt;/item>
 &lt;item type="QGraphicsTextItem" z-index="1">
  &lt;position x="1515" y="479">
   &lt;transform>1,0,0,0,1,0,0,0,1&lt;/transform>
  &lt;/position>
  &lt;content line-spacing="0" shadow="0;#64000000;3;3;3" font-underline="0" box-height="143" font="Georgia" letter-spacing="0" font-pixel-size="125" font-italic="0" alignment="2" font-weight="25" box-width="556.453" font-color="248,131,121,255">- Carolum&lt;/content>
 &lt;/item>
 &lt;item type="QGraphicsTextItem" z-index="0">
  &lt;position x="255" y="478">
   &lt;transform>1,0,0,0,1,0,0,0,1&lt;/transform>
  &lt;/position>
  &lt;content line-spacing="0" shadow="0;#64000000;3;3;3" font-underline="0" box-height="143" font="Georgia" letter-spacing="0" font-pixel-size="125" font-italic="0" alignment="2" font-weight="25" box-width="1230.34" font-color="0,0,0,255">End to end encryption&lt;/content>
 &lt;/item>
 &lt;startviewport rect="145,340,2355,1344"/>
 &lt;endviewport rect="145,340,2355,1344"/>
 &lt;background color="255,255,255,255"/>
&lt;/kdenlivetitle>
</property>
  <property name="kdenlive:folderid">49</property>
  <property name="kdenlive:id">60</property>
  <property name="kdenlive:file_hash">1cf60a78308540c581efba0ff5110c72</property>
  <property name="force_reload">0</property>
  <property name="global_feed">1</property>
  <property name="meta.media.width">1920</property>
  <property name="meta.media.height">1080</property>
 </producer>
 <producer id="producer51" in="00:00:00.000" out="00:00:05.639">
  <property name="length">170</property>
  <property name="eof">pause</property>
  <property name="resource"/>
  <property name="progressive">1</property>
  <property name="aspect_ratio">1</property>
  <property name="seekable">1</property>
  <property name="mlt_service">kdenlivetitle</property>
  <property name="kdenlive:duration">00:00:01.001</property>
  <property name="kdenlive:clipname">cg 2</property>
  <property name="xmldata">&lt;kdenlivetitle duration="30" LC_NUMERIC="C" width="1920" height="1080" out="29">
 &lt;item type="QGraphicsTextItem" z-index="5">
  &lt;position x="1212" y="818">
   &lt;transform>1,0,0,0,1,0,0,0,1&lt;/transform>
  &lt;/position>
  &lt;content line-spacing="0" shadow="0;#64000000;3;3;3" font-underline="0" box-height="126" font="Georgia" letter-spacing="0" font-pixel-size="110" font-italic="0" alignment="2" font-weight="25" box-width="455.969" font-color="248,131,121,255">Argon2id&lt;/content>
 &lt;/item>
 &lt;item type="QGraphicsTextItem" z-index="4">
  &lt;position x="259" y="818">
   &lt;transform>1,0,0,0,1,0,0,0,1&lt;/transform>
  &lt;/position>
  &lt;content line-spacing="0" shadow="0;#64000000;3;3;3" font-underline="0" box-height="126" font="Georgia" letter-spacing="0" font-pixel-size="110" font-italic="0" alignment="2" font-weight="25" box-width="709.188" font-color="248,131,121,255">AES-GCM 256&lt;/content>
 &lt;/item>
 &lt;item type="QGraphicsTextItem" z-index="3">
  &lt;position x="253" y="1037">
   &lt;transform>1,0,0,0,1,0,0,0,1&lt;/transform>
  &lt;/position>
  &lt;content shadow="0;#64000000;3;3;3" font-underline="0" box-height="126" font="Georgia" letter-spacing="0" font-pixel-size="110" font-italic="0" alignment="2" font-weight="25" box-width="1872.2" font-color="0,0,0,255">Even if the entire database was leaked,&lt;/content>
 &lt;/item>
 &lt;item type="QGraphicsTextItem" z-index="2">
  &lt;position x="260" y="692">
   &lt;transform>1,0,0,0,1,0,0,0,1&lt;/transform>
  &lt;/position>
  &lt;content line-spacing="0" shadow="0;#64000000;3;3;3" font-underline="0" box-height="250" font="Georgia" letter-spacing="0" font-pixel-size="110" font-italic="0" alignment="1" font-weight="25" box-width="1641.53" font-color="0,0,0,255">Carolum encrypts your data using
                            and&lt;/content>
 &lt;/item>
 &lt;item type="QGraphicsTextItem" z-index="1">
  &lt;position x="1515" y="479">
   &lt;transform>1,0,0,0,1,0,0,0,1&lt;/transform>
  &lt;/position>
  &lt;content line-spacing="0" shadow="0;#64000000;3;3;3" font-underline="0" box-height="143" font="Georgia" letter-spacing="0" font-pixel-size="125" font-italic="0" alignment="2" font-weight="25" box-width="556.453" font-color="248,131,121,255">- Carolum&lt;/content>
 &lt;/item>
 &lt;item type="QGraphicsTextItem" z-index="0">
  &lt;position x="255" y="478">
   &lt;transform>1,0,0,0,1,0,0,0,1&lt;/transform>
  &lt;/position>
  &lt;content line-spacing="0" shadow="0;#64000000;3;3;3" font-underline="0" box-height="143" font="Georgia" letter-spacing="0" font-pixel-size="125" font-italic="0" alignment="2" font-weight="25" box-width="1230.34" font-color="0,0,0,255">End to end encryption&lt;/content>
 &lt;/item>
 &lt;startviewport rect="145,340,2355,1344"/>
 &lt;endviewport rect="145,340,2355,1344"/>
 &lt;background color="255,255,255,255"/>
&lt;/kdenlivetitle>
</property>
  <property name="kdenlive:folderid">49</property>
  <property name="kdenlive:id">61</property>
  <property name="kdenlive:file_hash">127cc6f00f64294aa787d850b6dd339a</property>
  <property name="force_reload">0</property>
  <property name="global_feed">1</property>
  <property name="meta.media.width">1920</property>
  <property name="meta.media.height">1080</property>
 </producer>
 <producer id="producer52" in="00:00:00.000" out="00:00:05.639">
  <property name="length">170</property>
  <property name="eof">pause</property>
  <property name="resource"/>
  <property name="progressive">1</property>
  <property name="aspect_ratio">1</property>
  <property name="seekable">1</property>
  <property name="mlt_service">kdenlivetitle</property>
  <property name="kdenlive:duration">00:00:01.001</property>
  <property name="kdenlive:clipname">cg 2.5</property>
  <property name="xmldata">&lt;kdenlivetitle duration="30" LC_NUMERIC="C" width="1920" height="1080" out="29">
 &lt;item type="QGraphicsTextItem" z-index="6">
  &lt;position x="1212" y="818">
   &lt;transform>1,0,0,0,1,0,0,0,1&lt;/transform>
  &lt;/position>
  &lt;content shadow="0;#64000000;3;3;3" font-underline="0" box-height="126" font="Georgia" letter-spacing="0" font-pixel-size="110" font-italic="0" alignment="2" font-weight="25" box-width="455.969" font-color="248,131,121,255">Argon2id&lt;/content>
 &lt;/item>
 &lt;item type="QGraphicsTextItem" z-index="5">
  &lt;position x="259" y="819">
   &lt;transform>1,0,0,0,1,0,0,0,1&lt;/transform>
  &lt;/position>
  &lt;content line-spacing="0" shadow="0;#64000000;3;3;3" font-underline="0" box-height="126" font="Georgia" letter-spacing="0" font-pixel-size="110" font-italic="0" alignment="2" font-weight="25" box-width="709.188" font-color="248,131,121,255">AES-GCM 256&lt;/content>
 &lt;/item>
 &lt;item type="QGraphicsTextItem" z-index="4">
  &lt;position x="1206" y="1161">
   &lt;transform>1,0,0,0,1,0,0,0,1&lt;/transform>
  &lt;/position>
  &lt;content line-spacing="0" shadow="0;#64000000;3;3;3" font-underline="0" box-height="126" font="Georgia" letter-spacing="0" font-pixel-size="110" font-italic="0" alignment="2" font-weight="25" box-width="191.891" font-color="248,131,121,255">safe&lt;/content>
 &lt;/item>
 &lt;item type="QGraphicsTextItem" z-index="3">
  &lt;position x="253" y="1037">
   &lt;transform>1,0,0,0,1,0,0,0,1&lt;/transform>
  &lt;/position>
  &lt;content line-spacing="0" shadow="0;#64000000;3;3;3" font-underline="0" box-height="250" font="Georgia" letter-spacing="0" font-pixel-size="110" font-italic="0" alignment="1" font-weight="25" box-width="1872.2" font-color="0,0,0,255">Even if the entire database was leaked,
your data would be&lt;/content>
 &lt;/item>
 &lt;item type="QGraphicsTextItem" z-index="2">
  &lt;position x="260" y="692">
   &lt;transform>1,0,0,0,1,0,0,0,1&lt;/transform>
  &lt;/position>
  &lt;content line-spacing="0" shadow="0;#64000000;3;3;3" font-underline="0" box-height="250" font="Georgia" letter-spacing="0" font-pixel-size="110" font-italic="0" alignment="1" font-weight="25" box-width="1641.53" font-color="0,0,0,255">Carolum encrypts your data using
                            and&lt;/content>
 &lt;/item>
 &lt;item type="QGraphicsTextItem" z-index="1">
  &lt;position x="1515" y="479">
   &lt;transform>1,0,0,0,1,0,0,0,1&lt;/transform>
  &lt;/position>
  &lt;content line-spacing="0" shadow="0;#64000000;3;3;3" font-underline="0" box-height="143" font="Georgia" letter-spacing="0" font-pixel-size="125" font-italic="0" alignment="2" font-weight="25" box-width="556.453" font-color="248,131,121,255">- Carolum&lt;/content>
 &lt;/item>
 &lt;item type="QGraphicsTextItem" z-index="0">
  &lt;position x="255" y="478">
   &lt;transform>1,0,0,0,1,0,0,0,1&lt;/transform>
  &lt;/position>
  &lt;content line-spacing="0" shadow="0;#64000000;3;3;3" font-underline="0" box-height="143" font="Georgia" letter-spacing="0" font-pixel-size="125" font-italic="0" alignment="2" font-weight="25" box-width="1230.34" font-color="0,0,0,255">End to end encryption&lt;/content>
 &lt;/item>
 &lt;startviewport rect="145,340,2355,1344"/>
 &lt;endviewport rect="145,340,2355,1344"/>
 &lt;background color="255,255,255,255"/>
&lt;/kdenlivetitle>
</property>
  <property name="kdenlive:folderid">49</property>
  <property name="kdenlive:id">62</property>
  <property name="kdenlive:file_hash">e41eea98dfa5514c006307eda82cbb2c</property>
  <property name="force_reload">0</property>
  <property name="global_feed">1</property>
  <property name="meta.media.width">1920</property>
  <property name="meta.media.height">1080</property>
 </producer>
 <producer id="producer54" in="00:00:00.000" out="00:00:15.883">
  <property name="length">477</property>
  <property name="eof">pause</property>
  <property name="resource">mobile_create_newnote.mp4</property>
  <property name="audio_index">-1</property>
  <property name="video_index">0</property>
  <property name="mute_on_pause">0</property>
  <property name="mlt_service">avformat-novalidate</property>
  <property name="meta.media.nb_streams">1</property>
  <property name="meta.media.0.stream.type">video</property>
  <property name="meta.media.0.stream.frame_rate">30.0629</property>
  <property name="meta.media.0.stream.sample_aspect_ratio">1</property>
  <property name="meta.media.0.codec.width">362</property>
  <property name="meta.media.0.codec.height">640</property>
  <property name="meta.media.0.codec.rotate">0</property>
  <property name="meta.media.0.codec.frame_rate">30</property>
  <property name="meta.media.0.codec.pix_fmt">yuv420p</property>
  <property name="meta.media.0.codec.sample_aspect_ratio">1</property>
  <property name="meta.media.0.codec.colorspace">709</property>
  <property name="meta.media.0.codec.color_trc">1</property>
  <property name="meta.media.0.codec.name">h264</property>
  <property name="meta.media.0.codec.long_name">H.264 / AVC / MPEG-4 AVC / MPEG-4 part 10</property>
  <property name="meta.media.0.codec.bit_rate">44195</property>
  <property name="meta.attr.0.stream.handler_name.markup">VideoHandler</property>
  <property name="meta.attr.major_brand.markup">isom</property>
  <property name="meta.attr.minor_version.markup">512</property>
  <property name="meta.attr.compatible_brands.markup">isomiso2avc1mp41</property>
  <property name="meta.attr.encoder.markup">Lavf58.45.100</property>
  <property name="seekable">1</property>
  <property name="meta.media.sample_aspect_num">1</property>
  <property name="meta.media.sample_aspect_den">1</property>
  <property name="aspect_ratio">1</property>
  <property name="kdenlive:clipname"/>
  <property name="kdenlive:folderid">49</property>
  <property name="meta.media.frame_rate_num">4780</property>
  <property name="meta.media.frame_rate_den">159</property>
  <property name="meta.media.colorspace">709</property>
  <property name="meta.media.color_trc">1</property>
  <property name="meta.media.width">362</property>
  <property name="meta.media.height">640</property>
  <property name="meta.media.color_range">mpeg</property>
  <property name="kdenlive:id">63</property>
  <property name="kdenlive:file_size">94352</property>
  <property name="kdenlive:file_hash">1160822f8c9621659661a81d04ae38bc</property>
  <property name="meta.media.top_field_first">0</property>
  <property name="meta.media.progressive">1</property>
  <property name="global_feed">1</property>
 </producer>
 <producer id="producer53" in="00:00:00.000" out="00:00:18.519">
  <property name="length">556</property>
  <property name="eof">pause</property>
  <property name="resource">firebase_create_newnote.mp4</property>
  <property name="audio_index">-1</property>
  <property name="video_index">0</property>
  <property name="mute_on_pause">0</property>
  <property name="mlt_service">avformat-novalidate</property>
  <property name="meta.media.nb_streams">1</property>
  <property name="meta.media.0.stream.type">video</property>
  <property name="meta.media.0.stream.frame_rate">30.0539</property>
  <property name="meta.media.0.stream.sample_aspect_ratio">1</property>
  <property name="meta.media.0.codec.width">662</property>
  <property name="meta.media.0.codec.height">468</property>
  <property name="meta.media.0.codec.rotate">0</property>
  <property name="meta.media.0.codec.frame_rate">30</property>
  <property name="meta.media.0.codec.pix_fmt">yuv420p</property>
  <property name="meta.media.0.codec.sample_aspect_ratio">1</property>
  <property name="meta.media.0.codec.colorspace">709</property>
  <property name="meta.media.0.codec.color_trc">1</property>
  <property name="meta.media.0.codec.name">h264</property>
  <property name="meta.media.0.codec.long_name">H.264 / AVC / MPEG-4 AVC / MPEG-4 part 10</property>
  <property name="meta.media.0.codec.bit_rate">64656</property>
  <property name="meta.attr.0.stream.handler_name.markup">VideoHandler</property>
  <property name="meta.attr.major_brand.markup">isom</property>
  <property name="meta.attr.minor_version.markup">512</property>
  <property name="meta.attr.compatible_brands.markup">isomiso2avc1mp41</property>
  <property name="meta.attr.encoder.markup">Lavf58.45.100</property>
  <property name="seekable">1</property>
  <property name="meta.media.sample_aspect_num">1</property>
  <property name="meta.media.sample_aspect_den">1</property>
  <property name="aspect_ratio">1</property>
  <property name="kdenlive:clipname"/>
  <property name="kdenlive:folderid">49</property>
  <property name="meta.media.frame_rate_num">16740</property>
  <property name="meta.media.frame_rate_den">557</property>
  <property name="meta.media.colorspace">709</property>
  <property name="meta.media.color_trc">1</property>
  <property name="meta.media.width">662</property>
  <property name="meta.media.height">468</property>
  <property name="meta.media.color_range">mpeg</property>
  <property name="kdenlive:id">64</property>
  <property name="kdenlive:file_size">157586</property>
  <property name="kdenlive:file_hash">f517797dcdb99ce3edd29f926744d6cc</property>
  <property name="meta.media.top_field_first">0</property>
  <property name="meta.media.progressive">1</property>
  <property name="global_feed">1</property>
 </producer>
 <producer id="producer55" in="00:00:00.000" out="00:00:07.107">
  <property name="length">214</property>
  <property name="eof">pause</property>
  <property name="resource"/>
  <property name="progressive">1</property>
  <property name="aspect_ratio">1</property>
  <property name="seekable">1</property>
  <property name="mlt_service">kdenlivetitle</property>
  <property name="kdenlive:duration">150</property>
  <property name="kdenlive:clipname">p3 done</property>
  <property name="xmldata">&lt;kdenlivetitle duration="150" LC_NUMERIC="C" width="1920" height="1080" out="149">
 &lt;item type="QGraphicsTextItem" z-index="6">
  &lt;position x="291" y="687">
   &lt;transform>1,0,0,0,1,0,0,0,1&lt;/transform>
  &lt;/position>
  &lt;content shadow="0;#64000000;3;3;3" font-underline="0" box-height="114" font="Georgia" letter-spacing="0" font-pixel-size="100" font-italic="0" alignment="2" font-weight="25" box-width="1564.66" font-color="248,131,121,255">Military-grade AES E2E encryption&lt;/content>
 &lt;/item>
 &lt;item type="QGraphicsTextItem" z-index="4">
  &lt;position x="294" y="492">
   &lt;transform>1,0,0,0,1,0,0,0,1&lt;/transform>
  &lt;/position>
  &lt;content line-spacing="0" shadow="0;#64000000;3;3;3" font-underline="0" box-height="114" font="Georgia" letter-spacing="0" font-pixel-size="100" font-italic="0" alignment="2" font-weight="25" box-width="1255.8" font-color="248,131,121,255">Stay organized with journals&lt;/content>
 &lt;/item>
 &lt;item type="QGraphicsTextItem" z-index="3">
  &lt;position x="293" y="265">
   &lt;transform>1,0,0,0,1,0,0,0,1&lt;/transform>
  &lt;/position>
  &lt;content line-spacing="0" shadow="0;#64000000;3;3;3" font-underline="0" box-height="114" font="Georgia" letter-spacing="0" font-pixel-size="100" font-italic="0" alignment="2" font-weight="25" box-width="919.266" font-color="248,131,121,255">Friendly Carolum UI&lt;/content>
 &lt;/item>
 &lt;item type="QGraphicsTextItem" z-index="1">
  &lt;position x="195" y="107">
   &lt;transform>1,0,0,0,1,0,0,0,1&lt;/transform>
  &lt;/position>
  &lt;content line-spacing="0" shadow="0;#64000000;3;3;3" font-underline="0" box-height="153" font-outline-color="0,0,0,255" font="Georgia" letter-spacing="0" font-pixel-size="134" font-italic="0" alignment="1" font-weight="25" font-outline="0" box-width="555.969" font-color="0,0,0,255">Carolum:&lt;/content>
 &lt;/item>
 &lt;startviewport rect="0,0,1920,1080"/>
 &lt;endviewport rect="0,0,1920,1080"/>
 &lt;background color="255,255,255,255"/>
&lt;/kdenlivetitle>
</property>
  <property name="kdenlive:folderid">22</property>
  <property name="kdenlive:id">65</property>
  <property name="kdenlive:file_hash">50bb42ad39da8e3a4c19e0f562e8eb3e</property>
  <property name="force_reload">0</property>
  <property name="global_feed">1</property>
  <property name="meta.media.width">1920</property>
  <property name="meta.media.height">1080</property>
 </producer>
 <producer id="producer56" in="00:00:00.000" out="00:00:07.107">
  <property name="length">214</property>
  <property name="eof">pause</property>
  <property name="resource"/>
  <property name="progressive">1</property>
  <property name="aspect_ratio">1</property>
  <property name="seekable">1</property>
  <property name="mlt_service">kdenlivetitle</property>
  <property name="kdenlive:duration">00:00:01.001</property>
  <property name="kdenlive:clipname">p2 done slide</property>
  <property name="xmldata">&lt;kdenlivetitle duration="30" LC_NUMERIC="C" width="1920" height="1080" out="29">
 &lt;item type="QGraphicsTextItem" z-index="4">
  &lt;position x="294" y="492">
   &lt;transform>1,0,0,0,1,0,0,0,1&lt;/transform>
  &lt;/position>
  &lt;content line-spacing="0" shadow="0;#64000000;3;3;3" font-underline="0" box-height="114" font="Georgia" letter-spacing="0" font-pixel-size="100" font-italic="0" alignment="2" font-weight="25" box-width="1255.8" font-color="248,131,121,255">Stay organized with journals&lt;/content>
 &lt;/item>
 &lt;item type="QGraphicsTextItem" z-index="3">
  &lt;position x="293" y="265">
   &lt;transform>1,0,0,0,1,0,0,0,1&lt;/transform>
  &lt;/position>
  &lt;content line-spacing="0" shadow="0;#64000000;3;3;3" font-underline="0" box-height="114" font="Georgia" letter-spacing="0" font-pixel-size="100" font-italic="0" alignment="2" font-weight="25" box-width="919.266" font-color="248,131,121,255">Friendly Carolum UI&lt;/content>
 &lt;/item>
 &lt;item type="QGraphicsTextItem" z-index="2">
  &lt;position x="293" y="265">
   &lt;transform>1,0,0,0,1,0,0,0,1&lt;/transform>
  &lt;/position>
  &lt;content line-spacing="0" shadow="0;#64000000;3;3;3" font-underline="0" box-height="570" font="Georgia" letter-spacing="0" font-pixel-size="100" font-italic="0" alignment="1" font-weight="25" box-width="1128.59" font-color="0,0,0,255">



Opaque data transactions&lt;/content>
 &lt;/item>
 &lt;item type="QGraphicsTextItem" z-index="1">
  &lt;position x="194" y="109">
   &lt;transform>1,0,0,0,1,0,0,0,1&lt;/transform>
  &lt;/position>
  &lt;content line-spacing="0" shadow="0;#64000000;3;3;3" font-underline="0" box-height="103" font="Georgia" letter-spacing="0" font-pixel-size="90" font-italic="0" alignment="1" font-weight="25" box-width="1520.72" font-color="0,0,0,255">Three Biggest Issues (with other apps)&lt;/content>
 &lt;/item>
 &lt;startviewport rect="0,0,1920,1080"/>
 &lt;endviewport rect="-2000,0,1920,1080"/>
 &lt;background color="255,255,255,255"/>
&lt;/kdenlivetitle>
</property>
  <property name="kdenlive:folderid">22</property>
  <property name="kdenlive:id">66</property>
  <property name="kdenlive:file_hash">9b72ceecd7c89e35ad9311c9e5c4d00e</property>
  <property name="force_reload">0</property>
  <property name="global_feed">1</property>
  <property name="meta.media.width">1920</property>
  <property name="meta.media.height">1080</property>
 </producer>
 <producer id="producer47" in="00:00:00.000" out="00:00:07.107">
  <property name="length">214</property>
  <property name="eof">pause</property>
  <property name="resource"/>
  <property name="progressive">1</property>
  <property name="aspect_ratio">1</property>
  <property name="seekable">1</property>
  <property name="mlt_service">kdenlivetitle</property>
  <property name="kdenlive:duration">00:00:01.335</property>
  <property name="kdenlive:clipname">p3 done slide</property>
  <property name="xmldata">&lt;kdenlivetitle duration="40" LC_NUMERIC="C" width="1920" height="1080" out="39">
 &lt;item type="QGraphicsTextItem" z-index="6">
  &lt;position x="291" y="687">
   &lt;transform>1,0,0,0,1,0,0,0,1&lt;/transform>
  &lt;/position>
  &lt;content shadow="0;#64000000;3;3;3" font-underline="0" box-height="114" font="Georgia" letter-spacing="0" font-pixel-size="100" font-italic="0" alignment="2" font-weight="25" box-width="1564.66" font-color="248,131,121,255">Military-grade AES E2E encryption&lt;/content>
 &lt;/item>
 &lt;item type="QGraphicsTextItem" z-index="4">
  &lt;position x="294" y="492">
   &lt;transform>1,0,0,0,1,0,0,0,1&lt;/transform>
  &lt;/position>
  &lt;content line-spacing="0" shadow="0;#64000000;3;3;3" font-underline="0" box-height="114" font="Georgia" letter-spacing="0" font-pixel-size="100" font-italic="0" alignment="2" font-weight="25" box-width="1255.8" font-color="248,131,121,255">Stay organized with journals&lt;/content>
 &lt;/item>
 &lt;item type="QGraphicsTextItem" z-index="3">
  &lt;position x="293" y="265">
   &lt;transform>1,0,0,0,1,0,0,0,1&lt;/transform>
  &lt;/position>
  &lt;content line-spacing="0" shadow="0;#64000000;3;3;3" font-underline="0" box-height="114" font="Georgia" letter-spacing="0" font-pixel-size="100" font-italic="0" alignment="2" font-weight="25" box-width="919.266" font-color="248,131,121,255">Friendly Carolum UI&lt;/content>
 &lt;/item>
 &lt;item type="QGraphicsTextItem" z-index="1">
  &lt;position x="195" y="107">
   &lt;transform>1,0,0,0,1,0,0,0,1&lt;/transform>
  &lt;/position>
  &lt;content line-spacing="0" shadow="0;#64000000;3;3;3" font-underline="0" box-height="153" font="Georgia" letter-spacing="0" font-pixel-size="134" font-italic="0" alignment="1" font-weight="25" box-width="555.969" font-color="0,0,0,255">Carolum:&lt;/content>
 &lt;/item>
 &lt;startviewport rect="2000,0,1920,1080"/>
 &lt;endviewport rect="0,0,1920,1080"/>
 &lt;background color="255,255,255,255"/>
&lt;/kdenlivetitle>
</property>
  <property name="kdenlive:folderid">22</property>
  <property name="kdenlive:id">67</property>
  <property name="kdenlive:file_hash">8adaa63360d1d9e255655ce1d670aeeb</property>
  <property name="force_reload">0</property>
  <property name="global_feed">1</property>
  <property name="meta.media.width">1920</property>
  <property name="meta.media.height">1080</property>
 </producer>
 <producer id="producer58" in="00:00:00.000" out="00:00:05.105">
  <property name="length">154</property>
  <property name="eof">pause</property>
  <property name="resource"/>
  <property name="progressive">1</property>
  <property name="aspect_ratio">1</property>
  <property name="seekable">1</property>
  <property name="mlt_service">kdenlivetitle</property>
  <property name="kdenlive:duration">150</property>
  <property name="kdenlive:clipname">https://caro...</property>
  <property name="xmldata">&lt;kdenlivetitle duration="150" LC_NUMERIC="C" width="1920" height="1080" out="149">
 &lt;item type="QGraphicsPixmapItem" z-index="4">
  &lt;position x="406" y="294">
   &lt;transform zoom="61">0.61,0,0,0,0.61,0,0,0,1&lt;/transform>
  &lt;/position>
  &lt;content url="/home/boshua/Desktop/dev/carolum-cac20/misc/icons/png/512.png"/>
 &lt;/item>
 &lt;item type="QGraphicsTextItem" z-index="1">
  &lt;position x="778" y="330">
   &lt;transform>1,0,0,0,1,0,0,0,1&lt;/transform>
  &lt;/position>
  &lt;content line-spacing="0" shadow="0;#64000000;3;3;3" font-underline="0" box-height="228" font="Georgia" letter-spacing="0" font-pixel-size="200" font-italic="0" alignment="2" font-weight="25" box-width="767.344" font-color="0,0,0,255">Carolum&lt;/content>
 &lt;/item>
 &lt;item type="QGraphicsTextItem" z-index="0">
  &lt;position x="422" y="625">
   &lt;transform>1,0,0,0,1,0,0,0,1&lt;/transform>
  &lt;/position>
  &lt;content shadow="0;#64000000;3;3;3" font-underline="0" box-height="143" font="Georgia" letter-spacing="0" font-pixel-size="125" font-italic="0" alignment="2" font-weight="25" box-width="1110.55" font-color="248,131,121,255">https://carolum.xyz&lt;/content>
 &lt;/item>
 &lt;startviewport rect="0,0,1920,1080"/>
 &lt;endviewport rect="0,0,1920,1080"/>
 &lt;background color="255,255,255,255"/>
&lt;/kdenlivetitle>
</property>
  <property name="kdenlive:folderid">72</property>
  <property name="kdenlive:id">68</property>
  <property name="kdenlive:file_hash">f31048d2a5f516019c00f7274964dbb8</property>
  <property name="force_reload">0</property>
  <property name="meta.media.width">1920</property>
  <property name="meta.media.height">1080</property>
 </producer>
 <producer id="producer59" in="00:00:00.000" out="00:00:04.972">
  <property name="length">150</property>
  <property name="eof">pause</property>
  <property name="resource"/>
  <property name="progressive">1</property>
  <property name="aspect_ratio">1</property>
  <property name="seekable">1</property>
  <property name="mlt_service">kdenlivetitle</property>
  <property name="kdenlive:duration">150</property>
  <property name="kdenlive:clipname">Built with</property>
  <property name="xmldata">&lt;kdenlivetitle duration="150" LC_NUMERIC="C" width="1920" height="1080" out="149">
 &lt;item type="QGraphicsTextItem" z-index="3">
  &lt;position x="838" y="462">
   &lt;transform>1,0,0,0,1,0,0,0,1&lt;/transform>
  &lt;/position>
  &lt;content line-spacing="0" shadow="0;#64000000;3;3;3" font-underline="0" box-height="426" font="Georgia" letter-spacing="0" font-pixel-size="125" font-italic="0" alignment="1" font-weight="25" box-width="470.531" font-color="0,0,0,255">Firebase

Vue.js&lt;/content>
 &lt;/item>
 &lt;item type="QGraphicsPixmapItem" z-index="2">
  &lt;position x="541" y="750">
   &lt;transform zoom="19">0.19,0,0,0,0.19,0,0,0,1&lt;/transform>
  &lt;/position>
  &lt;content url="/home/boshua/Desktop/dev/carolum-cac20/video/1184px-Vue.js_Logo_2.svg.png"/>
 &lt;/item>
 &lt;item type="QGraphicsPixmapItem" z-index="1">
  &lt;position x="543" y="383">
   &lt;transform zoom="85">0.85,0,0,0,0.85,0,0,0,1&lt;/transform>
  &lt;/position>
  &lt;content url="/home/boshua/Desktop/dev/carolum-cac20/video/logo-vertical.png"/>
 &lt;/item>
 &lt;item type="QGraphicsTextItem" z-index="0">
  &lt;position x="500" y="127">
   &lt;transform>1,0,0,0,1,0,0,0,1&lt;/transform>
  &lt;/position>
  &lt;content line-spacing="0" shadow="0;#64000000;3;3;3" font-underline="0" box-height="228" font="Georgia" letter-spacing="0" font-pixel-size="200" font-italic="0" alignment="2" font-weight="25" box-width="870.344" font-color="0,0,0,255">Built with&lt;/content>
 &lt;/item>
 &lt;startviewport rect="0,0,1920,1080"/>
 &lt;endviewport rect="0,0,1920,1080"/>
 &lt;background color="255,255,255,255"/>
&lt;/kdenlivetitle>
</property>
  <property name="kdenlive:folderid">72</property>
  <property name="kdenlive:id">69</property>
  <property name="kdenlive:file_hash">aff03c59416cb72c9fabe921a8279f2a</property>
  <property name="force_reload">0</property>
  <property name="meta.media.width">1920</property>
  <property name="meta.media.height">1080</property>
 </producer>
 <producer id="producer60" in="00:00:00.000" out="00:00:05.272">
  <property name="length">159</property>
  <property name="eof">pause</property>
  <property name="resource"/>
  <property name="progressive">1</property>
  <property name="aspect_ratio">1</property>
  <property name="seekable">1</property>
  <property name="mlt_service">kdenlivetitle</property>
  <property name="kdenlive:duration">150</property>
  <property name="kdenlive:clipname">Now availabl...</property>
  <property name="xmldata">&lt;kdenlivetitle duration="150" LC_NUMERIC="C" width="1920" height="1080" out="149">
 &lt;item type="QGraphicsPixmapItem" z-index="5">
  &lt;position x="525" y="474">
   &lt;transform rotation="0,0,0" zoom="55">0.55,0,0,0,0.55,0,0,0,1&lt;/transform>
  &lt;/position>
  &lt;content url="/home/boshua/Desktop/dev/carolum-cac20/video/thing_browser.png"/>
 &lt;/item>
 &lt;item type="QGraphicsPixmapItem" z-index="4">
  &lt;position x="163" y="589">
   &lt;transform zoom="65">0.65,0,0,0,0.65,0,0,0,1&lt;/transform>
  &lt;/position>
  &lt;content url="/home/boshua/Desktop/dev/carolum-cac20/video/thing_mobile.png"/>
 &lt;/item>
 &lt;item type="QGraphicsPixmapItem" z-index="3">
  &lt;position x="1317" y="633">
   &lt;transform rotation="0,0,0" zoom="51">0.51,0,0,0,0.51,0,0,0,1&lt;/transform>
  &lt;/position>
  &lt;content url="/home/boshua/Desktop/dev/carolum-cac20/video/thing.png"/>
 &lt;/item>
 &lt;item type="QGraphicsPixmapItem" z-index="2">
  &lt;position x="130" y="564">
   &lt;transform zoom="26">0.26,0,0,0,0.26,0,0,0,1&lt;/transform>
  &lt;/position>
  &lt;content url="/home/boshua/Desktop/dev/carolum-cac20/video/animations/phone_outline_stretch.png"/>
 &lt;/item>
 &lt;item type="QGraphicsPixmapItem" z-index="1">
  &lt;position x="515" y="458">
   &lt;transform zoom="74">0.74,0,0,0,0.74,0,0,0,1&lt;/transform>
  &lt;/position>
  &lt;content url="/home/boshua/Desktop/dev/carolum-cac20/video/422-4224624_device-desktop-computer-screen-monitor-comments-outline-of.png"/>
 &lt;/item>
 &lt;item type="QGraphicsTextItem" z-index="0">
  &lt;position x="359" y="138">
   &lt;transform>1,0,0,0,1,0,0,0,1&lt;/transform>
  &lt;/position>
  &lt;content line-spacing="0" shadow="0;#64000000;3;3;3" font-underline="0" box-height="284" font="Georgia" letter-spacing="0" font-pixel-size="125" font-italic="0" alignment="4" font-weight="25" box-width="1187" font-color="0,0,0,255">Now available on
the web and desktops&lt;/content>
 &lt;/item>
 &lt;startviewport rect="0,0,1920,1080"/>
 &lt;endviewport rect="0,0,1920,1080"/>
 &lt;background color="255,255,255,255"/>
&lt;/kdenlivetitle>
</property>
  <property name="kdenlive:folderid">72</property>
  <property name="kdenlive:id">70</property>
  <property name="kdenlive:file_hash">cfb8ef140448b2ac98bfa65aa56ee8e8</property>
  <property name="force_reload">0</property>
  <property name="meta.media.width">1920</property>
  <property name="meta.media.height">1080</property>
 </producer>
 <producer id="producer5" in="00:00:00.000" out="00:00:06.006">
  <property name="length">181</property>
  <property name="eof">pause</property>
  <property name="resource"/>
  <property name="progressive">1</property>
  <property name="aspect_ratio">1</property>
  <property name="seekable">1</property>
  <property name="mlt_service">kdenlivetitle</property>
  <property name="kdenlive:duration">00:00:06.039</property>
  <property name="kdenlive:clipname">CAROLUM4</property>
  <property name="xmldata">&lt;kdenlivetitle duration="0" LC_NUMERIC="C" width="1920" height="1080" out="-1">
 &lt;item type="QGraphicsTextItem" z-index="8">
  &lt;position x="442" y="765">
   &lt;transform>1,0,0,0,1,0,0,0,1&lt;/transform>
  &lt;/position>
  &lt;content line-spacing="0" shadow="0;#64000000;3;3;3" font-underline="0" box-height="163" font-outline-color="0,0,0,255" font="Georgia" letter-spacing="0" font-pixel-size="142" font-italic="0" alignment="2" font-weight="25" font-outline="0" box-width="493.859" font-color="248,131,121,255">modern&lt;/content>
 &lt;/item>
 &lt;item type="QGraphicsTextItem" z-index="7">
  &lt;position x="202" y="765">
   &lt;transform>1,0,0,0,1,0,0,0,1&lt;/transform>
  &lt;/position>
  &lt;content line-spacing="0" shadow="0;#64000000;3;3;3" font-underline="0" box-height="163" font="Georgia" letter-spacing="0" font-pixel-size="142" font-italic="0" alignment="2" font-weight="25" box-width="1504.47" font-color="0,0,0,255">the                 journal app&lt;/content>
 &lt;/item>
 &lt;item type="QGraphicsPixmapItem" z-index="5">
  &lt;position x="208" y="351">
   &lt;transform zoom="79">0.79,0,0,0,0.79,0,0,0,1&lt;/transform>
  &lt;/position>
  &lt;content url="/home/boshua/Desktop/dev/carolum-cac20/misc/icons/png/512.png"/>
 &lt;/item>
 &lt;item type="QGraphicsTextItem" z-index="1">
  &lt;position x="227" y="400">
   &lt;transform>1,0,0,0,1,0,0,0,1&lt;/transform>
  &lt;/position>
  &lt;content line-spacing="0" shadow="0;#64000000;3;3;3" font-underline="0" box-height="298" font="Georgia" letter-spacing="0" font-pixel-size="261" font-italic="0" alignment="2" font-weight="75" box-width="1483.23" font-color="0,0,0,255">      ROLUM&lt;/content>
 &lt;/item>
 &lt;startviewport rect="-318.696,-4.20623,2545.7,1431.95"/>
 &lt;endviewport rect="-319.097,-3.22581,2547.96,1433.23"/>
 &lt;background color="255,255,255,255"/>
&lt;/kdenlivetitle>
</property>
  <property name="kdenlive:folderid">4</property>
  <property name="kdenlive:id">71</property>
  <property name="kdenlive:file_hash">4b03f0e86408848827e915037f328d5a</property>
  <property name="force_reload">0</property>
  <property name="global_feed">1</property>
  <property name="meta.media.width">1920</property>
  <property name="meta.media.height">1080</property>
 </producer>
 <producer id="producer13" in="00:00:00.000" out="00:00:07.674">
  <property name="length">231</property>
  <property name="eof">pause</property>
  <property name="resource"/>
  <property name="progressive">1</property>
  <property name="aspect_ratio">1</property>
  <property name="seekable">1</property>
  <property name="mlt_service">kdenlivetitle</property>
  <property name="kdenlive:duration">150</property>
  <property name="kdenlive:clipname">at1</property>
  <property name="xmldata">&lt;kdenlivetitle duration="150" LC_NUMERIC="C" width="1920" height="1080" out="149">
 &lt;item type="QGraphicsTextItem" z-index="5">
  &lt;position x="156" y="106">
   &lt;transform>1,0,0,0,1,0,0,0,1&lt;/transform>
  &lt;/position>
  &lt;content shadow="0;#64000000;3;3;3" font-underline="0" box-height="83" font="Georgia" letter-spacing="0" font-pixel-size="73" font-italic="0" alignment="2" font-weight="25" box-width="721.734" font-color="0,0,0,255">According to research,&lt;/content>
 &lt;/item>
 &lt;item type="QGraphicsTextItem" z-index="4">
  &lt;position x="878" y="353">
   &lt;transform>1,0,0,0,1,0,0,0,1&lt;/transform>
  &lt;/position>
  &lt;content line-spacing="0" shadow="0;#64000000;3;3;3" font-underline="0" box-height="83" font="Georgia" letter-spacing="0" font-pixel-size="73" font-italic="0" alignment="1" font-weight="25" box-width="280.719" font-color="248,131,121,255">Reduced&lt;/content>
 &lt;/item>
 &lt;item type="QGraphicsTextItem" z-index="3">
  &lt;position x="1182" y="353">
   &lt;transform>1,0,0,0,1,0,0,0,1&lt;/transform>
  &lt;/position>
  &lt;content line-spacing="0" shadow="0;#64000000;3;3;3" font-underline="0" box-height="83" font="Georgia" letter-spacing="0" font-pixel-size="73" font-italic="0" alignment="1" font-weight="25" box-width="494.625" font-color="0,0,0,255">blood pressure &lt;/content>
 &lt;/item>
 &lt;item type="QGraphicsTextItem" z-index="0">
  &lt;position x="156" y="518">
   &lt;transform>1,0,0,0,1,0,0,0,1&lt;/transform>
  &lt;/position>
  &lt;content line-spacing="0" shadow="0;#64000000;3;3;3" font-underline="0" box-height="83" font="Georgia" letter-spacing="0" font-pixel-size="73" font-italic="0" alignment="1" font-weight="25" box-width="678.828" font-color="0,0,0,255">Expressive Writing =&lt;/content>
 &lt;/item>
 &lt;startviewport rect="0,0,1920,1080"/>
 &lt;endviewport rect="0,0,1920,1080"/>
 &lt;background color="255,255,255,255"/>
&lt;/kdenlivetitle>
</property>
  <property name="kdenlive:folderid">16</property>
  <property name="kdenlive:id">73</property>
  <property name="kdenlive:file_hash">ab5073a73ae48b4f3d66774794342a94</property>
  <property name="force_reload">0</property>
  <property name="global_feed">1</property>
  <property name="meta.media.width">1920</property>
  <property name="meta.media.height">1080</property>
 </producer>
 <producer id="producer17" in="00:00:00.000" out="00:00:07.674">
  <property name="length">231</property>
  <property name="eof">pause</property>
  <property name="resource"/>
  <property name="progressive">1</property>
  <property name="aspect_ratio">1</property>
  <property name="seekable">1</property>
  <property name="mlt_service">kdenlivetitle</property>
  <property name="kdenlive:duration">150</property>
  <property name="kdenlive:clipname">at2</property>
  <property name="xmldata">&lt;kdenlivetitle duration="150" LC_NUMERIC="C" width="1920" height="1080" out="149">
 &lt;item type="QGraphicsTextItem" z-index="7">
  &lt;position x="156" y="106">
   &lt;transform>1,0,0,0,1,0,0,0,1&lt;/transform>
  &lt;/position>
  &lt;content shadow="0;#64000000;3;3;3" font-underline="0" box-height="83" font="Georgia" letter-spacing="0" font-pixel-size="73" font-italic="0" alignment="2" font-weight="25" box-width="721.734" font-color="0,0,0,255">According to research,&lt;/content>
 &lt;/item>
 &lt;item type="QGraphicsTextItem" z-index="6">
  &lt;position x="1212" y="463">
   &lt;transform>1,0,0,0,1,0,0,0,1&lt;/transform>
  &lt;/position>
  &lt;content shadow="0;#64000000;3;3;3" font-underline="0" box-height="83" font="Georgia" letter-spacing="0" font-pixel-size="73" font-italic="0" alignment="2" font-weight="25" box-width="609.656" font-color="0,0,0,255">lung/liver function&lt;/content>
 &lt;/item>
 &lt;item type="QGraphicsTextItem" z-index="5">
  &lt;position x="878" y="463">
   &lt;transform>1,0,0,0,1,0,0,0,1&lt;/transform>
  &lt;/position>
  &lt;content shadow="0;#64000000;3;3;3" font-underline="0" box-height="83" font="Georgia" letter-spacing="0" font-pixel-size="73" font-italic="0" alignment="2" font-weight="25" box-width="317.109" font-color="248,131,121,255">Improved&lt;/content>
 &lt;/item>
 &lt;item type="QGraphicsTextItem" z-index="4">
  &lt;position x="878" y="353">
   &lt;transform>1,0,0,0,1,0,0,0,1&lt;/transform>
  &lt;/position>
  &lt;content line-spacing="0" shadow="0;#64000000;3;3;3" font-underline="0" box-height="83" font="Georgia" letter-spacing="0" font-pixel-size="73" font-italic="0" alignment="1" font-weight="25" box-width="280.719" font-color="248,131,121,255">Reduced&lt;/content>
 &lt;/item>
 &lt;item type="QGraphicsTextItem" z-index="3">
  &lt;position x="1182" y="353">
   &lt;transform>1,0,0,0,1,0,0,0,1&lt;/transform>
  &lt;/position>
  &lt;content line-spacing="0" shadow="0;#64000000;3;3;3" font-underline="0" box-height="83" font="Georgia" letter-spacing="0" font-pixel-size="73" font-italic="0" alignment="1" font-weight="25" box-width="494.625" font-color="0,0,0,255">blood pressure &lt;/content>
 &lt;/item>
 &lt;item type="QGraphicsTextItem" z-index="0">
  &lt;position x="156" y="518">
   &lt;transform>1,0,0,0,1,0,0,0,1&lt;/transform>
  &lt;/position>
  &lt;content line-spacing="0" shadow="0;#64000000;3;3;3" font-underline="0" box-height="83" font="Georgia" letter-spacing="0" font-pixel-size="73" font-italic="0" alignment="1" font-weight="25" box-width="678.828" font-color="0,0,0,255">Expressive Writing =&lt;/content>
 &lt;/item>
 &lt;startviewport rect="0,0,1920,1080"/>
 &lt;endviewport rect="0,0,1920,1080"/>
 &lt;background color="255,255,255,255"/>
&lt;/kdenlivetitle>
</property>
  <property name="kdenlive:folderid">16</property>
  <property name="kdenlive:id">74</property>
  <property name="kdenlive:file_hash">61957673fb7aaff42706d82e0f85fd1d</property>
  <property name="force_reload">0</property>
  <property name="global_feed">1</property>
  <property name="meta.media.width">1920</property>
  <property name="meta.media.height">1080</property>
 </producer>
 <producer id="producer18" in="00:00:00.000" out="00:00:07.674">
  <property name="length">231</property>
  <property name="eof">pause</property>
  <property name="resource"/>
  <property name="progressive">1</property>
  <property name="aspect_ratio">1</property>
  <property name="seekable">1</property>
  <property name="mlt_service">kdenlivetitle</property>
  <property name="kdenlive:duration">150</property>
  <property name="kdenlive:clipname">at3</property>
  <property name="xmldata">&lt;kdenlivetitle duration="150" LC_NUMERIC="C" width="1920" height="1080" out="149">
 &lt;item type="QGraphicsTextItem" z-index="9">
  &lt;position x="156" y="106">
   &lt;transform>1,0,0,0,1,0,0,0,1&lt;/transform>
  &lt;/position>
  &lt;content shadow="0;#64000000;3;3;3" font-underline="0" box-height="83" font="Georgia" letter-spacing="0" font-pixel-size="73" font-italic="0" alignment="2" font-weight="25" box-width="721.734" font-color="0,0,0,255">According to research,&lt;/content>
 &lt;/item>
 &lt;item type="QGraphicsTextItem" z-index="8">
  &lt;position x="1178" y="573">
   &lt;transform>1,0,0,0,1,0,0,0,1&lt;/transform>
  &lt;/position>
  &lt;content shadow="0;#64000000;3;3;3" font-underline="0" box-height="83" font="Georgia" letter-spacing="0" font-pixel-size="73" font-italic="0" alignment="2" font-weight="25" box-width="350.969" font-color="0,0,0,255">depression&lt;/content>
 &lt;/item>
 &lt;item type="QGraphicsTextItem" z-index="7">
  &lt;position x="878" y="573">
   &lt;transform>1,0,0,0,1,0,0,0,1&lt;/transform>
  &lt;/position>
  &lt;content shadow="0;#64000000;3;3;3" font-underline="0" box-height="83" font="Georgia" letter-spacing="0" font-pixel-size="73" font-italic="0" alignment="2" font-weight="25" box-width="280.719" font-color="248,131,121,255">Reduced&lt;/content>
 &lt;/item>
 &lt;item type="QGraphicsTextItem" z-index="6">
  &lt;position x="1212" y="463">
   &lt;transform>1,0,0,0,1,0,0,0,1&lt;/transform>
  &lt;/position>
  &lt;content shadow="0;#64000000;3;3;3" font-underline="0" box-height="83" font="Georgia" letter-spacing="0" font-pixel-size="73" font-italic="0" alignment="2" font-weight="25" box-width="609.656" font-color="0,0,0,255">lung/liver function&lt;/content>
 &lt;/item>
 &lt;item type="QGraphicsTextItem" z-index="5">
  &lt;position x="878" y="463">
   &lt;transform>1,0,0,0,1,0,0,0,1&lt;/transform>
  &lt;/position>
  &lt;content shadow="0;#64000000;3;3;3" font-underline="0" box-height="83" font="Georgia" letter-spacing="0" font-pixel-size="73" font-italic="0" alignment="2" font-weight="25" box-width="317.109" font-color="248,131,121,255">Improved&lt;/content>
 &lt;/item>
 &lt;item type="QGraphicsTextItem" z-index="4">
  &lt;position x="878" y="353">
   &lt;transform>1,0,0,0,1,0,0,0,1&lt;/transform>
  &lt;/position>
  &lt;content line-spacing="0" shadow="0;#64000000;3;3;3" font-underline="0" box-height="83" font="Georgia" letter-spacing="0" font-pixel-size="73" font-italic="0" alignment="1" font-weight="25" box-width="280.719" font-color="248,131,121,255">Reduced&lt;/content>
 &lt;/item>
 &lt;item type="QGraphicsTextItem" z-index="3">
  &lt;position x="1182" y="353">
   &lt;transform>1,0,0,0,1,0,0,0,1&lt;/transform>
  &lt;/position>
  &lt;content line-spacing="0" shadow="0;#64000000;3;3;3" font-underline="0" box-height="83" font="Georgia" letter-spacing="0" font-pixel-size="73" font-italic="0" alignment="1" font-weight="25" box-width="494.625" font-color="0,0,0,255">blood pressure &lt;/content>
 &lt;/item>
 &lt;item type="QGraphicsTextItem" z-index="0">
  &lt;position x="156" y="518">
   &lt;transform>1,0,0,0,1,0,0,0,1&lt;/transform>
  &lt;/position>
  &lt;content line-spacing="0" shadow="0;#64000000;3;3;3" font-underline="0" box-height="83" font="Georgia" letter-spacing="0" font-pixel-size="73" font-italic="0" alignment="1" font-weight="25" box-width="678.828" font-color="0,0,0,255">Expressive Writing =&lt;/content>
 &lt;/item>
 &lt;startviewport rect="0,0,1920,1080"/>
 &lt;endviewport rect="0,0,1920,1080"/>
 &lt;background color="255,255,255,255"/>
&lt;/kdenlivetitle>
</property>
  <property name="kdenlive:folderid">16</property>
  <property name="kdenlive:id">75</property>
  <property name="kdenlive:file_hash">7cb807ee14fa331867be20efe0b2ff3c</property>
  <property name="force_reload">0</property>
  <property name="global_feed">1</property>
  <property name="meta.media.width">1920</property>
  <property name="meta.media.height">1080</property>
 </producer>
 <producer id="producer19" in="00:00:00.000" out="00:00:07.674">
  <property name="length">231</property>
  <property name="eof">pause</property>
  <property name="resource"/>
  <property name="progressive">1</property>
  <property name="aspect_ratio">1</property>
  <property name="seekable">1</property>
  <property name="mlt_service">kdenlivetitle</property>
  <property name="kdenlive:duration">150</property>
  <property name="kdenlive:clipname">at4</property>
  <property name="xmldata">&lt;kdenlivetitle duration="150" LC_NUMERIC="C" width="1920" height="1080" out="149">
 &lt;item type="QGraphicsTextItem" z-index="13">
  &lt;position x="156" y="106">
   &lt;transform>1,0,0,0,1,0,0,0,1&lt;/transform>
  &lt;/position>
  &lt;content shadow="0;#64000000;3;3;3" font-underline="0" box-height="83" font="Georgia" letter-spacing="0" font-pixel-size="73" font-italic="0" alignment="2" font-weight="25" box-width="721.734" font-color="0,0,0,255">According to research,&lt;/content>
 &lt;/item>
 &lt;item type="QGraphicsTextItem" z-index="12">
  &lt;position x="1101" y="683">
   &lt;transform>1,0,0,0,1,0,0,0,1&lt;/transform>
  &lt;/position>
  &lt;content shadow="0;#64000000;3;3;3" font-underline="0" box-height="83" font="Georgia" letter-spacing="0" font-pixel-size="73" font-italic="0" alignment="2" font-weight="25" box-width="551.438" font-color="0,0,0,255">working memory&lt;/content>
 &lt;/item>
 &lt;item type="QGraphicsTextItem" z-index="10">
  &lt;position x="878" y="683">
   &lt;transform>1,0,0,0,1,0,0,0,1&lt;/transform>
  &lt;/position>
  &lt;content shadow="0;#64000000;3;3;3" font-underline="0" box-height="83" font="Georgia" letter-spacing="0" font-pixel-size="73" font-italic="0" alignment="2" font-weight="25" box-width="198.547" font-color="248,131,121,255">Better&lt;/content>
 &lt;/item>
 &lt;item type="QGraphicsTextItem" z-index="8">
  &lt;position x="1178" y="573">
   &lt;transform>1,0,0,0,1,0,0,0,1&lt;/transform>
  &lt;/position>
  &lt;content shadow="0;#64000000;3;3;3" font-underline="0" box-height="83" font="Georgia" letter-spacing="0" font-pixel-size="73" font-italic="0" alignment="2" font-weight="25" box-width="350.969" font-color="0,0,0,255">depression&lt;/content>
 &lt;/item>
 &lt;item type="QGraphicsTextItem" z-index="7">
  &lt;position x="878" y="573">
   &lt;transform>1,0,0,0,1,0,0,0,1&lt;/transform>
  &lt;/position>
  &lt;content shadow="0;#64000000;3;3;3" font-underline="0" box-height="83" font="Georgia" letter-spacing="0" font-pixel-size="73" font-italic="0" alignment="2" font-weight="25" box-width="280.719" font-color="248,131,121,255">Reduced&lt;/content>
 &lt;/item>
 &lt;item type="QGraphicsTextItem" z-index="6">
  &lt;position x="1212" y="463">
   &lt;transform>1,0,0,0,1,0,0,0,1&lt;/transform>
  &lt;/position>
  &lt;content shadow="0;#64000000;3;3;3" font-underline="0" box-height="83" font="Georgia" letter-spacing="0" font-pixel-size="73" font-italic="0" alignment="2" font-weight="25" box-width="609.656" font-color="0,0,0,255">lung/liver function&lt;/content>
 &lt;/item>
 &lt;item type="QGraphicsTextItem" z-index="5">
  &lt;position x="878" y="463">
   &lt;transform>1,0,0,0,1,0,0,0,1&lt;/transform>
  &lt;/position>
  &lt;content shadow="0;#64000000;3;3;3" font-underline="0" box-height="83" font="Georgia" letter-spacing="0" font-pixel-size="73" font-italic="0" alignment="2" font-weight="25" box-width="317.109" font-color="248,131,121,255">Improved&lt;/content>
 &lt;/item>
 &lt;item type="QGraphicsTextItem" z-index="4">
  &lt;position x="878" y="353">
   &lt;transform>1,0,0,0,1,0,0,0,1&lt;/transform>
  &lt;/position>
  &lt;content line-spacing="0" shadow="0;#64000000;3;3;3" font-underline="0" box-height="83" font="Georgia" letter-spacing="0" font-pixel-size="73" font-italic="0" alignment="1" font-weight="25" box-width="280.719" font-color="248,131,121,255">Reduced&lt;/content>
 &lt;/item>
 &lt;item type="QGraphicsTextItem" z-index="3">
  &lt;position x="1182" y="353">
   &lt;transform>1,0,0,0,1,0,0,0,1&lt;/transform>
  &lt;/position>
  &lt;content line-spacing="0" shadow="0;#64000000;3;3;3" font-underline="0" box-height="83" font="Georgia" letter-spacing="0" font-pixel-size="73" font-italic="0" alignment="1" font-weight="25" box-width="494.625" font-color="0,0,0,255">blood pressure &lt;/content>
 &lt;/item>
 &lt;item type="QGraphicsTextItem" z-index="0">
  &lt;position x="156" y="518">
   &lt;transform>1,0,0,0,1,0,0,0,1&lt;/transform>
  &lt;/position>
  &lt;content line-spacing="0" shadow="0;#64000000;3;3;3" font-underline="0" box-height="83" font="Georgia" letter-spacing="0" font-pixel-size="73" font-italic="0" alignment="1" font-weight="25" box-width="678.828" font-color="0,0,0,255">Expressive Writing =&lt;/content>
 &lt;/item>
 &lt;startviewport rect="0,0,1920,1080"/>
 &lt;endviewport rect="0,0,1920,1080"/>
 &lt;background color="255,255,255,255"/>
&lt;/kdenlivetitle>
</property>
  <property name="kdenlive:folderid">16</property>
  <property name="kdenlive:id">76</property>
  <property name="kdenlive:file_hash">30c2f7c1162f157b1e3f0f157839e4bd</property>
  <property name="force_reload">0</property>
  <property name="global_feed">1</property>
  <property name="meta.media.width">1920</property>
  <property name="meta.media.height">1080</property>
 </producer>
 <producer id="producer20" in="00:00:00.000" out="00:00:07.674">
  <property name="length">231</property>
  <property name="eof">pause</property>
  <property name="resource"/>
  <property name="progressive">1</property>
  <property name="aspect_ratio">1</property>
  <property name="seekable">1</property>
  <property name="mlt_service">kdenlivetitle</property>
  <property name="kdenlive:duration">150</property>
  <property name="kdenlive:clipname">at0</property>
  <property name="xmldata">&lt;kdenlivetitle duration="150" LC_NUMERIC="C" width="1920" height="1080" out="149">
 &lt;item type="QGraphicsTextItem" z-index="5">
  &lt;position x="156" y="106">
   &lt;transform>1,0,0,0,1,0,0,0,1&lt;/transform>
  &lt;/position>
  &lt;content shadow="0;#64000000;3;3;3" font-underline="0" box-height="83" font="Georgia" letter-spacing="0" font-pixel-size="73" font-italic="0" alignment="2" font-weight="25" box-width="721.734" font-color="0,0,0,255">According to research,&lt;/content>
 &lt;/item>
 &lt;item type="QGraphicsTextItem" z-index="0">
  &lt;position x="156" y="518">
   &lt;transform>1,0,0,0,1,0,0,0,1&lt;/transform>
  &lt;/position>
  &lt;content line-spacing="0" shadow="0;#64000000;3;3;3" font-underline="0" box-height="83" font="Georgia" letter-spacing="0" font-pixel-size="73" font-italic="0" alignment="1" font-weight="25" box-width="678.828" font-color="0,0,0,255">Expressive Writing =&lt;/content>
 &lt;/item>
 &lt;startviewport rect="0,0,1920,1080"/>
 &lt;endviewport rect="0,0,1920,1080"/>
 &lt;background color="255,255,255,255"/>
&lt;/kdenlivetitle>
</property>
  <property name="kdenlive:folderid">16</property>
  <property name="kdenlive:id">77</property>
  <property name="kdenlive:file_hash">241115bb402f6905645710189921728c</property>
  <property name="force_reload">0</property>
  <property name="global_feed">1</property>
  <property name="meta.media.width">1920</property>
  <property name="meta.media.height">1080</property>
 </producer>
 <producer id="producer23" in="00:00:00.000" out="00:00:07.674">
  <property name="length">231</property>
  <property name="eof">pause</property>
  <property name="resource"/>
  <property name="progressive">1</property>
  <property name="aspect_ratio">1</property>
  <property name="seekable">1</property>
  <property name="mlt_service">kdenlivetitle</property>
  <property name="kdenlive:duration">150</property>
  <property name="kdenlive:clipname">at5</property>
  <property name="xmldata">&lt;kdenlivetitle duration="150" LC_NUMERIC="C" width="1920" height="1080" out="149">
 &lt;item type="QGraphicsTextItem" z-index="15">
  &lt;position x="663" y="849">
   &lt;transform>1,0,0,0,1,0,0,0,1&lt;/transform>
  &lt;/position>
  &lt;content shadow="0;#64000000;3;3;3" font-underline="0" box-height="83" font-outline-color="0,0,0,255" font="Georgia" letter-spacing="0" font-pixel-size="73" font-italic="0" alignment="2" font-weight="25" font-outline="0" box-width="832.766" font-color="248,131,121,255">more important than ever&lt;/content>
 &lt;/item>
 &lt;item type="QGraphicsTextItem" z-index="14">
  &lt;position x="154" y="849">
   &lt;transform>1,0,0,0,1,0,0,0,1&lt;/transform>
  &lt;/position>
  &lt;content line-spacing="0" shadow="0;#64000000;3;3;3" font-underline="0" box-height="166" font="Georgia" letter-spacing="0" font-pixel-size="73" font-italic="0" alignment="1" font-weight="25" box-width="537.875" font-color="0,0,0,255">Which are now
in this pandemic&lt;/content>
 &lt;/item>
 &lt;item type="QGraphicsTextItem" z-index="13">
  &lt;position x="156" y="106">
   &lt;transform>1,0,0,0,1,0,0,0,1&lt;/transform>
  &lt;/position>
  &lt;content shadow="0;#64000000;3;3;3" font-underline="0" box-height="83" font="Georgia" letter-spacing="0" font-pixel-size="73" font-italic="0" alignment="2" font-weight="25" box-width="721.734" font-color="0,0,0,255">According to research,&lt;/content>
 &lt;/item>
 &lt;item type="QGraphicsTextItem" z-index="12">
  &lt;position x="1101" y="683">
   &lt;transform>1,0,0,0,1,0,0,0,1&lt;/transform>
  &lt;/position>
  &lt;content shadow="0;#64000000;3;3;3" font-underline="0" box-height="83" font="Georgia" letter-spacing="0" font-pixel-size="73" font-italic="0" alignment="2" font-weight="25" box-width="551.438" font-color="0,0,0,255">working memory&lt;/content>
 &lt;/item>
 &lt;item type="QGraphicsTextItem" z-index="10">
  &lt;position x="878" y="683">
   &lt;transform>1,0,0,0,1,0,0,0,1&lt;/transform>
  &lt;/position>
  &lt;content shadow="0;#64000000;3;3;3" font-underline="0" box-height="83" font="Georgia" letter-spacing="0" font-pixel-size="73" font-italic="0" alignment="2" font-weight="25" box-width="198.547" font-color="248,131,121,255">Better&lt;/content>
 &lt;/item>
 &lt;item type="QGraphicsTextItem" z-index="8">
  &lt;position x="1178" y="573">
   &lt;transform>1,0,0,0,1,0,0,0,1&lt;/transform>
  &lt;/position>
  &lt;content shadow="0;#64000000;3;3;3" font-underline="0" box-height="83" font="Georgia" letter-spacing="0" font-pixel-size="73" font-italic="0" alignment="2" font-weight="25" box-width="350.969" font-color="0,0,0,255">depression&lt;/content>
 &lt;/item>
 &lt;item type="QGraphicsTextItem" z-index="7">
  &lt;position x="878" y="573">
   &lt;transform>1,0,0,0,1,0,0,0,1&lt;/transform>
  &lt;/position>
  &lt;content shadow="0;#64000000;3;3;3" font-underline="0" box-height="83" font="Georgia" letter-spacing="0" font-pixel-size="73" font-italic="0" alignment="2" font-weight="25" box-width="280.719" font-color="248,131,121,255">Reduced&lt;/content>
 &lt;/item>
 &lt;item type="QGraphicsTextItem" z-index="6">
  &lt;position x="1212" y="463">
   &lt;transform>1,0,0,0,1,0,0,0,1&lt;/transform>
  &lt;/position>
  &lt;content shadow="0;#64000000;3;3;3" font-underline="0" box-height="83" font="Georgia" letter-spacing="0" font-pixel-size="73" font-italic="0" alignment="2" font-weight="25" box-width="609.656" font-color="0,0,0,255">lung/liver function&lt;/content>
 &lt;/item>
 &lt;item type="QGraphicsTextItem" z-index="5">
  &lt;position x="878" y="463">
   &lt;transform>1,0,0,0,1,0,0,0,1&lt;/transform>
  &lt;/position>
  &lt;content shadow="0;#64000000;3;3;3" font-underline="0" box-height="83" font="Georgia" letter-spacing="0" font-pixel-size="73" font-italic="0" alignment="2" font-weight="25" box-width="317.109" font-color="248,131,121,255">Improved&lt;/content>
 &lt;/item>
 &lt;item type="QGraphicsTextItem" z-index="4">
  &lt;position x="878" y="353">
   &lt;transform>1,0,0,0,1,0,0,0,1&lt;/transform>
  &lt;/position>
  &lt;content line-spacing="0" shadow="0;#64000000;3;3;3" font-underline="0" box-height="83" font="Georgia" letter-spacing="0" font-pixel-size="73" font-italic="0" alignment="1" font-weight="25" box-width="280.719" font-color="248,131,121,255">Reduced&lt;/content>
 &lt;/item>
 &lt;item type="QGraphicsTextItem" z-index="3">
  &lt;position x="1182" y="353">
   &lt;transform>1,0,0,0,1,0,0,0,1&lt;/transform>
  &lt;/position>
  &lt;content line-spacing="0" shadow="0;#64000000;3;3;3" font-underline="0" box-height="83" font="Georgia" letter-spacing="0" font-pixel-size="73" font-italic="0" alignment="1" font-weight="25" box-width="494.625" font-color="0,0,0,255">blood pressure &lt;/content>
 &lt;/item>
 &lt;item type="QGraphicsTextItem" z-index="0">
  &lt;position x="156" y="518">
   &lt;transform>1,0,0,0,1,0,0,0,1&lt;/transform>
  &lt;/position>
  &lt;content line-spacing="0" shadow="0;#64000000;3;3;3" font-underline="0" box-height="83" font="Georgia" letter-spacing="0" font-pixel-size="73" font-italic="0" alignment="1" font-weight="25" box-width="678.828" font-color="0,0,0,255">Expressive Writing =&lt;/content>
 &lt;/item>
 &lt;startviewport rect="0,0,1920,1080"/>
 &lt;endviewport rect="0,0,1920,1080"/>
 &lt;background color="255,255,255,255"/>
&lt;/kdenlivetitle>
</property>
  <property name="kdenlive:folderid">16</property>
  <property name="kdenlive:id">78</property>
  <property name="kdenlive:file_hash">03a6887c2cd7d9d2c1057c2e72cb4714</property>
  <property name="force_reload">0</property>
  <property name="global_feed">1</property>
  <property name="meta.media.width">1920</property>
  <property name="meta.media.height">1080</property>
 </producer>
 <producer id="producer27" in="00:00:00.000" out="00:00:50.651">
  <property name="length">1519</property>
  <property name="eof">pause</property>
  <property name="resource"/>
  <property name="progressive">1</property>
  <property name="aspect_ratio">1</property>
  <property name="seekable">1</property>
  <property name="mlt_service">kdenlivetitle</property>
  <property name="kdenlive:duration">00:00:00.000</property>
  <property name="kdenlive:clipname">carolumgud2</property>
  <property name="xmldata">&lt;kdenlivetitle duration="0" LC_NUMERIC="C" width="1920" height="1080" out="-1">
 &lt;item type="QGraphicsTextItem" z-index="2">
  &lt;position x="530" y="677">
   &lt;transform>1,0,0,0,1,0,0,0,1&lt;/transform>
  &lt;/position>
  &lt;content line-spacing="0" shadow="0;#64000000;3;3;3" font-underline="0" box-height="655" font="Georgia" letter-spacing="0" font-pixel-size="115" font-italic="0" alignment="1" font-weight="25" box-width="1250.11" font-color="0,0,0,255">- No advertisements

- No paywalls

- No complicated sign-in&lt;/content>
 &lt;/item>
 &lt;item type="QGraphicsTextItem" z-index="1">
  &lt;position x="1180" y="443">
   &lt;transform>1,0,0,0,1,0,0,0,1&lt;/transform>
  &lt;/position>
  &lt;content line-spacing="0" shadow="0;#64000000;3;3;3" font-underline="0" box-height="171" font="Georgia" letter-spacing="0" font-pixel-size="150" font-italic="0" alignment="2" font-weight="25" box-width="667.75" font-color="248,131,121,255">- Carolum&lt;/content>
 &lt;/item>
 &lt;item type="QGraphicsTextItem" z-index="0">
  &lt;position x="470" y="443">
   &lt;transform>1,0,0,0,1,0,0,0,1&lt;/transform>
  &lt;/position>
  &lt;content line-spacing="0" shadow="0;#64000000;3;3;3" font-underline="0" box-height="171" font="Georgia" letter-spacing="0" font-pixel-size="150" font-italic="0" alignment="2" font-weight="25" box-width="705.516" font-color="0,0,0,255">Simple UI &lt;/content>
 &lt;/item>
 &lt;startviewport rect="0,0,1920,1080"/>
 &lt;endviewport rect="340.625,318.75,2355.38,1324.9"/>
 &lt;background color="255,255,255,255"/>
&lt;/kdenlivetitle>
</property>
  <property name="kdenlive:folderid">25</property>
  <property name="kdenlive:id">35</property>
  <property name="kdenlive:file_hash">23ba6d452b655709a441ebcb62891cc4</property>
  <property name="force_reload">0</property>
  <property name="global_feed">1</property>
  <property name="kdenlive:zone_in">172</property>
  <property name="kdenlive:zone_out">1519</property>
  <property name="meta.media.width">1920</property>
  <property name="meta.media.height">1080</property>
 </producer>
 <producer id="producer29" in="00:00:00.000" out="00:00:04.972">
  <property name="length">150</property>
  <property name="eof">pause</property>
  <property name="resource"/>
  <property name="progressive">1</property>
  <property name="aspect_ratio">1</property>
  <property name="seekable">1</property>
  <property name="mlt_service">kdenlivetitle</property>
  <property name="kdenlive:duration">00:00:00.000</property>
  <property name="kdenlive:clipname">point 1</property>
  <property name="xmldata">&lt;kdenlivetitle duration="0" LC_NUMERIC="C" width="1920" height="1080" out="-1">
 &lt;item type="QGraphicsTextItem" z-index="1">
  &lt;position x="476" y="665">
   &lt;transform>1,0,0,0,1,0,0,0,1&lt;/transform>
  &lt;/position>
  &lt;content line-spacing="0" shadow="0;#64000000;3;3;3" font-underline="0" box-height="138" font="Georgia" letter-spacing="0" font-pixel-size="120" font-italic="0" alignment="2" font-weight="25" box-width="904.234" font-color="0,0,0,255">- Advertisements&lt;/content>
 &lt;/item>
 &lt;item type="QGraphicsTextItem" z-index="0">
  &lt;position x="470" y="443">
   &lt;transform>1,0,0,0,1,0,0,0,1&lt;/transform>
  &lt;/position>
  &lt;content line-spacing="0" shadow="0;#64000000;3;3;3" font-underline="0" box-height="171" font="Georgia" letter-spacing="0" font-pixel-size="150" font-italic="0" alignment="2" font-weight="25" box-width="826.297" font-color="0,0,0,255">Accessibility&lt;/content>
 &lt;/item>
 &lt;startviewport rect="0,0,1920,1080"/>
 &lt;endviewport rect="340.625,318.75,2355.38,1324.9"/>
 &lt;background color="255,255,255,255"/>
&lt;/kdenlivetitle>
</property>
  <property name="kdenlive:folderid">25</property>
  <property name="kdenlive:id">21</property>
  <property name="kdenlive:file_hash">bcb8b1b354a8ab3b10e404318c21ae4a</property>
  <property name="force_reload">0</property>
  <property name="global_feed">1</property>
  <property name="meta.media.width">1920</property>
  <property name="meta.media.height">1080</property>
 </producer>
 <producer id="producer32" in="00:00:00.000" out="00:00:04.972">
  <property name="length">150</property>
  <property name="eof">pause</property>
  <property name="resource"/>
  <property name="progressive">1</property>
  <property name="aspect_ratio">1</property>
  <property name="seekable">1</property>
  <property name="mlt_service">kdenlivetitle</property>
  <property name="kdenlive:duration">00:00:00.000</property>
  <property name="kdenlive:clipname">point 1.5</property>
  <property name="xmldata">&lt;kdenlivetitle duration="0" LC_NUMERIC="C" width="1920" height="1080" out="-1">
 &lt;item type="QGraphicsTextItem" z-index="2">
  &lt;position x="656" y="828">
   &lt;transform>1,0,0,0,1,0,0,0,1&lt;/transform>
  &lt;/position>
  &lt;content line-spacing="0" shadow="0;#64000000;3;3;3" font-underline="0" box-height="106" font="Georgia" letter-spacing="0" font-pixel-size="92" font-italic="0" alignment="2" font-weight="25" box-width="1656.59" font-color="0,0,0,255">They're so colorful! And annoying to see!&lt;/content>
 &lt;/item>
 &lt;item type="QGraphicsTextItem" z-index="1">
  &lt;position x="476" y="665">
   &lt;transform>1,0,0,0,1,0,0,0,1&lt;/transform>
  &lt;/position>
  &lt;content line-spacing="0" shadow="0;#64000000;3;3;3" font-underline="0" box-height="138" font="Georgia" letter-spacing="0" font-pixel-size="120" font-italic="0" alignment="2" font-weight="25" box-width="904.234" font-color="0,0,0,255">- Advertisements&lt;/content>
 &lt;/item>
 &lt;item type="QGraphicsTextItem" z-index="0">
  &lt;position x="470" y="443">
   &lt;transform>1,0,0,0,1,0,0,0,1&lt;/transform>
  &lt;/position>
  &lt;content line-spacing="0" shadow="0;#64000000;3;3;3" font-underline="0" box-height="171" font="Georgia" letter-spacing="0" font-pixel-size="150" font-italic="0" alignment="2" font-weight="25" box-width="826.297" font-color="0,0,0,255">Accessibility&lt;/content>
 &lt;/item>
 &lt;startviewport rect="0,0,1920,1080"/>
 &lt;endviewport rect="340.625,318.75,2355.38,1324.9"/>
 &lt;background color="255,255,255,255"/>
&lt;/kdenlivetitle>
</property>
  <property name="kdenlive:folderid">25</property>
  <property name="kdenlive:id">30</property>
  <property name="kdenlive:file_hash">8fce704e752a39acc069afc9ebaecf9f</property>
  <property name="force_reload">0</property>
  <property name="global_feed">1</property>
  <property name="meta.media.width">1920</property>
  <property name="meta.media.height">1080</property>
 </producer>
 <producer id="producer39" in="00:00:00.000" out="00:00:04.972">
  <property name="length">150</property>
  <property name="eof">pause</property>
  <property name="resource"/>
  <property name="progressive">1</property>
  <property name="aspect_ratio">1</property>
  <property name="seekable">1</property>
  <property name="mlt_service">kdenlivetitle</property>
  <property name="kdenlive:duration">00:00:00.000</property>
  <property name="kdenlive:clipname">point 2.5</property>
  <property name="xmldata">&lt;kdenlivetitle duration="0" LC_NUMERIC="C" width="1920" height="1080" out="-1">
 &lt;item type="QGraphicsTextItem" z-index="3">
  &lt;position x="656" y="828">
   &lt;transform>1,0,0,0,1,0,0,0,1&lt;/transform>
  &lt;/position>
  &lt;content shadow="0;#64000000;3;3;3" font-underline="0" box-height="106" font="Georgia" letter-spacing="0" font-pixel-size="92" font-italic="0" alignment="2" font-weight="25" box-width="1656.59" font-color="0,0,0,255">They're so colorful! And annoying to see!&lt;/content>
 &lt;/item>
 &lt;item type="QGraphicsTextItem" z-index="2">
  &lt;position x="476" y="1058">
   &lt;transform>1,0,0,0,1,0,0,0,1&lt;/transform>
  &lt;/position>
  &lt;content line-spacing="0" shadow="0;#64000000;3;3;3" font-underline="0" box-height="408" font="Georgia" letter-spacing="0" font-pixel-size="120" font-italic="0" alignment="1" font-weight="25" box-width="1238.8" font-color="0,0,0,255">- Paywalls

- Complicated accounts&lt;/content>
 &lt;/item>
 &lt;item type="QGraphicsTextItem" z-index="1">
  &lt;position x="476" y="665">
   &lt;transform>1,0,0,0,1,0,0,0,1&lt;/transform>
  &lt;/position>
  &lt;content line-spacing="0" shadow="0;#64000000;3;3;3" font-underline="0" box-height="138" font="Georgia" letter-spacing="0" font-pixel-size="120" font-italic="0" alignment="1" font-weight="25" box-width="904.234" font-color="0,0,0,255">- Advertisements&lt;/content>
 &lt;/item>
 &lt;item type="QGraphicsTextItem" z-index="0">
  &lt;position x="470" y="443">
   &lt;transform>1,0,0,0,1,0,0,0,1&lt;/transform>
  &lt;/position>
  &lt;content line-spacing="0" shadow="0;#64000000;3;3;3" font-underline="0" box-height="171" font="Georgia" letter-spacing="0" font-pixel-size="150" font-italic="0" alignment="2" font-weight="25" box-width="826.297" font-color="0,0,0,255">Accessibility&lt;/content>
 &lt;/item>
 &lt;startviewport rect="0,0,1920,1080"/>
 &lt;endviewport rect="340.625,318.75,2355.38,1324.9"/>
 &lt;background color="255,255,255,255"/>
&lt;/kdenlivetitle>
</property>
  <property name="kdenlive:folderid">25</property>
  <property name="kdenlive:id">26</property>
  <property name="kdenlive:file_hash">8dbcaac0a6544b8ce7594a347cf78149</property>
  <property name="force_reload">0</property>
  <property name="global_feed">1</property>
  <property name="meta.media.width">1920</property>
  <property name="meta.media.height">1080</property>
 </producer>
 <producer id="producer61" in="00:00:00.000" out="00:00:04.972">
  <property name="length">150</property>
  <property name="eof">pause</property>
  <property name="resource"/>
  <property name="progressive">1</property>
  <property name="aspect_ratio">1</property>
  <property name="seekable">1</property>
  <property name="mlt_service">kdenlivetitle</property>
  <property name="kdenlive:duration">00:00:00.000</property>
  <property name="kdenlive:clipname">point 2</property>
  <property name="xmldata">&lt;kdenlivetitle duration="0" LC_NUMERIC="C" width="1920" height="1080" out="-1">
 &lt;item type="QGraphicsTextItem" z-index="3">
  &lt;position x="476" y="1058">
   &lt;transform>1,0,0,0,1,0,0,0,1&lt;/transform>
  &lt;/position>
  &lt;content shadow="0;#64000000;3;3;3" font-underline="0" box-height="138" font="Georgia" letter-spacing="0" font-pixel-size="120" font-italic="0" alignment="2" font-weight="25" box-width="535.953" font-color="0,0,0,255">- Paywalls&lt;/content>
 &lt;/item>
 &lt;item type="QGraphicsTextItem" z-index="2">
  &lt;position x="656" y="828">
   &lt;transform>1,0,0,0,1,0,0,0,1&lt;/transform>
  &lt;/position>
  &lt;content shadow="0;#64000000;3;3;3" font-underline="0" box-height="106" font="Georgia" letter-spacing="0" font-pixel-size="92" font-italic="0" alignment="2" font-weight="25" box-width="1656.59" font-color="0,0,0,255">They're so colorful! And annoying to see!&lt;/content>
 &lt;/item>
 &lt;item type="QGraphicsTextItem" z-index="1">
  &lt;position x="476" y="665">
   &lt;transform>1,0,0,0,1,0,0,0,1&lt;/transform>
  &lt;/position>
  &lt;content line-spacing="0" shadow="0;#64000000;3;3;3" font-underline="0" box-height="408" font="Georgia" letter-spacing="0" font-pixel-size="120" font-italic="0" alignment="1" font-weight="25" box-width="904.234" font-color="0,0,0,255">- Advertisements

&lt;/content>
 &lt;/item>
 &lt;item type="QGraphicsTextItem" z-index="0">
  &lt;position x="470" y="443">
   &lt;transform>1,0,0,0,1,0,0,0,1&lt;/transform>
  &lt;/position>
  &lt;content line-spacing="0" shadow="0;#64000000;3;3;3" font-underline="0" box-height="171" font="Georgia" letter-spacing="0" font-pixel-size="150" font-italic="0" alignment="2" font-weight="25" box-width="826.297" font-color="0,0,0,255">Accessibility&lt;/content>
 &lt;/item>
 &lt;startviewport rect="0,0,1920,1080"/>
 &lt;endviewport rect="340.625,318.75,2355.38,1324.9"/>
 &lt;background color="255,255,255,255"/>
&lt;/kdenlivetitle>
</property>
  <property name="kdenlive:folderid">25</property>
  <property name="kdenlive:id">24</property>
  <property name="kdenlive:file_hash">60a9797ba286fbd161fad5fd30fd85f7</property>
  <property name="force_reload">0</property>
  <property name="global_feed">1</property>
  <property name="meta.media.width">1920</property>
  <property name="meta.media.height">1080</property>
 </producer>
 <producer id="producer62" in="00:00:00.000" out="00:00:07.975">
  <property name="length">240</property>
  <property name="eof">pause</property>
  <property name="resource"/>
  <property name="progressive">1</property>
  <property name="aspect_ratio">1</property>
  <property name="seekable">1</property>
  <property name="mlt_service">kdenlivetitle</property>
  <property name="kdenlive:duration">150</property>
  <property name="kdenlive:clipname">p1 done real</property>
  <property name="xmldata">&lt;kdenlivetitle duration="150" LC_NUMERIC="C" width="1920" height="1080" out="149">
 &lt;item type="QGraphicsTextItem" z-index="3">
  &lt;position x="769" y="318">
   &lt;transform>1,0,0,0,1,0,0,0,1&lt;/transform>
  &lt;/position>
  &lt;content line-spacing="0" shadow="0;#64000000;3;3;3" font-underline="0" box-height="114" font-outline-color="0,0,0,255" font="Georgia" letter-spacing="0" font-pixel-size="100" font-italic="0" alignment="2" font-weight="25" font-outline="0" box-width="507.719" font-color="248,131,121,255">- Simple UI&lt;/content>
 &lt;/item>
 &lt;item type="QGraphicsTextItem" z-index="2">
  &lt;position x="193" y="318">
   &lt;transform>1,0,0,0,1,0,0,0,1&lt;/transform>
  &lt;/position>
  &lt;content line-spacing="0" shadow="0;#64000000;3;3;3" font-underline="0" box-height="570" font="Georgia" letter-spacing="0" font-pixel-size="100" font-italic="0" alignment="1" font-weight="25" box-width="550.859" font-color="0,0,0,255">Accessibility

Flexiblity

Security&lt;/content>
 &lt;/item>
 &lt;item type="QGraphicsTextItem" z-index="1">
  &lt;position x="672" y="108">
   &lt;transform>1,0,0,0,1,0,0,0,1&lt;/transform>
  &lt;/position>
  &lt;content line-spacing="0" shadow="0;#64000000;3;3;3" font-underline="0" box-height="171" font="Georgia" letter-spacing="0" font-pixel-size="150" font-italic="0" alignment="1" font-weight="25" box-width="575.484" font-color="0,0,0,255">Carolum&lt;/content>
 &lt;/item>
 &lt;startviewport rect="0,0,1920,1080"/>
 &lt;endviewport rect="0,0,1920,1080"/>
 &lt;background color="255,255,255,255"/>
&lt;/kdenlivetitle>
</property>
  <property name="kdenlive:folderid">22</property>
  <property name="kdenlive:id">79</property>
  <property name="kdenlive:file_hash">d15d1cc8da732148c043994f8b46b593</property>
  <property name="force_reload">0</property>
  <property name="global_feed">1</property>
  <property name="meta.media.width">1920</property>
  <property name="meta.media.height">1080</property>
 </producer>
 <producer id="producer63" in="00:00:00.000" out="00:00:04.972">
  <property name="length">150</property>
  <property name="eof">pause</property>
  <property name="resource"/>
  <property name="progressive">1</property>
  <property name="aspect_ratio">1</property>
  <property name="seekable">1</property>
  <property name="mlt_service">kdenlivetitle</property>
  <property name="kdenlive:duration">00:00:00.000</property>
  <property name="kdenlive:clipname">otp</property>
  <property name="xmldata">&lt;kdenlivetitle duration="0" LC_NUMERIC="C" width="1920" height="1080" out="-1">
 &lt;item type="QGraphicsTextItem" z-index="0">
  &lt;position x="630" y="460">
   &lt;transform>1,0,0,0,1,0,0,0,1&lt;/transform>
  &lt;/position>
  &lt;content line-spacing="0" shadow="0;#64000000;3;3;3" font-underline="0" box-height="171" font="Georgia" letter-spacing="0" font-pixel-size="150" font-italic="0" alignment="2" font-weight="25" box-width="668.313" font-color="0,0,0,255">Flexibility&lt;/content>
 &lt;/item>
 &lt;startviewport rect="0,0,1920,1080"/>
 &lt;endviewport rect="0,0,1920,1080"/>
 &lt;background color="255,255,255,255"/>
&lt;/kdenlivetitle>
</property>
  <property name="kdenlive:folderid">44</property>
  <property name="kdenlive:id">36</property>
  <property name="kdenlive:file_hash">83bd57fa991ee3c9334a9e7112e7f30e</property>
  <property name="force_reload">0</property>
  <property name="global_feed">1</property>
  <property name="meta.media.width">1920</property>
  <property name="meta.media.height">1080</property>
 </producer>
 <producer id="producer66" in="00:00:00.000" out="00:00:15.716">
  <property name="length">472</property>
  <property name="eof">pause</property>
  <property name="resource"/>
  <property name="progressive">1</property>
  <property name="aspect_ratio">1</property>
  <property name="seekable">1</property>
  <property name="mlt_service">kdenlivetitle</property>
  <property name="kdenlive:duration">00:00:00.000</property>
  <property name="kdenlive:clipname">point 1</property>
  <property name="xmldata">&lt;kdenlivetitle duration="0" LC_NUMERIC="C" width="1920" height="1080" out="-1">
 &lt;item type="QGraphicsTextItem" z-index="1">
  &lt;position x="400" y="665">
   &lt;transform>1,0,0,0,1,0,0,0,1&lt;/transform>
  &lt;/position>
  &lt;content line-spacing="0" shadow="0;#64000000;3;3;3" font-underline="0" box-height="132" font="Georgia" letter-spacing="0" font-pixel-size="115" font-italic="0" alignment="1" font-weight="25" box-width="1341.55" font-color="0,0,0,255">- No way to organize notes&lt;/content>
 &lt;/item>
 &lt;item type="QGraphicsTextItem" z-index="0">
  &lt;position x="395" y="447">
   &lt;transform>1,0,0,0,1,0,0,0,1&lt;/transform>
  &lt;/position>
  &lt;content line-spacing="0" shadow="0;#64000000;3;3;3" font-underline="0" box-height="171" font="Georgia" letter-spacing="0" font-pixel-size="150" font-italic="0" alignment="2" font-weight="25" box-width="668.313" font-color="0,0,0,255">Flexibility&lt;/content>
 &lt;/item>
 &lt;startviewport rect="275,318,2355,1344"/>
 &lt;endviewport rect="275,323,2355,1344"/>
 &lt;background color="255,255,255,255"/>
&lt;/kdenlivetitle>
</property>
  <property name="kdenlive:folderid">44</property>
  <property name="kdenlive:id">39</property>
  <property name="kdenlive:file_hash">d8167e1c87dd18af3ad6cfb1837b785b</property>
  <property name="force_reload">0</property>
  <property name="global_feed">1</property>
  <property name="meta.media.width">1920</property>
  <property name="meta.media.height">1080</property>
 </producer>
 <producer id="producer67" in="00:00:00.000" out="00:00:07.975">
  <property name="length">240</property>
  <property name="eof">pause</property>
  <property name="resource"/>
  <property name="progressive">1</property>
  <property name="aspect_ratio">1</property>
  <property name="seekable">1</property>
  <property name="mlt_service">kdenlivetitle</property>
  <property name="kdenlive:duration">150</property>
  <property name="kdenlive:clipname">p2 done real</property>
  <property name="xmldata">&lt;kdenlivetitle duration="150" LC_NUMERIC="C" width="1920" height="1080" out="149">
 &lt;item type="QGraphicsTextItem" z-index="4">
  &lt;position x="638" y="546">
   &lt;transform>1,0,0,0,1,0,0,0,1&lt;/transform>
  &lt;/position>
  &lt;content shadow="0;#64000000;3;3;3" font-underline="0" box-height="114" font-outline-color="0,0,0,255" font="Georgia" letter-spacing="0" font-pixel-size="100" font-italic="0" alignment="2" font-weight="25" font-outline="0" box-width="838.719" font-color="248,131,121,255">- Versatile journals&lt;/content>
 &lt;/item>
 &lt;item type="QGraphicsTextItem" z-index="3">
  &lt;position x="769" y="318">
   &lt;transform>1,0,0,0,1,0,0,0,1&lt;/transform>
  &lt;/position>
  &lt;content line-spacing="0" shadow="0;#64000000;3;3;3" font-underline="0" box-height="114" font="Georgia" letter-spacing="0" font-pixel-size="100" font-italic="0" alignment="2" font-weight="25" box-width="507.719" font-color="248,131,121,255">- Simple UI&lt;/content>
 &lt;/item>
 &lt;item type="QGraphicsTextItem" z-index="2">
  &lt;position x="193" y="318">
   &lt;transform>1,0,0,0,1,0,0,0,1&lt;/transform>
  &lt;/position>
  &lt;content line-spacing="0" shadow="0;#64000000;3;3;3" font-underline="0" box-height="570" font="Georgia" letter-spacing="0" font-pixel-size="100" font-italic="0" alignment="1" font-weight="25" box-width="550.859" font-color="0,0,0,255">Accessibility

Flexiblity

Security&lt;/content>
 &lt;/item>
 &lt;item type="QGraphicsTextItem" z-index="1">
  &lt;position x="672" y="108">
   &lt;transform>1,0,0,0,1,0,0,0,1&lt;/transform>
  &lt;/position>
  &lt;content line-spacing="0" shadow="0;#64000000;3;3;3" font-underline="0" box-height="171" font="Georgia" letter-spacing="0" font-pixel-size="150" font-italic="0" alignment="1" font-weight="25" box-width="575.484" font-color="0,0,0,255">Carolum&lt;/content>
 &lt;/item>
 &lt;startviewport rect="0,0,1920,1080"/>
 &lt;endviewport rect="0,0,1920,1080"/>
 &lt;background color="255,255,255,255"/>
&lt;/kdenlivetitle>
</property>
  <property name="kdenlive:folderid">22</property>
  <property name="kdenlive:id">80</property>
  <property name="kdenlive:file_hash">b72db155d9734d9d5d8247e9932cdc37</property>
  <property name="force_reload">0</property>
  <property name="global_feed">1</property>
  <property name="meta.media.width">1920</property>
  <property name="meta.media.height">1080</property>
 </producer>
 <producer id="producer68" in="00:00:00.000" out="00:00:04.972">
  <property name="length">150</property>
  <property name="eof">pause</property>
  <property name="resource"/>
  <property name="progressive">1</property>
  <property name="aspect_ratio">1</property>
  <property name="seekable">1</property>
  <property name="mlt_service">kdenlivetitle</property>
  <property name="kdenlive:duration">00:00:00.000</property>
  <property name="kdenlive:clipname">opd intro</property>
  <property name="xmldata">&lt;kdenlivetitle duration="0" LC_NUMERIC="C" width="1920" height="1080" out="-1">
 &lt;item type="QGraphicsTextItem" z-index="0">
  &lt;position x="680" y="477">
   &lt;transform>1,0,0,0,1,0,0,0,1&lt;/transform>
  &lt;/position>
  &lt;content line-spacing="0" shadow="0;#64000000;3;3;3" font-underline="0" box-height="143" font="Georgia" letter-spacing="0" font-pixel-size="125" font-italic="0" alignment="2" font-weight="25" box-width="453.656" font-color="0,0,0,255">Security&lt;/content>
 &lt;/item>
 &lt;startviewport rect="0,0,1920,1080"/>
 &lt;endviewport rect="0,0,1920,1080"/>
 &lt;background color="255,255,255,255"/>
&lt;/kdenlivetitle>
</property>
  <property name="kdenlive:folderid">49</property>
  <property name="kdenlive:id">48</property>
  <property name="kdenlive:file_hash">9404efcb953d11a6acfbe892064a8c76</property>
  <property name="force_reload">0</property>
  <property name="global_feed">1</property>
  <property name="meta.media.width">1920</property>
  <property name="meta.media.height">1080</property>
 </producer>
 <playlist id="main_bin">
  <property name="kdenlive:folder.-1.4">Intro</property>
  <property name="kdenlive:folder.-1.6">audio</property>
  <property name="kdenlive:folder.-1.12">misc</property>
  <property name="kdenlive:folder.-1.16">why</property>
  <property name="kdenlive:folder.-1.17">why_transition</property>
  <property name="kdenlive:folder.-1.22">outlines</property>
  <property name="kdenlive:folder.-1.25">distracting_ui</property>
  <property name="kdenlive:folder.-1.44">one_trick_ponies</property>
  <property name="kdenlive:folder.-1.49">opaque_data</property>
  <property name="kdenlive:folder.-1.72">ending</property>
  <property name="kdenlive:docproperties.activeTrack">3</property>
  <property name="kdenlive:docproperties.audioChannels">2</property>
  <property name="kdenlive:docproperties.audioTarget">-1</property>
  <property name="kdenlive:docproperties.dirtypreviewchunks">1925,1950,1975,2000</property>
  <property name="kdenlive:docproperties.disablepreview">0</property>
  <property name="kdenlive:docproperties.documentid">1598809234226</property>
  <property name="kdenlive:docproperties.enableTimelineZone">0</property>
  <property name="kdenlive:docproperties.enableexternalproxy">0</property>
  <property name="kdenlive:docproperties.enableproxy">0</property>
  <property name="kdenlive:docproperties.externalproxyparams"/>
  <property name="kdenlive:docproperties.generateimageproxy">0</property>
  <property name="kdenlive:docproperties.generateproxy">0</property>
  <property name="kdenlive:docproperties.groups">[
]
</property>
  <property name="kdenlive:docproperties.kdenliveversion">20.08.2</property>
  <property name="kdenlive:docproperties.position">4148</property>
  <property name="kdenlive:docproperties.previewchunks"/>
  <property name="kdenlive:docproperties.previewextension">mov</property>
  <property name="kdenlive:docproperties.previewparameters">r=29.97 s=1920x1080 vb=45M threads=0 vcodec=dnxhd progressive=1</property>
  <property name="kdenlive:docproperties.profile">atsc_1080p_2997</property>
  <property name="kdenlive:docproperties.proxyextension"/>
  <property name="kdenlive:docproperties.proxyimageminsize">2000</property>
  <property name="kdenlive:docproperties.proxyimagesize">800</property>
  <property name="kdenlive:docproperties.proxyminsize">1000</property>
  <property name="kdenlive:docproperties.proxyparams"/>
  <property name="kdenlive:docproperties.renderaudioquality">192</property>
  <property name="kdenlive:docproperties.rendercategory">Generic (HD for web, mobile devices...)</property>
  <property name="kdenlive:docproperties.renderendguide">-1</property>
  <property name="kdenlive:docproperties.renderexportaudio">0</property>
  <property name="kdenlive:docproperties.renderfield">0</property>
  <property name="kdenlive:docproperties.renderguide">0</property>
  <property name="kdenlive:docproperties.renderplay">0</property>
  <property name="kdenlive:docproperties.renderprofile">MP4 - the dominating format (H264/AAC)</property>
  <property name="kdenlive:docproperties.renderquality">23</property>
  <property name="kdenlive:docproperties.renderratio">1</property>
  <property name="kdenlive:docproperties.renderrescale">0</property>
  <property name="kdenlive:docproperties.renderrescaleheight">540</property>
  <property name="kdenlive:docproperties.renderrescalewidth">960</property>
  <property name="kdenlive:docproperties.renderscanning">0</property>
  <property name="kdenlive:docproperties.renderspeed">2</property>
  <property name="kdenlive:docproperties.renderstartguide">-1</property>
  <property name="kdenlive:docproperties.rendertcoverlay">0</property>
  <property name="kdenlive:docproperties.rendertctype">0</property>
  <property name="kdenlive:docproperties.rendertwopass">0</property>
  <property name="kdenlive:docproperties.renderurl">/home/boshua/Videos/video.mp4</property>
  <property name="kdenlive:docproperties.renderzone">0</property>
  <property name="kdenlive:docproperties.scrollPos">4401</property>
  <property name="kdenlive:docproperties.seekOffset">30000</property>
  <property name="kdenlive:docproperties.version">1</property>
  <property name="kdenlive:docproperties.verticalzoom">1</property>
  <property name="kdenlive:docproperties.videoTarget">2</property>
  <property name="kdenlive:docproperties.zonein">4867</property>
  <property name="kdenlive:docproperties.zoneout">4942</property>
  <property name="kdenlive:docproperties.zoom">6</property>
  <property name="kdenlive:expandedFolders">22;49</property>
  <property name="kdenlive:documentnotes"/>
  <property name="xml_retain">1</property>
  <entry producer="producer1" in="00:00:00.000" out="00:04:38.105"/>
  <entry producer="producer0" in="00:00:00.000" out="00:00:06.006"/>
  <entry producer="producer4" in="00:00:00.000" out="00:00:06.006"/>
  <entry producer="producer2" in="00:00:00.000" out="00:02:26.426"/>
  <entry producer="producer3" in="00:00:00.000" out="00:00:06.006"/>
  <entry producer="producer6" in="00:00:00.000" out="00:00:04.972"/>
  <entry producer="producer7" in="00:00:00.000" out="00:00:07.674"/>
  <entry producer="producer8" in="00:00:00.000" out="00:00:08.509"/>
  <entry producer="producer10" in="00:00:00.000" out="00:00:04.972"/>
  <entry producer="producer9" in="00:00:00.000" out="00:00:04.972"/>
  <entry producer="producer11" in="00:00:00.000" out="00:00:07.107"/>
  <entry producer="producer12" in="00:00:00.000" out="00:00:07.107"/>
  <entry producer="producer14" in="00:00:00.000" out="00:00:04.972"/>
  <entry producer="producer24" in="00:00:00.000" out="00:00:04.972"/>
  <entry producer="producer16" in="00:00:00.000" out="00:00:00.567"/>
  <entry producer="producer64" in="00:00:00.000" out="00:00:05.005"/>
  <entry producer="producer21" in="00:00:00.000" out="00:00:04.972"/>
  <entry producer="producer34" in="00:00:00.000" out="00:00:05.005"/>
  <entry producer="producer65" in="00:00:00.000" out="00:00:50.651"/>
  <entry producer="producer15" in="00:00:00.000" out="00:01:04.805"/>
  <entry producer="producer25" in="00:00:00.000" out="00:00:53.253"/>
  <entry producer="producer26" in="00:00:00.000" out="00:01:00.601"/>
  <entry producer="producer28" in="00:00:00.000" out="00:00:07.107"/>
  <entry producer="producer30" in="00:00:00.000" out="00:00:15.716"/>
  <entry producer="producer31" in="00:00:00.000" out="00:00:15.716"/>
  <entry producer="producer33" in="00:00:00.000" out="00:00:15.716"/>
  <entry producer="producer22" in="00:00:00.000" out="00:00:29.863"/>
  <entry producer="producer35" in="00:00:00.000" out="00:00:58.358"/>
  <entry producer="producer36" in="00:00:00.000" out="00:00:29.863"/>
  <entry producer="producer37" in="00:00:00.000" out="00:00:29.863"/>
  <entry producer="producer38" in="00:00:00.000" out="00:00:07.107"/>
  <entry producer="producer40" in="00:00:00.000" out="00:00:04.972"/>
  <entry producer="producer41" in="00:00:00.000" out="00:00:04.972"/>
  <entry producer="producer42" in="00:00:00.000" out="00:00:05.405"/>
  <entry producer="producer43" in="00:00:00.000" out="00:00:05.405"/>
  <entry producer="producer44" in="00:00:00.000" out="00:00:05.405"/>
  <entry producer="producer45" in="00:00:00.000" out="00:00:05.639"/>
  <entry producer="producer46" in="00:00:00.000" out="00:00:05.639"/>
  <entry producer="producer57" in="00:00:00.000" out="00:00:05.639"/>
  <entry producer="producer48" in="00:00:00.000" out="00:00:05.639"/>
  <entry producer="producer49" in="00:00:00.000" out="00:00:20.754"/>
  <entry producer="producer50" in="00:00:00.000" out="00:00:05.639"/>
  <entry producer="producer51" in="00:00:00.000" out="00:00:05.639"/>
  <entry producer="producer52" in="00:00:00.000" out="00:00:05.639"/>
  <entry producer="producer54" in="00:00:00.000" out="00:00:15.883"/>
  <entry producer="producer53" in="00:00:00.000" out="00:00:18.519"/>
  <entry producer="producer55" in="00:00:00.000" out="00:00:07.107"/>
  <entry producer="producer56" in="00:00:00.000" out="00:00:07.107"/>
  <entry producer="producer47" in="00:00:00.000" out="00:00:07.107"/>
  <entry producer="producer58" in="00:00:00.000" out="00:00:05.105"/>
  <entry producer="producer59" in="00:00:00.000" out="00:00:04.972"/>
  <entry producer="producer60" in="00:00:00.000" out="00:00:05.272"/>
  <entry producer="producer5" in="00:00:00.000" out="00:00:06.006"/>
  <entry producer="producer13" in="00:00:00.000" out="00:00:07.674"/>
  <entry producer="producer17" in="00:00:00.000" out="00:00:07.674"/>
  <entry producer="producer18" in="00:00:00.000" out="00:00:07.674"/>
  <entry producer="producer19" in="00:00:00.000" out="00:00:07.674"/>
  <entry producer="producer20" in="00:00:00.000" out="00:00:07.674"/>
  <entry producer="producer23" in="00:00:00.000" out="00:00:07.674"/>
  <entry producer="producer27" in="00:00:00.000" out="00:00:50.651"/>
  <entry producer="producer29" in="00:00:00.000" out="00:00:04.972"/>
  <entry producer="producer32" in="00:00:00.000" out="00:00:04.972"/>
  <entry producer="producer39" in="00:00:00.000" out="00:00:04.972"/>
  <entry producer="producer61" in="00:00:00.000" out="00:00:04.972"/>
  <entry producer="producer62" in="00:00:00.000" out="00:00:07.975"/>
  <entry producer="producer63" in="00:00:00.000" out="00:00:04.972"/>
  <entry producer="producer66" in="00:00:00.000" out="00:00:15.716"/>
  <entry producer="producer67" in="00:00:00.000" out="00:00:07.975"/>
  <entry producer="producer68" in="00:00:00.000" out="00:00:04.972"/>
 </playlist>
 <producer id="black_track" in="00:00:00.000" out="00:19:46.547">
  <property name="length">2147483647</property>
  <property name="eof">continue</property>
  <property name="resource">black</property>
  <property name="aspect_ratio">1</property>
  <property name="mlt_service">color</property>
  <property name="mlt_image_format">rgb24a</property>
  <property name="set.test_audio">0</property>
 </producer>
 <playlist id="playlist0">
  <property name="kdenlive:audio_track">1</property>
 </playlist>
 <playlist id="playlist1"/>
 <tractor id="tractor0" in="00:00:00.000">
  <property name="kdenlive:audio_track">1</property>
  <property name="kdenlive:trackheight">67</property>
  <property name="kdenlive:collapsed">0</property>
  <property name="kdenlive:thumbs_format"/>
  <property name="kdenlive:audio_rec"/>
  <property name="kdenlive:timeline_active">1</property>
  <track hide="video" producer="playlist0"/>
  <track hide="both" producer="playlist1"/>
  <filter id="filter1">
   <property name="window">75</property>
   <property name="max_gain">20dB</property>
   <property name="mlt_service">volume</property>
   <property name="internal_added">237</property>
   <property name="disable">1</property>
  </filter>
  <filter id="filter2">
   <property name="channel">-1</property>
   <property name="mlt_service">panner</property>
   <property name="internal_added">237</property>
   <property name="start">0.5</property>
   <property name="disable">1</property>
  </filter>
  <filter id="filter3">
   <property name="iec_scale">0</property>
   <property name="mlt_service">audiolevel</property>
   <property name="disable">1</property>
  </filter>
 </tractor>
 <producer id="producer69" in="00:00:00.000" out="00:04:38.105">
  <property name="length">8335</property>
  <property name="eof">pause</property>
  <property name="resource">audio/midnight_rendezvous.mp3</property>
  <property name="audio_index">0</property>
  <property name="video_index">-1</property>
  <property name="mute_on_pause">0</property>
  <property name="mlt_service">avformat-novalidate</property>
  <property name="meta.media.nb_streams">1</property>
  <property name="meta.media.0.stream.type">audio</property>
  <property name="meta.media.0.codec.sample_fmt">fltp</property>
  <property name="meta.media.0.codec.sample_rate">44100</property>
  <property name="meta.media.0.codec.channels">2</property>
  <property name="meta.media.0.codec.name">mp3float</property>
  <property name="meta.media.0.codec.long_name">MP3 (MPEG audio layer 3)</property>
  <property name="meta.media.0.codec.bit_rate">192000</property>
  <property name="meta.attr.0.stream.encoder.markup">Lavc57.64</property>
  <property name="meta.attr.major_brand.markup">dash</property>
  <property name="meta.attr.minor_version.markup">0</property>
  <property name="meta.attr.compatible_brands.markup">iso6mp41</property>
  <property name="meta.attr.encoder.markup">Lavf57.56.101</property>
  <property name="seekable">1</property>
  <property name="kdenlive:clipname"/>
  <property name="kdenlive:folderid">-1</property>
  <property name="kdenlive:id">2</property>
  <property name="kdenlive:file_size">6675154</property>
  <property name="kdenlive:file_hash">825e290e0e79dd74de4ec86b69164e82</property>
  <property name="global_feed">1</property>
  <property name="xml">was here</property>
  <property name="set.test_audio">0</property>
  <property name="set.test_image">1</property>
 </producer>
 <playlist id="playlist2">
  <property name="kdenlive:audio_track">1</property>
  <entry producer="producer69" in="00:00:02.936" out="00:03:00.167">
   <property name="kdenlive:id">2</property>
   <filter id="filter4">
    <property name="window">75</property>
    <property name="max_gain">20dB</property>
    <property name="level">00:00:02.936=2.85714;00:00:04.938=-9.14642</property>
    <property name="mlt_service">volume</property>
    <property name="kdenlive_id">volume</property>
    <property name="kdenlive:collapsed">0</property>
   </filter>
  </entry>
  <entry producer="producer69" in="00:04:30.364" out="00:04:38.105">
   <property name="kdenlive:id">2</property>
   <filter id="filter5">
    <property name="window">75</property>
    <property name="max_gain">20dB</property>
    <property name="level">00:04:30.364=-7.20562;00:04:30.397=-9.14642</property>
    <property name="mlt_service">volume</property>
    <property name="kdenlive_id">volume</property>
    <property name="kdenlive:collapsed">0</property>
   </filter>
  </entry>
 </playlist>
 <playlist id="playlist3"/>
 <tractor id="tractor1" in="00:00:00.000" out="00:03:05.005">
  <property name="kdenlive:audio_track">1</property>
  <property name="kdenlive:trackheight">67</property>
  <property name="kdenlive:collapsed">0</property>
  <property name="kdenlive:thumbs_format"/>
  <property name="kdenlive:audio_rec"/>
  <property name="kdenlive:timeline_active">1</property>
  <track hide="video" producer="playlist2"/>
  <track hide="both" producer="playlist3"/>
  <filter id="filter6">
   <property name="window">75</property>
   <property name="max_gain">20dB</property>
   <property name="level">-6.26692</property>
   <property name="mlt_service">volume</property>
   <property name="internal_added">237</property>
   <property name="disable">0</property>
  </filter>
  <filter id="filter7">
   <property name="channel">-1</property>
   <property name="mlt_service">panner</property>
   <property name="internal_added">237</property>
   <property name="start">0.5</property>
   <property name="disable">1</property>
  </filter>
  <filter id="filter8">
   <property name="iec_scale">0</property>
   <property name="mlt_service">audiolevel</property>
   <property name="disable">1</property>
  </filter>
 </tractor>
 <playlist id="playlist4">
  <blank length="00:00:03.704"/>
  <entry producer="producer2" in="00:00:00.000" out="00:00:17.251">
   <property name="kdenlive:id">7</property>
  </entry>
  <blank length="00:00:18.085"/>
  <entry producer="producer2" in="00:00:00.000" out="00:02:26.426">
   <property name="kdenlive:id">7</property>
  </entry>
 </playlist>
 <playlist id="playlist5"/>
 <tractor id="tractor2" in="00:00:00.000" out="00:03:05.506">
  <property name="kdenlive:trackheight">67</property>
  <property name="kdenlive:collapsed">0</property>
  <property name="kdenlive:thumbs_format"/>
  <property name="kdenlive:audio_rec"/>
  <property name="kdenlive:timeline_active">1</property>
  <track hide="audio" producer="playlist4"/>
  <track hide="both" producer="playlist5"/>
 </tractor>
 <playlist id="playlist6">
  <blank length="00:00:42.342"/>
  <entry producer="producer29" in="00:00:00.000" out="00:00:02.402">
   <property name="kdenlive:id">21</property>
  </entry>
  <entry producer="producer32" in="00:00:00.000" out="00:00:02.503">
   <property name="kdenlive:id">30</property>
  </entry>
  <entry producer="producer61" in="00:00:00.000" out="00:00:02.503">
   <property name="kdenlive:id">24</property>
  </entry>
  <entry producer="producer39" in="00:00:00.000" out="00:00:02.469">
   <property name="kdenlive:id">26</property>
  </entry>
  <blank length="00:00:03.170"/>
  <entry producer="producer65" in="00:00:00.000" out="00:00:14.281">
   <property name="kdenlive:id">31</property>
  </entry>
  <entry producer="producer27" in="00:00:00.000" out="00:00:04.972">
   <property name="kdenlive:id">35</property>
  </entry>
  <blank length="00:00:20.020"/>
  <entry producer="producer37" in="00:00:00.000" out="00:00:11.345">
   <property name="kdenlive:id">46</property>
  </entry>
  <entry producer="producer36" in="00:00:00.000" out="00:00:06.139">
   <property name="kdenlive:id">45</property>
  </entry>
  <blank length="00:00:33.133"/>
  <entry producer="producer51" in="00:00:00.000" out="00:00:02.803">
   <property name="kdenlive:id">61</property>
  </entry>
  <blank length="00:00:01.869"/>
  <entry producer="producer52" in="00:00:00.000" out="00:00:04.638">
   <property name="kdenlive:id">62</property>
  </entry>
  <blank length="00:00:02.369"/>
  <entry producer="producer49" in="00:00:00.000" out="00:00:12.513">
   <property name="kdenlive:id">59</property>
  </entry>
  <entry producer="producer38" in="00:00:00.000" out="00:00:01.635">
   <property name="kdenlive:id">47</property>
  </entry>
  <entry producer="producer56" in="00:00:00.000" out="00:00:00.834">
   <property name="kdenlive:id">66</property>
  </entry>
  <entry producer="producer47" in="00:00:00.000" out="00:00:01.301">
   <property name="kdenlive:id">67</property>
  </entry>
  <entry producer="producer55" in="00:00:00.000" out="00:00:03.437">
   <property name="kdenlive:id">65</property>
  </entry>
  <entry producer="producer59" in="00:00:00.000" out="00:00:02.503">
   <property name="kdenlive:id">69</property>
  </entry>
  <entry producer="producer60" in="00:00:00.000" out="00:00:02.169">
   <property name="kdenlive:id">70</property>
  </entry>
  <entry producer="producer58" in="00:00:00.000" out="00:00:03.570">
   <property name="kdenlive:id">68</property>
   <filter id="filter9" in="00:00:01.902" out="00:00:03.570">
    <property name="start">1</property>
    <property name="mlt_service">brightness</property>
    <property name="kdenlive_id">fade_to_black</property>
    <property name="end">0</property>
    <property name="alpha">-1</property>
   </filter>
  </entry>
 </playlist>
 <playlist id="playlist7"/>
 <tractor id="tractor3" in="00:00:00.000" out="00:03:05.506">
  <property name="kdenlive:trackheight">67</property>
  <property name="kdenlive:collapsed">0</property>
  <property name="kdenlive:track_name">v3</property>
  <property name="kdenlive:thumbs_format"/>
  <property name="kdenlive:audio_rec"/>
  <property name="kdenlive:timeline_active">1</property>
  <track hide="audio" producer="playlist6"/>
  <track hide="both" producer="playlist7"/>
 </tractor>
 <producer id="producer70" in="00:00:00.000" out="00:00:00.567">
  <property name="length">18</property>
  <property name="eof">pause</property>
  <property name="resource">animations/popups.gif</property>
  <property name="audio_index">-1</property>
  <property name="video_index">0</property>
  <property name="mute_on_pause">0</property>
  <property name="mlt_service">avformat-novalidate</property>
  <property name="seekable">1</property>
  <property name="aspect_ratio">1</property>
  <property name="kdenlive:clipname"/>
  <property name="kdenlive:duration">00:00:05.005</property>
  <property name="kdenlive:folderid">25</property>
  <property name="kdenlive:id">23</property>
  <property name="kdenlive:file_size">1116778</property>
  <property name="kdenlive:file_hash">9cf0f7a9a0a5cf8bf988de38134adb48</property>
  <property name="global_feed">1</property>
  <property name="kdenlive:activeeffect">0</property>
  <property name="xml">was here</property>
  <property name="meta.media.nb_streams">1</property>
  <property name="meta.media.0.stream.type">video</property>
  <property name="meta.media.0.stream.frame_rate">10</property>
  <property name="meta.media.0.stream.sample_aspect_ratio">0</property>
  <property name="meta.media.0.codec.width">920</property>
  <property name="meta.media.0.codec.height">2031</property>
  <property name="meta.media.0.codec.rotate">0</property>
  <property name="meta.media.0.codec.frame_rate">100</property>
  <property name="meta.media.0.codec.pix_fmt">bgra</property>
  <property name="meta.media.0.codec.sample_aspect_ratio">0</property>
  <property name="meta.media.0.codec.colorspace">709</property>
  <property name="meta.media.0.codec.name">gif</property>
  <property name="meta.media.0.codec.long_name">GIF (Graphics Interchange Format)</property>
  <property name="meta.media.0.codec.bit_rate">0</property>
  <property name="meta.attr.comment.markup">Created with GIMP</property>
  <property name="meta.media.sample_aspect_num">1</property>
  <property name="meta.media.sample_aspect_den">1</property>
  <property name="meta.media.frame_rate_num">10</property>
  <property name="meta.media.frame_rate_den">1</property>
  <property name="meta.media.colorspace">709</property>
  <property name="meta.media.color_trc">2</property>
  <property name="meta.media.width">920</property>
  <property name="meta.media.height">2031</property>
  <property name="meta.media.color_range">mpeg</property>
  <property name="set.test_audio">1</property>
  <property name="set.test_image">0</property>
  <property name="meta.media.top_field_first">0</property>
  <property name="meta.media.progressive">1</property>
  <filter id="filter10">
   <property name="rotate_center">1</property>
   <property name="mlt_service">qtblend</property>
   <property name="kdenlive_id">qtblend</property>
   <property name="rect">00:00:00.000=0 0 1920 1080 1</property>
   <property name="rotation">00:00:00.000=0</property>
   <property name="compositing">11</property>
   <property name="distort">0</property>
  </filter>
 </producer>
 <playlist id="playlist8">
  <blank length="00:00:01.935"/>
  <entry producer="producer0" in="00:00:00.000" out="00:00:01.735">
   <property name="kdenlive:id">3</property>
   <filter id="filter11" out="00:00:01.335">
    <property name="start">0</property>
    <property name="mlt_service">brightness</property>
    <property name="kdenlive_id">fade_from_black</property>
    <property name="end">1</property>
    <property name="alpha">1</property>
    <property name="kdenlive:collapsed">0</property>
   </filter>
  </entry>
  <entry producer="producer4" in="00:00:00.000" out="00:00:00.467">
   <property name="kdenlive:id">5</property>
  </entry>
  <entry producer="producer3" in="00:00:00.000" out="00:00:04.438">
   <property name="kdenlive:id">8</property>
  </entry>
  <entry producer="producer6" in="00:00:00.000" out="00:00:03.604">
   <property name="kdenlive:id">9</property>
  </entry>
  <entry producer="producer20" in="00:00:00.000" out="00:00:01.268">
   <property name="kdenlive:id">77</property>
  </entry>
  <entry producer="producer13" in="00:00:00.000" out="00:00:01.168">
   <property name="kdenlive:id">73</property>
  </entry>
  <entry producer="producer17" in="00:00:00.000" out="00:00:01.368">
   <property name="kdenlive:id">74</property>
  </entry>
  <entry producer="producer18" in="00:00:00.000" out="00:00:01.101">
   <property name="kdenlive:id">75</property>
  </entry>
  <entry producer="producer19" in="00:00:00.000" out="00:00:01.335">
   <property name="kdenlive:id">76</property>
  </entry>
  <entry producer="producer23" in="00:00:00.000" out="00:00:03.504">
   <property name="kdenlive:id">78</property>
  </entry>
  <entry producer="producer10" in="00:00:00.000" out="00:00:01.235">
   <property name="kdenlive:id">13</property>
  </entry>
  <entry producer="producer9" in="00:00:00.000" out="00:00:03.737">
   <property name="kdenlive:id">14</property>
  </entry>
  <entry producer="producer11" in="00:00:00.000" out="00:00:06.974">
   <property name="kdenlive:id">15</property>
  </entry>
  <entry producer="producer12" in="00:00:00.000" out="00:00:05.439">
   <property name="kdenlive:id">18</property>
  </entry>
  <entry producer="producer24" in="00:00:00.000" out="00:00:01.368">
   <property name="kdenlive:id">20</property>
  </entry>
  <entry producer="producer14" in="00:00:00.000" out="00:00:01.134">
   <property name="kdenlive:id">19</property>
  </entry>
  <entry producer="producer70" in="00:00:00.000" out="00:00:00.501">
   <property name="kdenlive:id">23</property>
   <filter id="filter12">
    <property name="rotate_center">1</property>
    <property name="mlt_service">qtblend</property>
    <property name="kdenlive_id">qtblend</property>
    <property name="rect">00:00:00.000=1650 0 250 700 1.000000</property>
    <property name="rotation">00:00:00.000=0</property>
    <property name="compositing">0</property>
    <property name="distort">0</property>
    <property name="kdenlive:collapsed">0</property>
   </filter>
  </entry>
  <entry producer="producer70" in="00:00:00.000" out="00:00:00.501">
   <property name="kdenlive:id">23</property>
   <filter id="filter13">
    <property name="rotate_center">1</property>
    <property name="mlt_service">qtblend</property>
    <property name="kdenlive_id">qtblend</property>
    <property name="rect">00:00:00.000=1650 0 250 700 1.000000</property>
    <property name="rotation">00:00:00.000=0</property>
    <property name="compositing">0</property>
    <property name="distort">0</property>
    <property name="kdenlive:collapsed">0</property>
   </filter>
  </entry>
  <entry producer="producer70" in="00:00:00.000" out="00:00:00.501">
   <property name="kdenlive:id">23</property>
   <filter id="filter14">
    <property name="rotate_center">1</property>
    <property name="mlt_service">qtblend</property>
    <property name="kdenlive_id">qtblend</property>
    <property name="rect">00:00:00.000=1650 0 250 700 1.000000</property>
    <property name="rotation">00:00:00.000=0</property>
    <property name="compositing">0</property>
    <property name="distort">0</property>
    <property name="kdenlive:collapsed">0</property>
   </filter>
  </entry>
  <entry producer="producer70" in="00:00:00.000" out="00:00:00.501">
   <property name="kdenlive:id">23</property>
   <filter id="filter15">
    <property name="rotate_center">1</property>
    <property name="mlt_service">qtblend</property>
    <property name="kdenlive_id">qtblend</property>
    <property name="rect">00:00:00.000=1650 0 250 700 1.000000</property>
    <property name="rotation">00:00:00.000=0</property>
    <property name="compositing">0</property>
    <property name="distort">0</property>
    <property name="kdenlive:collapsed">0</property>
   </filter>
  </entry>
  <entry producer="producer70" in="00:00:00.000" out="00:00:00.501">
   <property name="kdenlive:id">23</property>
   <filter id="filter16">
    <property name="rotate_center">1</property>
    <property name="mlt_service">qtblend</property>
    <property name="kdenlive_id">qtblend</property>
    <property name="rect">00:00:00.000=1650 0 250 700 1.000000</property>
    <property name="rotation">00:00:00.000=0</property>
    <property name="compositing">0</property>
    <property name="distort">0</property>
    <property name="kdenlive:collapsed">0</property>
   </filter>
  </entry>
  <entry producer="producer70" in="00:00:00.000" out="00:00:00.501">
   <property name="kdenlive:id">23</property>
   <filter id="filter17">
    <property name="rotate_center">1</property>
    <property name="mlt_service">qtblend</property>
    <property name="kdenlive_id">qtblend</property>
    <property name="rect">00:00:00.000=1650 0 250 700 1.000000</property>
    <property name="rotation">00:00:00.000=0</property>
    <property name="compositing">0</property>
    <property name="distort">0</property>
    <property name="kdenlive:collapsed">0</property>
   </filter>
  </entry>
  <entry producer="producer70" in="00:00:00.000" out="00:00:00.501">
   <property name="kdenlive:id">23</property>
   <filter id="filter18">
    <property name="rotate_center">1</property>
    <property name="mlt_service">qtblend</property>
    <property name="kdenlive_id">qtblend</property>
    <property name="rect">00:00:00.000=1650 0 250 700 1.000000</property>
    <property name="rotation">00:00:00.000=0</property>
    <property name="compositing">0</property>
    <property name="distort">0</property>
    <property name="kdenlive:collapsed">0</property>
   </filter>
  </entry>
  <entry producer="producer70" in="00:00:00.000" out="00:00:00.501">
   <property name="kdenlive:id">23</property>
   <filter id="filter19">
    <property name="rotate_center">1</property>
    <property name="mlt_service">qtblend</property>
    <property name="kdenlive_id">qtblend</property>
    <property name="rect">00:00:00.000=1650 0 250 700 1.000000</property>
    <property name="rotation">00:00:00.000=0</property>
    <property name="compositing">0</property>
    <property name="distort">0</property>
    <property name="kdenlive:collapsed">0</property>
   </filter>
  </entry>
  <entry producer="producer70" in="00:00:00.000" out="00:00:00.501">
   <property name="kdenlive:id">23</property>
   <filter id="filter20">
    <property name="rotate_center">1</property>
    <property name="mlt_service">qtblend</property>
    <property name="kdenlive_id">qtblend</property>
    <property name="rect">00:00:00.000=1650 0 250 700 1.000000</property>
    <property name="rotation">00:00:00.000=0</property>
    <property name="compositing">0</property>
    <property name="distort">0</property>
    <property name="kdenlive:collapsed">0</property>
   </filter>
  </entry>
  <entry producer="producer70" in="00:00:00.000" out="00:00:00.501">
   <property name="kdenlive:id">23</property>
   <filter id="filter21">
    <property name="rotate_center">1</property>
    <property name="mlt_service">qtblend</property>
    <property name="kdenlive_id">qtblend</property>
    <property name="rect">00:00:00.000=1650 0 250 700 1.000000</property>
    <property name="rotation">00:00:00.000=0</property>
    <property name="compositing">0</property>
    <property name="distort">0</property>
    <property name="kdenlive:collapsed">0</property>
   </filter>
  </entry>
  <entry producer="producer70" in="00:00:00.000" out="00:00:00.501">
   <property name="kdenlive:id">23</property>
   <filter id="filter22">
    <property name="rotate_center">1</property>
    <property name="mlt_service">qtblend</property>
    <property name="kdenlive_id">qtblend</property>
    <property name="rect">00:00:00.000=1650 0 250 700 1.000000</property>
    <property name="rotation">00:00:00.000=0</property>
    <property name="compositing">0</property>
    <property name="distort">0</property>
    <property name="kdenlive:collapsed">0</property>
   </filter>
  </entry>
  <entry producer="producer70" in="00:00:00.000" out="00:00:00.467">
   <property name="kdenlive:id">23</property>
   <filter id="filter23">
    <property name="rotate_center">1</property>
    <property name="mlt_service">qtblend</property>
    <property name="kdenlive_id">qtblend</property>
    <property name="rect">00:00:00.000=1650 0 250 700 1.000000</property>
    <property name="rotation">00:00:00.000=0</property>
    <property name="compositing">0</property>
    <property name="distort">0</property>
    <property name="kdenlive:collapsed">0</property>
   </filter>
  </entry>
  <entry producer="producer70" in="00:00:00.000" out="00:00:00.501">
   <property name="kdenlive:id">23</property>
   <filter id="filter24">
    <property name="rotate_center">1</property>
    <property name="mlt_service">qtblend</property>
    <property name="kdenlive_id">qtblend</property>
    <property name="rect">00:00:00.000=1650 0 250 700 1.000000</property>
    <property name="rotation">00:00:00.000=0</property>
    <property name="compositing">0</property>
    <property name="distort">0</property>
    <property name="kdenlive:collapsed">0</property>
   </filter>
  </entry>
  <entry producer="producer70" in="00:00:00.000" out="00:00:00.501">
   <property name="kdenlive:id">23</property>
   <filter id="filter25">
    <property name="rotate_center">1</property>
    <property name="mlt_service">qtblend</property>
    <property name="kdenlive_id">qtblend</property>
    <property name="rect">00:00:00.000=1650 0 250 700 1.000000</property>
    <property name="rotation">00:00:00.000=0</property>
    <property name="compositing">0</property>
    <property name="distort">0</property>
    <property name="kdenlive:collapsed">0</property>
   </filter>
  </entry>
  <entry producer="producer70" in="00:00:00.000" out="00:00:00.501">
   <property name="kdenlive:id">23</property>
   <filter id="filter26">
    <property name="rotate_center">1</property>
    <property name="mlt_service">qtblend</property>
    <property name="kdenlive_id">qtblend</property>
    <property name="rect">00:00:00.000=1650 0 250 700 1.000000</property>
    <property name="rotation">00:00:00.000=0</property>
    <property name="compositing">0</property>
    <property name="distort">0</property>
    <property name="kdenlive:collapsed">0</property>
   </filter>
  </entry>
  <entry producer="producer70" in="00:00:00.000" out="00:00:00.501">
   <property name="kdenlive:id">23</property>
   <filter id="filter27">
    <property name="rotate_center">1</property>
    <property name="mlt_service">qtblend</property>
    <property name="kdenlive_id">qtblend</property>
    <property name="rect">00:00:00.000=1650 0 250 700 1.000000</property>
    <property name="rotation">00:00:00.000=0</property>
    <property name="compositing">0</property>
    <property name="distort">0</property>
    <property name="kdenlive:collapsed">0</property>
   </filter>
  </entry>
  <entry producer="producer70" in="00:00:00.000" out="00:00:00.501">
   <property name="kdenlive:id">23</property>
   <filter id="filter28">
    <property name="rotate_center">1</property>
    <property name="mlt_service">qtblend</property>
    <property name="kdenlive_id">qtblend</property>
    <property name="rect">00:00:00.000=1650 0 250 700 1.000000</property>
    <property name="rotation">00:00:00.000=0</property>
    <property name="compositing">0</property>
    <property name="distort">0</property>
    <property name="kdenlive:collapsed">0</property>
   </filter>
  </entry>
  <entry producer="producer70" in="00:00:00.000" out="00:00:00.501">
   <property name="kdenlive:id">23</property>
   <filter id="filter29">
    <property name="rotate_center">1</property>
    <property name="mlt_service">qtblend</property>
    <property name="kdenlive_id">qtblend</property>
    <property name="rect">00:00:00.000=1650 0 250 700 1.000000</property>
    <property name="rotation">00:00:00.000=0</property>
    <property name="compositing">0</property>
    <property name="distort">0</property>
    <property name="kdenlive:collapsed">0</property>
   </filter>
  </entry>
  <entry producer="producer70" in="00:00:00.000" out="00:00:00.400">
   <property name="kdenlive:id">23</property>
   <filter id="filter30">
    <property name="rotate_center">1</property>
    <property name="mlt_service">qtblend</property>
    <property name="kdenlive_id">qtblend</property>
    <property name="rect">00:00:00.000=1650 0 250 700 1.000000</property>
    <property name="rotation">00:00:00.000=0</property>
    <property name="compositing">0</property>
    <property name="distort">0</property>
    <property name="kdenlive:collapsed">0</property>
   </filter>
  </entry>
  <entry producer="producer21" in="00:00:00.000" out="00:00:01.502">
   <property name="kdenlive:id">28</property>
  </entry>
  <entry producer="producer34" in="00:00:00.000" out="00:00:01.668">
   <property name="kdenlive:id">29</property>
  </entry>
  <blank length="00:00:01.735"/>
  <entry producer="producer26" in="00:00:00.000" out="00:00:17.484">
   <property name="kdenlive:id">34</property>
   <filter id="filter31">
    <property name="rotate_center">1</property>
    <property name="mlt_service">qtblend</property>
    <property name="kdenlive_id">qtblend</property>
    <property name="rect">00:00:00.000=6 244 1690 951 1.000000;00:00:09.977=6 244 1690 951 1.000000;00:00:12.513=733 244 1690 951 1.000000;00:00:17.384=733 244 1690 951 1.000000</property>
    <property name="rotation">00:00:00.000=0;00:00:09.977=0;00:00:12.513=0;00:00:17.384=0</property>
    <property name="compositing">0</property>
    <property name="distort">0</property>
    <property name="kdenlive:collapsed">0</property>
   </filter>
  </entry>
  <entry producer="producer11" in="00:00:00.000" out="00:00:02.503">
   <property name="kdenlive:id">15</property>
  </entry>
  <entry producer="producer62" in="00:00:00.000" out="00:00:04.972">
   <property name="kdenlive:id">79</property>
  </entry>
  <entry producer="producer63" in="00:00:00.000" out="00:00:02.302">
   <property name="kdenlive:id">36</property>
  </entry>
  <entry producer="producer30" in="00:00:00.000" out="00:00:01.134">
   <property name="kdenlive:id">38</property>
  </entry>
  <entry producer="producer66" in="00:00:00.000" out="00:00:04.004">
   <property name="kdenlive:id">39</property>
  </entry>
  <entry producer="producer31" in="00:00:00.000" out="00:00:01.201">
   <property name="kdenlive:id">40</property>
  </entry>
  <entry producer="producer33" in="00:00:00.000" out="00:00:01.268">
   <property name="kdenlive:id">41</property>
  </entry>
  <entry producer="producer22" in="00:00:00.000" out="00:00:02.369">
   <property name="kdenlive:id">42</property>
  </entry>
  <entry producer="producer26" in="00:00:00.000" out="00:00:17.518">
   <property name="kdenlive:id">34</property>
   <property name="kdenlive:activeeffect">0</property>
   <filter id="filter33">
    <property name="rotate_center">1</property>
    <property name="mlt_service">qtblend</property>
    <property name="kdenlive_id">qtblend</property>
    <property name="rect">00:00:00.000=6 244 1690 951 1.000000;00:00:10.210=6 244 1690 951 1.000000;00:00:11.345=790 244 1690 951 1.000000;00:00:17.184=790 244 1690 951 1.000000</property>
    <property name="rotation">00:00:00.000=0;00:00:10.210=0;00:00:11.345=0;00:00:17.184=0</property>
    <property name="compositing">0</property>
    <property name="distort">0</property>
    <property name="kdenlive:collapsed">0</property>
   </filter>
  </entry>
  <entry producer="producer62" in="00:00:00.000" out="00:00:01.902">
   <property name="kdenlive:id">79</property>
  </entry>
  <entry producer="producer67" in="00:00:00.000" out="00:00:02.769">
   <property name="kdenlive:id">80</property>
  </entry>
  <entry producer="producer68" in="00:00:00.000" out="00:00:02.503">
   <property name="kdenlive:id">48</property>
  </entry>
  <entry producer="producer40" in="00:00:00.000" out="00:00:00.934">
   <property name="kdenlive:id">50</property>
  </entry>
  <entry producer="producer41" in="00:00:00.000" out="00:00:01.602">
   <property name="kdenlive:id">51</property>
  </entry>
  <entry producer="producer42" in="00:00:00.000" out="00:00:02.636">
   <property name="kdenlive:id">52</property>
  </entry>
  <entry producer="producer43" in="00:00:00.000" out="00:00:02.302">
   <property name="kdenlive:id">53</property>
  </entry>
  <entry producer="producer45" in="00:00:00.000" out="00:00:03.003">
   <property name="kdenlive:id">55</property>
  </entry>
  <entry producer="producer46" in="00:00:00.000" out="00:00:00.968">
   <property name="kdenlive:id">56</property>
  </entry>
  <entry producer="producer57" in="00:00:00.000" out="00:00:00.968">
   <property name="kdenlive:id">57</property>
  </entry>
  <entry producer="producer48" in="00:00:00.000" out="00:00:01.268">
   <property name="kdenlive:id">58</property>
  </entry>
  <entry producer="producer49" in="00:00:00.000" out="00:00:01.235">
   <property name="kdenlive:id">59</property>
  </entry>
  <entry producer="producer50" in="00:00:00.000" out="00:00:03.637">
   <property name="kdenlive:id">60</property>
  </entry>
  <blank length="00:00:18.719"/>
  <entry producer="producer26" in="00:00:00.000" out="00:00:12.513">
   <property name="kdenlive:id">34</property>
   <filter id="filter34">
    <property name="rotate_center">1</property>
    <property name="mlt_service">qtblend</property>
    <property name="kdenlive_id">qtblend</property>
    <property name="rect">00:00:00.000=-478 245 1689 950 1.000000</property>
    <property name="rotation">00:00:00.000=0</property>
    <property name="compositing">0</property>
    <property name="distort">0</property>
    <property name="kdenlive:collapsed">0</property>
   </filter>
  </entry>
 </playlist>
 <playlist id="playlist9"/>
 <tractor id="tractor4" in="00:00:00.000" out="00:02:49.816">
  <property name="kdenlive:trackheight">67</property>
  <property name="kdenlive:collapsed">0</property>
  <property name="kdenlive:thumbs_format"/>
  <property name="kdenlive:audio_rec"/>
  <property name="kdenlive:timeline_active">1</property>
  <track hide="audio" producer="playlist8"/>
  <track hide="both" producer="playlist9"/>
 </tractor>
 <producer id="producer71" in="00:00:00.000" out="00:00:26.627">
  <property name="length">799</property>
  <property name="eof">pause</property>
  <property name="resource">2.000000:mobile_login_and_create.mp4</property>
  <property name="aspect_ratio">1</property>
  <property name="meta.media.nb_streams">1</property>
  <property name="meta.media.0.stream.type">video</property>
  <property name="meta.media.0.stream.frame_rate">30.0188</property>
  <property name="meta.media.0.stream.sample_aspect_ratio">1</property>
  <property name="meta.media.0.codec.width">340</property>
  <property name="meta.media.0.codec.height">602</property>
  <property name="meta.media.0.codec.rotate">0</property>
  <property name="meta.media.0.codec.frame_rate">30</property>
  <property name="meta.media.0.codec.pix_fmt">yuv420p</property>
  <property name="meta.media.0.codec.sample_aspect_ratio">1</property>
  <property name="meta.media.0.codec.colorspace">709</property>
  <property name="meta.media.0.codec.color_trc">1</property>
  <property name="meta.media.0.codec.name">h264</property>
  <property name="meta.media.0.codec.long_name">H.264 / AVC / MPEG-4 AVC / MPEG-4 part 10</property>
  <property name="meta.media.0.codec.bit_rate">33107</property>
  <property name="meta.attr.0.stream.handler_name.markup">VideoHandler</property>
  <property name="meta.attr.major_brand.markup">isom</property>
  <property name="meta.attr.minor_version.markup">512</property>
  <property name="meta.attr.compatible_brands.markup">isomiso2avc1mp41</property>
  <property name="meta.attr.encoder.markup">Lavf58.45.100</property>
  <property name="seekable">1</property>
  <property name="meta.media.sample_aspect_num">1</property>
  <property name="meta.media.sample_aspect_den">1</property>
  <property name="audio_index">-1</property>
  <property name="video_index">0</property>
  <property name="mute_on_pause">1</property>
  <property name="warp_speed">2</property>
  <property name="warp_resource">mobile_login_and_create.mp4</property>
  <property name="mlt_service">timewarp</property>
  <property name="set.test_audio">1</property>
  <property name="set.test_image">0</property>
  <property name="kdenlive:id">33</property>
  <property name="warp_pitch">0</property>
  <property name="meta.media.frame_rate_num">16000</property>
  <property name="meta.media.frame_rate_den">533</property>
  <property name="meta.media.colorspace">709</property>
  <property name="meta.media.color_trc">1</property>
  <property name="meta.media.width">340</property>
  <property name="meta.media.height">602</property>
  <property name="meta.media.color_range">mpeg</property>
  <property name="meta.media.top_field_first">0</property>
  <property name="meta.media.progressive">1</property>
 </producer>
 <producer id="producer72" in="00:00:00.000" out="02:57:37.304">
  <property name="length">319400</property>
  <property name="eof">pause</property>
  <property name="resource">0.005000:mobile_login_and_create.mp4</property>
  <property name="aspect_ratio">1</property>
  <property name="meta.media.nb_streams">1</property>
  <property name="meta.media.0.stream.type">video</property>
  <property name="meta.media.0.stream.frame_rate">30.0188</property>
  <property name="meta.media.0.stream.sample_aspect_ratio">1</property>
  <property name="meta.media.0.codec.width">340</property>
  <property name="meta.media.0.codec.height">602</property>
  <property name="meta.media.0.codec.rotate">0</property>
  <property name="meta.media.0.codec.frame_rate">30</property>
  <property name="meta.media.0.codec.pix_fmt">yuv420p</property>
  <property name="meta.media.0.codec.sample_aspect_ratio">1</property>
  <property name="meta.media.0.codec.colorspace">709</property>
  <property name="meta.media.0.codec.color_trc">1</property>
  <property name="meta.media.0.codec.name">h264</property>
  <property name="meta.media.0.codec.long_name">H.264 / AVC / MPEG-4 AVC / MPEG-4 part 10</property>
  <property name="meta.media.0.codec.bit_rate">33107</property>
  <property name="meta.attr.0.stream.handler_name.markup">VideoHandler</property>
  <property name="meta.attr.major_brand.markup">isom</property>
  <property name="meta.attr.minor_version.markup">512</property>
  <property name="meta.attr.compatible_brands.markup">isomiso2avc1mp41</property>
  <property name="meta.attr.encoder.markup">Lavf58.45.100</property>
  <property name="seekable">1</property>
  <property name="meta.media.sample_aspect_num">1</property>
  <property name="meta.media.sample_aspect_den">1</property>
  <property name="audio_index">-1</property>
  <property name="video_index">0</property>
  <property name="mute_on_pause">1</property>
  <property name="warp_speed">0.005</property>
  <property name="warp_resource">mobile_login_and_create.mp4</property>
  <property name="mlt_service">timewarp</property>
  <property name="set.test_audio">1</property>
  <property name="set.test_image">0</property>
  <property name="kdenlive:id">33</property>
  <property name="warp_pitch">0</property>
  <property name="meta.media.frame_rate_num">16000</property>
  <property name="meta.media.frame_rate_den">533</property>
  <property name="meta.media.colorspace">709</property>
  <property name="meta.media.color_trc">1</property>
  <property name="meta.media.width">340</property>
  <property name="meta.media.height">602</property>
  <property name="meta.media.color_range">mpeg</property>
  <property name="meta.media.top_field_first">0</property>
  <property name="meta.media.progressive">1</property>
 </producer>
 <producer id="producer73" in="00:00:00.000" out="00:00:23.323">
  <property name="length">700</property>
  <property name="eof">pause</property>
  <property name="resource">2.500000:mobile_create_journal.mp4</property>
  <property name="aspect_ratio">1</property>
  <property name="meta.media.nb_streams">1</property>
  <property name="meta.media.0.stream.type">video</property>
  <property name="meta.media.0.stream.frame_rate">30.0171</property>
  <property name="meta.media.0.stream.sample_aspect_ratio">1</property>
  <property name="meta.media.0.codec.width">356</property>
  <property name="meta.media.0.codec.height">638</property>
  <property name="meta.media.0.codec.rotate">0</property>
  <property name="meta.media.0.codec.frame_rate">30</property>
  <property name="meta.media.0.codec.pix_fmt">yuv420p</property>
  <property name="meta.media.0.codec.sample_aspect_ratio">1</property>
  <property name="meta.media.0.codec.colorspace">709</property>
  <property name="meta.media.0.codec.color_trc">1</property>
  <property name="meta.media.0.codec.name">h264</property>
  <property name="meta.media.0.codec.long_name">H.264 / AVC / MPEG-4 AVC / MPEG-4 part 10</property>
  <property name="meta.media.0.codec.bit_rate">52757</property>
  <property name="meta.attr.0.stream.handler_name.markup">VideoHandler</property>
  <property name="meta.attr.major_brand.markup">isom</property>
  <property name="meta.attr.minor_version.markup">512</property>
  <property name="meta.attr.compatible_brands.markup">isomiso2avc1mp41</property>
  <property name="meta.attr.encoder.markup">Lavf58.45.100</property>
  <property name="seekable">1</property>
  <property name="meta.media.sample_aspect_num">1</property>
  <property name="meta.media.sample_aspect_den">1</property>
  <property name="audio_index">-1</property>
  <property name="video_index">0</property>
  <property name="mute_on_pause">1</property>
  <property name="warp_speed">2.5</property>
  <property name="warp_resource">mobile_create_journal.mp4</property>
  <property name="mlt_service">timewarp</property>
  <property name="set.test_audio">1</property>
  <property name="set.test_image">0</property>
  <property name="warp_pitch">0</property>
  <property name="meta.media.frame_rate_num">8765</property>
  <property name="meta.media.frame_rate_den">292</property>
  <property name="meta.media.colorspace">709</property>
  <property name="meta.media.color_trc">1</property>
  <property name="meta.media.width">356</property>
  <property name="meta.media.height">638</property>
  <property name="meta.media.color_range">mpeg</property>
  <property name="meta.media.top_field_first">0</property>
  <property name="meta.media.progressive">1</property>
  <property name="kdenlive:id">43</property>
 </producer>
 <producer id="producer74" in="00:00:00.000" out="00:00:07.908">
  <property name="length">239</property>
  <property name="eof">pause</property>
  <property name="resource">2.000000:mobile_create_newnote.mp4</property>
  <property name="aspect_ratio">1</property>
  <property name="meta.media.nb_streams">1</property>
  <property name="meta.media.0.stream.type">video</property>
  <property name="meta.media.0.stream.frame_rate">30.0629</property>
  <property name="meta.media.0.stream.sample_aspect_ratio">1</property>
  <property name="meta.media.0.codec.width">362</property>
  <property name="meta.media.0.codec.height">640</property>
  <property name="meta.media.0.codec.rotate">0</property>
  <property name="meta.media.0.codec.frame_rate">30</property>
  <property name="meta.media.0.codec.pix_fmt">yuv420p</property>
  <property name="meta.media.0.codec.sample_aspect_ratio">1</property>
  <property name="meta.media.0.codec.colorspace">709</property>
  <property name="meta.media.0.codec.color_trc">1</property>
  <property name="meta.media.0.codec.name">h264</property>
  <property name="meta.media.0.codec.long_name">H.264 / AVC / MPEG-4 AVC / MPEG-4 part 10</property>
  <property name="meta.media.0.codec.bit_rate">44195</property>
  <property name="meta.attr.0.stream.handler_name.markup">VideoHandler</property>
  <property name="meta.attr.major_brand.markup">isom</property>
  <property name="meta.attr.minor_version.markup">512</property>
  <property name="meta.attr.compatible_brands.markup">isomiso2avc1mp41</property>
  <property name="meta.attr.encoder.markup">Lavf58.45.100</property>
  <property name="seekable">1</property>
  <property name="meta.media.sample_aspect_num">1</property>
  <property name="meta.media.sample_aspect_den">1</property>
  <property name="audio_index">-1</property>
  <property name="video_index">0</property>
  <property name="mute_on_pause">1</property>
  <property name="warp_speed">2</property>
  <property name="warp_resource">mobile_create_newnote.mp4</property>
  <property name="mlt_service">timewarp</property>
  <property name="set.test_audio">1</property>
  <property name="set.test_image">0</property>
  <property name="kdenlive:id">63</property>
  <property name="warp_pitch">0</property>
  <property name="meta.media.frame_rate_num">4780</property>
  <property name="meta.media.frame_rate_den">159</property>
  <property name="meta.media.colorspace">709</property>
  <property name="meta.media.color_trc">1</property>
  <property name="meta.media.width">362</property>
  <property name="meta.media.height">640</property>
  <property name="meta.media.color_range">mpeg</property>
  <property name="meta.media.top_field_first">0</property>
  <property name="meta.media.progressive">1</property>
 </producer>
 <producer id="producer75" in="00:00:00.000" out="00:26:29.963">
  <property name="length">47700</property>
  <property name="eof">pause</property>
  <property name="resource">0.010000:mobile_create_newnote.mp4</property>
  <property name="aspect_ratio">1</property>
  <property name="meta.media.nb_streams">1</property>
  <property name="meta.media.0.stream.type">video</property>
  <property name="meta.media.0.stream.frame_rate">30.0629</property>
  <property name="meta.media.0.stream.sample_aspect_ratio">1</property>
  <property name="meta.media.0.codec.width">362</property>
  <property name="meta.media.0.codec.height">640</property>
  <property name="meta.media.0.codec.rotate">0</property>
  <property name="meta.media.0.codec.frame_rate">30</property>
  <property name="meta.media.0.codec.pix_fmt">yuv420p</property>
  <property name="meta.media.0.codec.sample_aspect_ratio">1</property>
  <property name="meta.media.0.codec.colorspace">709</property>
  <property name="meta.media.0.codec.color_trc">1</property>
  <property name="meta.media.0.codec.name">h264</property>
  <property name="meta.media.0.codec.long_name">H.264 / AVC / MPEG-4 AVC / MPEG-4 part 10</property>
  <property name="meta.media.0.codec.bit_rate">44195</property>
  <property name="meta.attr.0.stream.handler_name.markup">VideoHandler</property>
  <property name="meta.attr.major_brand.markup">isom</property>
  <property name="meta.attr.minor_version.markup">512</property>
  <property name="meta.attr.compatible_brands.markup">isomiso2avc1mp41</property>
  <property name="meta.attr.encoder.markup">Lavf58.45.100</property>
  <property name="seekable">1</property>
  <property name="meta.media.sample_aspect_num">1</property>
  <property name="meta.media.sample_aspect_den">1</property>
  <property name="audio_index">-1</property>
  <property name="video_index">0</property>
  <property name="mute_on_pause">1</property>
  <property name="warp_speed">0.01</property>
  <property name="warp_resource">mobile_create_newnote.mp4</property>
  <property name="mlt_service">timewarp</property>
  <property name="set.test_audio">1</property>
  <property name="set.test_image">0</property>
  <property name="kdenlive:id">63</property>
  <property name="warp_pitch">0</property>
  <property name="meta.media.frame_rate_num">4780</property>
  <property name="meta.media.frame_rate_den">159</property>
  <property name="meta.media.colorspace">709</property>
  <property name="meta.media.color_trc">1</property>
  <property name="meta.media.width">362</property>
  <property name="meta.media.height">640</property>
  <property name="meta.media.color_range">mpeg</property>
  <property name="meta.media.top_field_first">0</property>
  <property name="meta.media.progressive">1</property>
 </producer>
 <playlist id="playlist10">
  <blank length="00:00:57.324"/>
  <entry producer="producer71" in="00:00:03.203" out="00:00:16.950">
   <property name="kdenlive:id">33</property>
   <filter id="filter32">
    <property name="rotate_center">1</property>
    <property name="mlt_service">qtblend</property>
    <property name="kdenlive_id">qtblend</property>
    <property name="rect">00:00:03.203=196 293 1305 734 1.000000;00:00:13.180=196 291 1311 737 1.000000;00:00:15.716=920 291 1313 738 1.000000;00:00:16.950=920 291 1313 738 1.000000</property>
    <property name="rotation">00:00:03.203=0;00:00:13.180=0;00:00:15.716=0;00:00:16.950=0</property>
    <property name="compositing">0</property>
    <property name="distort">0</property>
    <property name="kdenlive:collapsed">0</property>
   </filter>
  </entry>
  <entry producer="producer72" in="01:53:13.080" out="01:53:16.783">
   <property name="kdenlive:id">33</property>
   <filter id="filter35">
    <property name="rotate_center">1</property>
    <property name="mlt_service">qtblend</property>
    <property name="kdenlive_id">qtblend</property>
    <property name="rect">01:53:13.080=920 291 1316 740 1.000000</property>
    <property name="rotation">01:53:13.080=0</property>
    <property name="compositing">0</property>
    <property name="distort">0</property>
    <property name="kdenlive:collapsed">0</property>
   </filter>
  </entry>
  <blank length="00:00:20.020"/>
  <entry producer="producer73" in="00:00:01.235" out="00:00:18.752">
   <property name="kdenlive:id">43</property>
   <property name="kdenlive:activeeffect">0</property>
   <filter id="filter37">
    <property name="rotate_center">1</property>
    <property name="mlt_service">qtblend</property>
    <property name="kdenlive_id">qtblend</property>
    <property name="rect">00:00:01.235=183 288 1332 749 1.000000;00:00:11.445=196 295 1305 734 1.000000;00:00:12.579=970 288 1332 749 1.000000;00:00:18.418=970 288 1332 749 1.000000</property>
    <property name="rotation">00:00:01.235=0;00:00:11.445=0;00:00:12.579=0;00:00:18.418=0</property>
    <property name="compositing">0</property>
    <property name="distort">0</property>
    <property name="kdenlive:collapsed">0</property>
   </filter>
  </entry>
  <blank length="00:00:44.878"/>
  <entry producer="producer74" in="00:00:01.301" out="00:00:06.340">
   <property name="kdenlive:id">63</property>
   <filter id="filter38">
    <property name="rotate_center">1</property>
    <property name="mlt_service">qtblend</property>
    <property name="kdenlive_id">qtblend</property>
    <property name="rect">00:00:01.301=-287 295 1305 734 1.000000</property>
    <property name="rotation">00:00:01.301=0</property>
    <property name="compositing">0</property>
    <property name="distort">0</property>
    <property name="kdenlive:collapsed">0</property>
   </filter>
   <filter id="filter39">
    <property name="mlt_service">crop</property>
    <property name="kdenlive_id">crop</property>
    <property name="top">0</property>
    <property name="left">2</property>
    <property name="bottom">0</property>
    <property name="right">0</property>
    <property name="center">0</property>
    <property name="center_bias">0</property>
    <property name="use_profile">0</property>
    <property name="kdenlive:collapsed">0</property>
   </filter>
  </entry>
  <entry producer="producer75" in="00:20:41.308" out="00:20:48.749">
   <property name="kdenlive:id">63</property>
   <filter id="filter40">
    <property name="rotate_center">1</property>
    <property name="mlt_service">qtblend</property>
    <property name="kdenlive_id">qtblend</property>
    <property name="rect">00:20:41.308=-287 295 1305 734 1.000000</property>
    <property name="rotation">00:20:41.308=0</property>
    <property name="compositing">0</property>
    <property name="distort">0</property>
    <property name="kdenlive:collapsed">0</property>
   </filter>
   <filter id="filter41">
    <property name="mlt_service">crop</property>
    <property name="kdenlive_id">crop</property>
    <property name="top">0</property>
    <property name="left">2</property>
    <property name="bottom">0</property>
    <property name="right">0</property>
    <property name="center">0</property>
    <property name="center_bias">0</property>
    <property name="use_profile">0</property>
    <property name="kdenlive:collapsed">0</property>
   </filter>
  </entry>
 </playlist>
 <playlist id="playlist11"/>
 <tractor id="tractor5" in="00:00:00.000" out="00:02:49.816">
  <property name="kdenlive:trackheight">67</property>
  <property name="kdenlive:collapsed">0</property>
  <property name="kdenlive:track_name">v3</property>
  <property name="kdenlive:thumbs_format"/>
  <property name="kdenlive:audio_rec"/>
  <property name="kdenlive:timeline_active">1</property>
  <track hide="audio" producer="playlist10"/>
  <track hide="both" producer="playlist11"/>
 </tractor>
 <producer id="producer76" in="00:00:00.000" out="00:00:18.519">
  <property name="length">556</property>
  <property name="eof">pause</property>
  <property name="resource">firebase_create_newnote.mp4</property>
  <property name="audio_index">-1</property>
  <property name="video_index">0</property>
  <property name="mute_on_pause">0</property>
  <property name="mlt_service">avformat-novalidate</property>
  <property name="seekable">1</property>
  <property name="aspect_ratio">1</property>
  <property name="kdenlive:clipname"/>
  <property name="kdenlive:folderid">-1</property>
  <property name="kdenlive:id">64</property>
  <property name="kdenlive:file_size">157586</property>
  <property name="kdenlive:file_hash">f517797dcdb99ce3edd29f926744d6cc</property>
  <property name="global_feed">1</property>
  <property name="xml">was here</property>
  <property name="meta.media.nb_streams">1</property>
  <property name="meta.media.0.stream.type">video</property>
  <property name="meta.media.0.stream.frame_rate">30.0539</property>
  <property name="meta.media.0.stream.sample_aspect_ratio">1</property>
  <property name="meta.media.0.codec.width">662</property>
  <property name="meta.media.0.codec.height">468</property>
  <property name="meta.media.0.codec.rotate">0</property>
  <property name="meta.media.0.codec.frame_rate">30</property>
  <property name="meta.media.0.codec.pix_fmt">yuv420p</property>
  <property name="meta.media.0.codec.sample_aspect_ratio">1</property>
  <property name="meta.media.0.codec.colorspace">709</property>
  <property name="meta.media.0.codec.color_trc">1</property>
  <property name="meta.media.0.codec.name">h264</property>
  <property name="meta.media.0.codec.long_name">H.264 / AVC / MPEG-4 AVC / MPEG-4 part 10</property>
  <property name="meta.media.0.codec.bit_rate">64656</property>
  <property name="meta.attr.0.stream.handler_name.markup">VideoHandler</property>
  <property name="meta.attr.major_brand.markup">isom</property>
  <property name="meta.attr.minor_version.markup">512</property>
  <property name="meta.attr.compatible_brands.markup">isomiso2avc1mp41</property>
  <property name="meta.attr.encoder.markup">Lavf58.45.100</property>
  <property name="meta.media.sample_aspect_num">1</property>
  <property name="meta.media.sample_aspect_den">1</property>
  <property name="meta.media.frame_rate_num">16740</property>
  <property name="meta.media.frame_rate_den">557</property>
  <property name="meta.media.colorspace">709</property>
  <property name="meta.media.color_trc">1</property>
  <property name="meta.media.width">662</property>
  <property name="meta.media.height">468</property>
  <property name="meta.media.color_range">mpeg</property>
  <property name="meta.media.top_field_first">0</property>
  <property name="meta.media.progressive">1</property>
  <property name="set.test_audio">1</property>
  <property name="set.test_image">0</property>
 </producer>
 <playlist id="playlist12">
  <blank length="00:02:37.304"/>
  <entry producer="producer76" in="00:00:00.000" out="00:00:05.038">
   <property name="kdenlive:id">64</property>
   <filter id="filter42">
    <property name="rotate_center">1</property>
    <property name="mlt_service">qtblend</property>
    <property name="kdenlive_id">qtblend</property>
    <property name="rect">00:00:00.000=555 263 1440 810 1.000000</property>
    <property name="rotation">00:00:00.000=0</property>
    <property name="compositing">0</property>
    <property name="distort">0</property>
    <property name="kdenlive:collapsed">0</property>
   </filter>
  </entry>
  <entry producer="producer76" in="00:00:09.176" out="00:00:16.617">
   <property name="kdenlive:id">64</property>
   <filter id="filter43">
    <property name="rotate_center">1</property>
    <property name="mlt_service">qtblend</property>
    <property name="kdenlive_id">qtblend</property>
    <property name="rect">00:00:09.176=555 263 1440 810 1.000000</property>
    <property name="rotation">00:00:09.176=0</property>
    <property name="compositing">0</property>
    <property name="distort">0</property>
    <property name="kdenlive:collapsed">0</property>
   </filter>
  </entry>
 </playlist>
 <playlist id="playlist13"/>
 <tractor id="tractor6" in="00:00:00.000" out="00:02:49.816">
  <property name="kdenlive:trackheight">67</property>
  <property name="kdenlive:collapsed">0</property>
  <property name="kdenlive:thumbs_format"/>
  <property name="kdenlive:audio_rec"/>
  <property name="kdenlive:timeline_active">1</property>
  <track hide="audio" producer="playlist12"/>
  <track hide="both" producer="playlist13"/>
 </tractor>
 <playlist id="timeline_preview"/>
 <tractor id="tractor7" global_feed="1" in="00:00:00.000" out="00:19:46.547">
  <track producer="black_track"/>
  <track producer="tractor0"/>
  <track producer="tractor1"/>
  <track producer="tractor2"/>
  <track producer="tractor3"/>
  <track producer="tractor4"/>
  <track producer="tractor5"/>
  <track producer="tractor6"/>
  <track hide="both" producer="timeline_preview"/>
  <transition id="transition0">
   <property name="a_track">0</property>
   <property name="b_track">1</property>
   <property name="mlt_service">mix</property>
   <property name="kdenlive_id">mix</property>
   <property name="internal_added">237</property>
   <property name="always_active">1</property>
   <property name="sum">1</property>
  </transition>
  <transition id="transition1">
   <property name="a_track">0</property>
   <property name="b_track">2</property>
   <property name="mlt_service">mix</property>
   <property name="kdenlive_id">mix</property>
   <property name="internal_added">237</property>
   <property name="always_active">1</property>
   <property name="sum">1</property>
  </transition>
  <transition id="transition2">
   <property name="a_track">0</property>
   <property name="b_track">3</property>
   <property name="compositing">0</property>
   <property name="distort">0</property>
   <property name="rotate_center">0</property>
   <property name="mlt_service">qtblend</property>
   <property name="kdenlive_id">qtblend</property>
   <property name="internal_added">237</property>
   <property name="always_active">1</property>
  </transition>
  <transition id="transition3">
   <property name="a_track">0</property>
   <property name="b_track">4</property>
   <property name="compositing">0</property>
   <property name="distort">0</property>
   <property name="rotate_center">0</property>
   <property name="mlt_service">qtblend</property>
   <property name="kdenlive_id">qtblend</property>
   <property name="internal_added">237</property>
   <property name="always_active">1</property>
  </transition>
  <transition id="transition4">
   <property name="a_track">0</property>
   <property name="b_track">5</property>
   <property name="compositing">0</property>
   <property name="distort">0</property>
   <property name="rotate_center">0</property>
   <property name="mlt_service">qtblend</property>
   <property name="kdenlive_id">qtblend</property>
   <property name="internal_added">237</property>
   <property name="always_active">1</property>
  </transition>
  <transition id="transition5">
   <property name="a_track">0</property>
   <property name="b_track">6</property>
   <property name="compositing">0</property>
   <property name="distort">0</property>
   <property name="rotate_center">0</property>
   <property name="mlt_service">qtblend</property>
   <property name="kdenlive_id">qtblend</property>
   <property name="internal_added">237</property>
   <property name="always_active">1</property>
  </transition>
  <transition id="transition6">
   <property name="a_track">0</property>
   <property name="b_track">7</property>
   <property name="compositing">0</property>
   <property name="distort">0</property>
   <property name="rotate_center">0</property>
   <property name="mlt_service">qtblend</property>
   <property name="kdenlive_id">qtblend</property>
   <property name="internal_added">237</property>
   <property name="always_active">1</property>
  </transition>
  <filter id="filter44">
   <property name="window">75</property>
   <property name="max_gain">20dB</property>
   <property name="level">3.60657</property>
   <property name="mlt_service">volume</property>
   <property name="internal_added">237</property>
   <property name="disable">0</property>
  </filter>
  <filter id="filter45">
   <property name="channel">-1</property>
   <property name="mlt_service">panner</property>
   <property name="internal_added">237</property>
   <property name="start">0.5</property>
   <property name="disable">1</property>
  </filter>
  <filter id="filter36">
   <property name="iec_scale">0</property>
   <property name="mlt_service">audiolevel</property>
   <property name="disable">1</property>
  </filter>
 </tractor>
</mlt>
